<?xml version="1.0" standalone="no"?>
<!DOCTYPE svg PUBLIC "-//W3C//DTD SVG 1.1//EN" "http://www.w3.org/Graphics/SVG/1.1/DTD/svg11.dtd" >
<svg>
<metadata>
Created by FontForge 20090622 at Wed Dec  7 07:11:02 2016
 By deploy user
Copyright (c) 2014 Indian Type Foundry (info@indiantypefoundry.com)
</metadata>
<defs>
<font id="Poppins-Light" horiz-adv-x="265" >
  <font-face 
    font-family="Poppins Light"
    font-weight="300"
    font-stretch="normal"
    units-per-em="1000"
    panose-1="2 0 0 0 0 0 0 0 0 0"
    ascent="800"
    descent="-200"
    x-height="546"
    cap-height="690"
    bbox="-529 -440 2631 1066"
    underline-thickness="50"
    underline-position="-100"
    unicode-range="U+000D-U+F03E4"
  />
<missing-glyph horiz-adv-x="750" 
d="M234 651v-601h282v601h-282zM180 0v701h390v-701h-390z" />
    <glyph glyph-name="uniFB01" unicode="fi" horiz-adv-x="548" 
d="M403 737q15 15 36.5 15t36 -15t14.5 -36.5t-14.5 -36.5t-36 -15t-36.5 15t-15 36.5t15 36.5zM169 599v-53h304v-546h-70v491h-234v-491h-70v491h-76v55h76v53q0 86 45 125t144 39v-56q-66 0 -92.5 -25t-26.5 -83z" />
    <glyph glyph-name="uniFB02" unicode="fl" horiz-adv-x="548" 
d="M403 740h70v-740h-70v740zM169 599v-53h127v-55h-127v-491h-70v491h-76v55h76v53q0 86 45 125t144 39v-56q-66 0 -92.5 -25t-26.5 -83z" />
    <glyph glyph-name=".notdef" horiz-adv-x="750" 
d="M234 651v-601h282v601h-282zM180 0v701h390v-701h-390z" />
    <glyph glyph-name="uF0001" unicode="&#xf0001;" horiz-adv-x="0" 
 />
    <glyph glyph-name="uF0002" unicode="&#xf0002;" horiz-adv-x="333" 
 />
    <glyph glyph-name="uni0000" horiz-adv-x="0" 
 />
    <glyph glyph-name="uni000D" unicode="&#xd;" horiz-adv-x="300" 
 />
    <glyph glyph-name="space" unicode=" " horiz-adv-x="300" 
 />
    <glyph glyph-name="exclam" unicode="!" horiz-adv-x="406" 
d="M209 0q-20 0 -34.5 14.5t-14.5 34.5t14.5 34.5t34.5 14.5t34.5 -14.5t14.5 -34.5t-14.5 -34.5t-34.5 -14.5zM179 195l-8 552h71l-8 -552h-55z" />
    <glyph glyph-name="quotedbl" unicode="&#x22;" horiz-adv-x="253" 
d="M162 602l-12 193h73l-12 -193h-49zM42 602l-12 193h73l-12 -193h-49z" />
    <glyph glyph-name="numbersign" unicode="#" horiz-adv-x="827" 
d="M769 465h-158l-40 -189h143v-58h-155l-47 -218h-69l47 218h-220l-47 -218h-69l47 218h-158v58h170l40 189h-155v58h168l46 217h69l-46 -217h220l46 217h69l-46 -217h145v-58zM502 276l40 189h-220l-40 -189h220z" />
    <glyph glyph-name="dollar" unicode="$" horiz-adv-x="655" 
d="M459 59q-52 -57 -149 -65v-81h-55v81q-85 7 -140 52t-55 117h74q4 -43 33.5 -73t87.5 -36v266q-45 10 -73 20t-60 30q-62 41 -62 137q0 79 51.5 130.5t143.5 58.5v81h55v-81q79 -7 128 -51t60 -113h-79q-3 35 -31.5 64.5t-77.5 37.5v-261q121 -26 160 -67q41 -42 41 -116
t-52 -131zM160.5 598.5q-35.5 -32.5 -35.5 -88.5t33.5 -82.5t96.5 -41.5v250q-59 -5 -94.5 -37.5zM410 97q36 37 36 90.5t-35 79t-101 41.5v-255q64 7 100 44z" />
    <glyph glyph-name="percent" unicode="%" horiz-adv-x="650" 
d="M459.5 230q-74.5 0 -74.5 -97.5t74.5 -97.5t74.5 97.5t-74.5 97.5zM320 133q0 64 39.5 103t100.5 39t100.5 -39t39.5 -103t-39.5 -103.5t-100.5 -39.5t-100.5 39.5t-39.5 103.5zM84 0l410 690h71l-410 -690h-71zM189.5 655q-74.5 0 -74.5 -97.5t74.5 -97.5t74.5 97.5
t-74.5 97.5zM50 558q0 64 39.5 103t100.5 39t100.5 -39t39.5 -103t-39.5 -103.5t-100.5 -39.5t-100.5 39.5t-39.5 103.5z" />
    <glyph glyph-name="ampersand" unicode="&#x26;" horiz-adv-x="659" 
d="M366.5 38q-53.5 -46 -133 -46t-136.5 55t-57 143t57 143t141 55q9 0 17 -1l-27 35q-72 90 -72 158t47 114t126 46t126 -46t47 -109q0 -21 -5 -41h-73q5 20 5 41q0 42 -28 70.5t-72 28.5t-72 -28.5t-28 -75.5t53 -116l358 -464h-88l-119 155q-13 -71 -66.5 -117zM238 48
q54 0 92.5 41.5t38.5 101.5t-38.5 100.5t-92.5 40.5t-91.5 -40.5t-37.5 -100.5t37.5 -101.5t91.5 -41.5z" />
    <glyph glyph-name="quotesingle" unicode="'" horiz-adv-x="133" 
d="M42 602l-12 193h73l-12 -193h-49z" />
    <glyph glyph-name="parenleft" unicode="(" horiz-adv-x="583" 
d="M245.5 61q-71.5 157 -71.5 341.5t71.5 341.5t190.5 244h78v-7q-137 -106 -204.5 -259t-67.5 -319t67.5 -319.5t204.5 -259.5v-7h-78q-119 87 -190.5 244z" />
    <glyph glyph-name="parenright" unicode=")" horiz-adv-x="583" 
d="M337.5 744q71.5 -157 71.5 -341.5t-71.5 -341.5t-190.5 -244h-78v7q137 106 204.5 259.5t67.5 319.5t-67.5 319t-204.5 259v7h78q119 -87 190.5 -244z" />
    <glyph glyph-name="asterisk" unicode="*" horiz-adv-x="481" 
d="M275 732l-19 -157l125 92l35 -64l-148 -57l148 -57l-35 -64l-125 92l19 -157h-73l16 157l-127 -94l-37 66l147 57l-147 57l37 66l127 -94l-16 157h73z" />
    <glyph glyph-name="plus" unicode="+" horiz-adv-x="765" 
d="M637 400v-60h-222v-225h-65v225h-222v60h222v225h65v-225h222z" />
    <glyph glyph-name="comma" unicode="," horiz-adv-x="172" 
d="M41 56h81q20 -103 -1 -145.5t-81 -42.5v38q46 0 46 49v25h-45v76z" />
    <glyph glyph-name="hyphen" unicode="-" horiz-adv-x="589" 
d="M100 340v60h389v-60h-389z" />
    <glyph glyph-name="period" unicode="." horiz-adv-x="218" 
d="M109 0q-20 0 -34.5 14.5t-14.5 34.5t14.5 34.5t34.5 14.5t34.5 -14.5t14.5 -34.5t-14.5 -34.5t-34.5 -14.5z" />
    <glyph glyph-name="slash" unicode="/" horiz-adv-x="562" 
d="M101 -166l274 1106h71l-275 -1106h-70z" />
    <glyph glyph-name="zero" unicode="0" horiz-adv-x="632" 
d="M315 733q59 0 102.5 -19t70 -51t42.5 -80.5t22 -99.5t6 -116t-6 -116t-22 -99.5t-42.5 -80.5t-70 -51t-102.5 -19t-102.5 19t-70 51t-42.5 80.5t-22 99.5t-6 116t6 116t22 99.5t42.5 80.5t70 51t102.5 19zM315 673q-46 0 -79 -17.5t-51.5 -44t-29 -69t-13.5 -82t-3 -93.5
t3 -93.5t13.5 -82t29 -69t51.5 -44t79 -17.5t79 17.5t51.5 44t29 69t13.5 82t3 93.5t-3 93.5t-13.5 82t-29 69t-51.5 44t-79 17.5z" />
    <glyph glyph-name="one" unicode="1" horiz-adv-x="295" 
d="M130 0v650h-71v60h136v-710h-65z" />
    <glyph glyph-name="two" unicode="2" horiz-adv-x="581" 
d="M61 10v48l68.5 59l69.5 60l62.5 56.5t60 59t48 56t40.5 58.5q32 63 32 123.5t-36 103t-114 42.5t-119.5 -47t-45.5 -123h-66q5 110 67 170t160.5 60t159.5 -55.5t61 -156.5q0 -44 -18 -91.5t-41 -83t-66 -82t-69.5 -71l-77.5 -69l-65 -57.5h361v-60h-472z" />
    <glyph glyph-name="three" unicode="3" horiz-adv-x="585" 
d="M136 699.5q64 47.5 161 47.5t154.5 -52.5t57.5 -133.5q0 -57 -33.5 -102t-89.5 -62v-5q64 -16 100 -67t36 -133t-59 -139t-163.5 -57t-170.5 52.5t-76 146.5h65q7 -60 54.5 -99.5t125 -39.5t119 41t41.5 107q0 87 -55.5 123.5t-166.5 36.5h-22v59h23q207 1 207 131
q0 61 -39 97t-110.5 36t-114 -30.5t-51.5 -87.5h-67q10 83 74 130.5z" />
    <glyph glyph-name="four" unicode="4" horiz-adv-x="623" 
d="M426 230v435l-298 -435h298zM426 0v170h-382v45l351 505h96v-490h102v-60h-102v-170h-65z" />
    <glyph glyph-name="five" unicode="5" horiz-adv-x="630" 
d="M89 731h427v-60h-362v-256q23 37 72 62t108 25t106.5 -21.5t73.5 -58.5q49 -72 49 -175t-61.5 -175t-173 -72t-175 51.5t-80.5 138.5h65q17 -61 64.5 -95.5t117.5 -34.5q88 0 133 53.5t45 140.5q0 187 -178 187q-59 0 -102.5 -31t-66.5 -85h-62v406z" />
    <glyph glyph-name="six" unicode="6" horiz-adv-x="646" 
d="M468.5 375.5q-43.5 48.5 -123 48.5t-135 -45t-55.5 -131t46.5 -137t132.5 -51t132 48t46 133.5t-43.5 134zM338 687q-99 0 -146 -71t-50 -247q27 54 82.5 85t127.5 31q100 0 162 -65.5t62 -174t-59 -177t-174 -68.5q-66 0 -113.5 21t-75 54t-43.5 86t-21 105t-5 123
q0 168 61.5 263t191.5 95q92 0 147.5 -49.5t64.5 -121.5h-62q-14 58 -49.5 84.5t-100.5 26.5z" />
    <glyph glyph-name="seven" unicode="7" horiz-adv-x="560" 
d="M40 730h482v-53l-293 -677h-78l306 670h-417v60z" />
    <glyph glyph-name="eight" unicode="8" horiz-adv-x="631" 
d="M448.5 317q-51.5 39 -133 39t-133 -39t-51.5 -115.5t50 -119.5t134.5 -43t134.5 43t50 119.5t-51.5 115.5zM315 691q-78 0 -121.5 -36t-43.5 -99.5t46 -102t119.5 -38.5t119.5 38.5t46 102t-44 99.5t-122 36zM85 556q0 86 60 140.5t170.5 54.5t170.5 -54.5t60 -140.5
q0 -59 -31.5 -104t-81.5 -65q59 -18 95.5 -68t36.5 -121q0 -100 -68 -159.5t-181.5 -59.5t-181.5 59.5t-68 159.5q0 72 36 121.5t96 67.5q-113 52 -113 169z" />
    <glyph glyph-name="nine" unicode="9" horiz-adv-x="634" 
d="M198 383q45 -48 127 -48t124 46.5t42 127.5t-45 129.5t-123 48.5t-124 -48t-46 -128t45 -128zM335 61q87 0 128 67.5t41 237.5q-57 -92 -184 -92q-97 0 -164.5 64t-67.5 171t62 172.5t180 65.5t175 -88.5t57 -280.5t-51.5 -284.5t-178.5 -92.5q-96 0 -153.5 50t-69.5 126
h63q26 -116 163 -116z" />
    <glyph glyph-name="colon" unicode=":" horiz-adv-x="297" 
d="M139 434q-20 0 -34.5 14.5t-14.5 34.5t14.5 34.5t34.5 14.5t34.5 -14.5t14.5 -34.5t-14.5 -34.5t-34.5 -14.5zM139 0q-20 0 -34.5 14.5t-14.5 34.5t14.5 34.5t34.5 14.5t34.5 -14.5t14.5 -34.5t-14.5 -34.5t-34.5 -14.5z" />
    <glyph glyph-name="semicolon" unicode=";" horiz-adv-x="251" 
d="M139 436q-20 0 -34.5 14.5t-14.5 34.5t14.5 34.5t34.5 14.5t34.5 -14.5t14.5 -34.5t-14.5 -34.5t-34.5 -14.5zM93 56h81q20 -103 -1 -145.5t-81 -42.5v38q46 0 46 49v25h-45v76z" />
    <glyph glyph-name="less" unicode="&#x3c;" horiz-adv-x="658" 
d="M212 370l252 -232h-88l-252 232l252 232h88z" />
    <glyph glyph-name="equal" unicode="=" horiz-adv-x="769" 
d="M130 443v60h509v-60h-509zM130 237v60h509v-60h-509z" />
    <glyph glyph-name="greater" unicode="&#x3e;" horiz-adv-x="614" 
d="M150 138l252 232l-252 232h88l252 -232l-252 -232h-88z" />
    <glyph glyph-name="question" unicode="?" horiz-adv-x="619" 
d="M204 39q0 20 14.5 34.5t34.5 14.5t34.5 -14.5t14.5 -34.5t-14.5 -34.5t-34.5 -14.5t-34.5 14.5t-14.5 34.5zM101 539q0 91 59.5 144.5t155.5 53.5t153.5 -54.5t57.5 -157t-60 -150t-183 -48.5v-142h-66v194h33q107 -1 159 30.5t52 124.5q0 68 -39 105.5t-108 37.5
t-109 -36t-40 -102h-65z" />
    <glyph glyph-name="at" unicode="@" horiz-adv-x="1125" 
d="M123 -42q-63 101 -63 250t70.5 280.5t201 210t294.5 78.5q197 0 318 -116t121 -301q0 -154 -78.5 -262t-172.5 -108q-57 0 -80.5 37.5t-16.5 85.5q-79 -123 -212 -123q-106 0 -169 82t-44.5 206t106 201t197.5 77t171 -81.5t42 -196.5l-27 -171q-9 -58 40 -58
q62 0 116.5 90.5t54.5 220.5q0 162 -99 259.5t-277 97.5q-210 0 -346.5 -149t-136.5 -369q0 -184 113 -282t298 -105l-15 -60q-284 11 -406 206zM704.5 430.5q-44.5 65.5 -121 65.5t-141 -65.5t-78.5 -158t30 -158t121 -65.5t141.5 65.5t78.5 158t-30.5 158z" />
    <glyph glyph-name="A" unicode="A" horiz-adv-x="685" 
d="M562 0l-58 161h-322l-59 -161h-70l254 690h72l253 -690h-70zM202 217h281l-140 386z" />
    <glyph glyph-name="B" unicode="B" horiz-adv-x="595" 
d="M75 690h233q106 0 162.5 -51.5t56.5 -132.5q0 -115 -132 -150q66 -11 107 -60.5t41 -119.5t-62 -123t-162 -53h-244v690zM145 633v-249h163q70 0 109 33.5t39 90.5t-39 91t-109 34h-163zM145 56h173q75 0 116 36t41 99t-45.5 99.5t-120.5 36.5h-164v-271z" />
    <glyph glyph-name="C" unicode="C" horiz-adv-x="780" 
d="M40 345q0 153 101.5 252.5t249.5 99.5q106 0 188.5 -48t124.5 -140h-85q-32 61 -92 94t-136 33q-121 0 -200 -80t-79 -211t79 -211t200 -80q76 0 136 33.5t92 94.5h85q-42 -92 -124.5 -140t-188.5 -48q-148 0 -249.5 99t-101.5 252z" />
    <glyph glyph-name="D" unicode="D" horiz-adv-x="685" 
d="M145 54h142q139 0 211.5 75.5t72.5 211.5t-72.5 211.5t-211.5 75.5h-142v-574zM287 690q167 0 261.5 -92.5t94.5 -256.5t-94 -252.5t-262 -88.5h-212v690h212z" />
    <glyph glyph-name="E" unicode="E" horiz-adv-x="487" 
d="M426 690v-57h-281v-258h251v-56h-251v-263h281v-56h-351v690h351z" />
    <glyph glyph-name="F" unicode="F" horiz-adv-x="468" 
d="M75 0v690h372v-57h-302v-258h241v-56h-241v-319h-70z" />
    <glyph glyph-name="G" unicode="G" horiz-adv-x="780" 
d="M40 345q0 153 101.5 252.5t249.5 99.5q106 0 188.5 -48t124.5 -140h-85q-32 61 -92 94t-136 33q-121 0 -200 -80t-79 -211t79 -211t198.5 -80t193.5 70t85 191h-310v56h383v-56q-14 -144 -112 -232.5t-242 -88.5t-245.5 99t-101.5 252z" />
    <glyph glyph-name="H" unicode="H" horiz-adv-x="660" 
d="M515 690h70v-690h-70v319h-370v-319h-70v690h70v-315h370v315z" />
    <glyph glyph-name="I" unicode="I" horiz-adv-x="220" 
d="M75 0v690h70v-690h-70z" />
    <glyph glyph-name="J" unicode="J" horiz-adv-x="541" 
d="M352 170v520h70v-520q0 -80 -49.5 -128.5t-133 -48.5t-133.5 48.5t-50 128.5h72q1 -50 27.5 -83.5t84.5 -33.5t85 33.5t27 83.5z" />
    <glyph glyph-name="K" unicode="K" horiz-adv-x="565" 
d="M145 0h-70v690h70v-323l299 323h91l-335 -350l335 -340h-95l-295 310v-310z" />
    <glyph glyph-name="L" unicode="L" horiz-adv-x="416" 
d="M75 690h70v-636h251v-54h-321v690z" />
    <glyph glyph-name="M" unicode="M" horiz-adv-x="833" 
d="M758 690v-690h-70v531l-251 -531h-41l-251 529v-529h-70v690h65l277 -589l276 589h65z" />
    <glyph glyph-name="N" unicode="N" horiz-adv-x="677" 
d="M532 690h70v-690h-70l-387 578v-578h-70v690h70l387 -578v578z" />
    <glyph glyph-name="O" unicode="O" horiz-adv-x="781" 
d="M670 345q0 131 -79 211t-200 80t-200.5 -80t-79.5 -211t79.5 -211.5t200 -80.5t200 80.5t79.5 211.5zM40 345q0 153 101.5 252.5t250 99.5t249.5 -99.5t101 -252.5t-101 -252.5t-249.5 -99.5t-250 99.5t-101.5 252.5z" />
    <glyph glyph-name="P" unicode="P" horiz-adv-x="562" 
d="M522 489q0 -90 -59.5 -145t-176.5 -55h-141v-289h-70v690h211q116 0 176 -55.5t60 -145.5zM145 346h141q165 0 165 143.5t-165 143.5h-141v-287z" />
    <glyph glyph-name="Q" unicode="Q" horiz-adv-x="782" 
d="M391 -7q-148 0 -249.5 99.5t-101.5 252.5t101.5 252.5t250 99.5t249.5 -99.5t101 -252.5q0 -101 -47 -181.5t-127 -125.5l186 -173h-97l-156 144q-56 -16 -110 -16zM111 345q0 -131 79.5 -211.5t200 -80.5t200 80.5t79.5 211.5t-79 211t-200 80t-200.5 -80t-79.5 -211z
" />
    <glyph glyph-name="R" unicode="R" horiz-adv-x="603" 
d="M145 289v-289h-70v690h211q116 0 176 -55.5t60 -140.5t-47 -137.5t-140 -64.5l196 -292h-91l-187 289h-108zM145 633v-287h141q165 0 165 143.5t-165 143.5h-141z" />
    <glyph glyph-name="S" unicode="S" horiz-adv-x="571" 
d="M125 508q0 -41 21.5 -67t55.5 -38.5t75 -21.5t82 -20t75 -28.5t55.5 -53.5t21.5 -89q0 -79 -59 -138t-161.5 -59t-166.5 46t-64 124h74q4 -48 41 -79.5t110.5 -31.5t117 38t43.5 94.5t-40 85t-96.5 39.5t-113 25.5t-96.5 56.5t-40 122t59.5 132t157 52t153.5 -45t68 -120
h-79q-4 42 -42 73.5t-104 31.5t-107 -33t-41 -96z" />
    <glyph glyph-name="T" unicode="T" horiz-adv-x="529" 
d="M49 633v57h431v-57h-181v-633h-69v633h-181z" />
    <glyph glyph-name="U" unicode="U" horiz-adv-x="658" 
d="M75 232v458h70v-458q0 -92 49.5 -136.5t135.5 -44.5t135 44.5t49 136.5v458h70v-458q0 -118 -71 -178.5t-183 -60.5t-183.5 60.5t-71.5 178.5z" />
    <glyph glyph-name="V" unicode="V" horiz-adv-x="668" 
d="M300 0l-271 690h74l230 -611l232 611h74l-271 -690h-68z" />
    <glyph glyph-name="W" unicode="W" horiz-adv-x="963" 
d="M861 690h73l-214 -690h-76l-165 590l-179 -590l-76 -1l-195 691h73l162 -611l179 611h76l164 -608z" />
    <glyph glyph-name="X" unicode="X" horiz-adv-x="601" 
d="M551 690l-212 -345l212 -345h-76l-180 292l-169 -292h-76l212 345l-212 345h76l180 -292l169 292h76z" />
    <glyph glyph-name="Y" unicode="Y" horiz-adv-x="541" 
d="M306 0h-70v272l-221 418h75l180 -354l180 354h76l-220 -418v-272z" />
    <glyph glyph-name="Z" unicode="Z" horiz-adv-x="528" 
d="M478 690v-57l-348 -577h348v-56h-428v56l348 577h-348v57h428z" />
    <glyph glyph-name="bracketleft" unicode="[" horiz-adv-x="465" 
d="M170 -166v1106h136v-60h-71v-986h71v-60h-136z" />
    <glyph glyph-name="backslash" unicode="\" horiz-adv-x="651" 
d="M220 940l324 -1106h-70l-325 1106h71z" />
    <glyph glyph-name="bracketright" unicode="]" horiz-adv-x="465" 
d="M295 940v-1106h-136v60h71v986h-71v60h136z" />
    <glyph glyph-name="asciicircum" unicode="^" horiz-adv-x="611" 
d="M495 171l-189 428l-190 -428h-76l234 519h63l234 -519h-76z" />
    <glyph glyph-name="underscore" unicode="_" horiz-adv-x="813" 
d="M158 -100v60h509v-60h-509z" />
    <glyph glyph-name="grave" unicode="`" horiz-adv-x="225" 
d="M10 700v70l205 -128v-57z" />
    <glyph glyph-name="a" unicode="a" horiz-adv-x="662" 
d="M517 273q0 100 -59.5 161.5t-143.5 61.5t-143 -59t-59 -159.5t59.5 -164t143 -63.5t143 61.5t59.5 161.5zM115 71q-75 81 -75 206.5t74.5 202t189.5 76.5q74 0 130 -36t83 -93v119h70v-546h-70v120q-27 -57 -83 -93.5t-130 -36.5q-114 0 -189 81z" />
    <glyph glyph-name="b" unicode="b" horiz-adv-x="662" 
d="M490.5 113.5q59.5 63.5 59.5 164t-59 159.5t-143.5 59t-143.5 -61.5t-59 -161.5t59 -161.5t143 -61.5t143.5 63.5zM358 556q115 0 189.5 -76.5t74.5 -202t-75 -206.5t-189 -81q-74 0 -130 36.5t-83 93.5v-120h-70v740h70v-313q27 57 83 93t130 36z" />
    <glyph glyph-name="c" unicode="c" horiz-adv-x="600" 
d="M40 273q0 127 73 205t190 78q192 0 244 -172h-75q-17 55 -60.5 85.5t-108.5 30.5q-85 0 -138 -58.5t-53 -168t53 -168.5t138 -59q65 0 108.5 30.5t60.5 85.5h75q-26 -78 -87 -125t-157 -47q-117 0 -190 78t-73 205z" />
    <glyph glyph-name="d" unicode="d" horiz-adv-x="662" 
d="M517 273q0 100 -59.5 161.5t-143.5 61.5t-143 -59t-59 -159.5t59.5 -164t143 -63.5t143 61.5t59.5 161.5zM115 71q-75 81 -75 206.5t74.5 202t189.5 76.5q74 0 130 -36t83 -93v313h70v-740h-70v120q-27 -57 -83 -93.5t-130 -36.5q-114 0 -189 81z" />
    <glyph glyph-name="e" unicode="e" horiz-adv-x="605" 
d="M303 -10q-117 0 -190 78t-73 205.5t74.5 205t193 77.5t188.5 -73t70 -181q0 -29 -4 -54h-450q4 -94 57 -148t134 -54q63 0 107.5 29t61.5 76h75q-27 -70 -88 -115.5t-156 -45.5zM494 303q0 90 -54.5 143.5t-135 53.5t-134 -52.5t-58.5 -144.5h382z" />
    <glyph glyph-name="f" unicode="f" horiz-adv-x="328" 
d="M296 546v-55h-127v-491h-70v491h-76v55h76v53q0 86 45 125t144 39v-56q-66 0 -92.5 -25t-26.5 -83v-53h127z" />
    <glyph glyph-name="g" unicode="g" horiz-adv-x="662" 
d="M115 71q-75 81 -75 206.5t74.5 202t189.5 76.5q74 0 130 -36t83 -93v119h70v-565q0 -111 -73.5 -180t-179.5 -69t-179 52t-84 129h69q13 -51 66 -86t130 -35t129 50.5t52 138.5v139q-27 -57 -83 -93.5t-130 -36.5q-114 0 -189 81zM517 273q0 100 -59.5 161.5t-143.5 61.5
t-143 -59t-59 -159.5t59.5 -164t143 -63.5t143 61.5t59.5 161.5z" />
    <glyph glyph-name="h" unicode="h" horiz-adv-x="609" 
d="M145 740v-283q55 99 181 99q91 0 152 -59.5t61 -171.5v-325h-69v312q0 90 -43.5 137t-119 47t-119 -47t-43.5 -137v-312h-70v740h70z" />
    <glyph glyph-name="i" unicode="i" horiz-adv-x="220" 
d="M147.5 664q-14.5 -15 -36 -15t-36.5 15t-15 36.5t15 36.5t36.5 15t36 -15t14.5 -36.5t-14.5 -36.5zM75 0v546h70v-546h-70z" />
    <glyph glyph-name="j" unicode="j" horiz-adv-x="220" 
d="M75 546h70v-674q0 -130 -128 -130h-53v56h38q41 0 57 16.5t16 57.5v674zM147.5 664q-14.5 -15 -36 -15t-36.5 15t-15 36.5t15 36.5t36.5 15t36 -15t14.5 -36.5t-14.5 -36.5z" />
    <glyph glyph-name="k" unicode="k" horiz-adv-x="476" 
d="M145 0h-70v740h70v-438l220 244h101l-265 -270l265 -276h-96l-225 245v-245z" />
    <glyph glyph-name="l" unicode="l" horiz-adv-x="220" 
d="M75 0v740h70v-740h-70z" />
    <glyph glyph-name="m" unicode="m" horiz-adv-x="1003" 
d="M145 546v-89q55 99 181 99q65 0 116.5 -31t76.5 -91q28 58 80.5 90t120.5 32q91 0 152 -59.5t61 -171.5v-325h-69v312q0 90 -43.5 137t-119 47t-119 -47t-43.5 -137v-312h-69v312q0 90 -43.5 137t-119 47t-119 -47t-43.5 -137v-312h-70v546h70z" />
    <glyph glyph-name="n" unicode="n" horiz-adv-x="609" 
d="M145 546v-89q55 99 181 99q91 0 152 -59.5t61 -171.5v-325h-69v312q0 90 -43.5 137t-119 47t-119 -47t-43.5 -137v-312h-70v546h70z" />
    <glyph glyph-name="o" unicode="o" horiz-adv-x="626" 
d="M451 107q62 61 62 166.5t-59 166t-144 60.5t-142 -60t-57 -167t54 -167t139 -60t147 61zM113.5 68q-73.5 78 -73.5 204.5t78 205t195 78.5t195 -78.5t78 -204t-82 -204.5t-199.5 -79t-191 78z" />
    <glyph glyph-name="p" unicode="p" horiz-adv-x="662" 
d="M490.5 113.5q59.5 63.5 59.5 164t-59 159.5t-143.5 59t-143.5 -61.5t-59 -161.5t59 -161.5t143 -61.5t143.5 63.5zM358 556q115 0 189.5 -76.5t74.5 -202t-75 -206.5t-189 -81q-74 0 -130 36.5t-83 93.5v-378h-70v804h70v-119q27 57 83 93t130 36z" />
    <glyph glyph-name="q" unicode="q" horiz-adv-x="662" 
d="M517 273q0 100 -59.5 161.5t-143.5 61.5t-143 -59t-59 -159.5t59.5 -164t143 -63.5t143 61.5t59.5 161.5zM115 71q-75 81 -75 206.5t74.5 202t189.5 76.5q74 0 130 -36t83 -93v119h70v-804h-70v378q-27 -57 -83 -93.5t-130 -36.5q-114 0 -189 81z" />
    <glyph glyph-name="r" unicode="r" horiz-adv-x="353" 
d="M145 546v-90q45 100 169 100v-73h-20q-72 0 -110.5 -39t-38.5 -134v-310h-70v546h70z" />
    <glyph glyph-name="s" unicode="s" horiz-adv-x="518" 
d="M60 395q0 68 56 114.5t143 46.5t135.5 -45.5t53.5 -125.5h-72q-2 50 -34 82.5t-89 32.5t-89.5 -28t-32.5 -67.5t24 -62.5t60.5 -31t79 -19t79 -23.5t60.5 -45t24 -83.5q0 -66 -55 -108t-144.5 -42t-141.5 46t-57 125h72q2 -51 36 -83t93.5 -32t92.5 25.5t33 65.5t-24 63
t-60.5 31.5t-79 19.5t-79 23t-60.5 43t-24 78z" />
    <glyph glyph-name="t" unicode="t" horiz-adv-x="339" 
d="M318 491h-151v-362q0 -41 16 -57.5t57 -16.5h78v-55h-93q-128 0 -128 129v362h-76v55h76v137h70v-137h151v-55z" />
    <glyph glyph-name="u" unicode="u" horiz-adv-x="609" 
d="M464 546h70v-546h-70v89q-55 -99 -181 -99q-91 0 -152 59.5t-61 171.5v325h69v-312q0 -90 43.5 -137t119 -47t119 47t43.5 137v312z" />
    <glyph glyph-name="v" unicode="v" horiz-adv-x="537" 
d="M14 546h75l179 -477l180 477h75l-219 -546h-71z" />
    <glyph glyph-name="w" unicode="w" horiz-adv-x="792" 
d="M704 546h74l-174 -546h-71l-136 460l-136 -460h-71l-176 546h74l137 -471l141 471h70l132 -470z" />
    <glyph glyph-name="x" unicode="x" horiz-adv-x="459" 
d="M445 546l-176 -273l175 -273h-80l-141 219l-129 -219h-80l175 273l-175 273h80l141 -220l130 220h80z" />
    <glyph glyph-name="y" unicode="y" horiz-adv-x="535" 
d="M231 8l-217 538h75l180 -464l180 464h71l-324 -800h-71z" />
    <glyph glyph-name="z" unicode="z" horiz-adv-x="437" 
d="M396 546v-55l-279 -435h279v-56h-356v56l279 435h-279v55h356z" />
    <glyph glyph-name="braceleft" unicode="{" horiz-adv-x="556" 
d="M328 232q0 -30 -8 -88.5t-8 -104.5q0 -193 126 -240v-16h-69q-17 8 -28 14t-31 24.5t-32 41.5q-31 59 -31 159q0 36 8.5 99t8.5 97q0 110 -101 136v36q101 23 101 136q0 34 -8.5 97t-8.5 107.5t9.5 86t21.5 64.5t32 41.5t31 24.5t28 14h69v-16q-126 -47 -126 -240
q0 -46 8 -104.5t8 -88.5q0 -53 -26 -90.5t-78 -48.5v-2q104 -20 104 -139z" />
    <glyph glyph-name="bar" unicode="|" horiz-adv-x="280" 
d="M105 790h70v-890h-70v890z" />
    <glyph glyph-name="braceright" unicode="}" horiz-adv-x="556" 
d="M228 512q0 30 8 88.5t8 104.5q0 193 -126 240v16h69q17 -8 28 -14t31 -24.5t32 -41.5q31 -59 31 -159q0 -36 -8.5 -99t-8.5 -97q0 -113 101 -136v-36q-101 -26 -101 -136q0 -34 8.5 -97t8.5 -107.5t-9.5 -86t-21.5 -64.5t-32 -41.5t-31 -24.5t-28 -14h-69v16
q126 47 126 240q0 46 -8 104.5t-8 88.5q0 119 104 139v2q-52 11 -78 48.5t-26 90.5z" />
    <glyph glyph-name="asciitilde" unicode="~" horiz-adv-x="491" 
d="M87 355q35 31 79 31t88.5 -32t70.5 -32t47.5 16.5t25.5 43.5h53q-12 -62 -47 -93t-79 -31t-88 32t-70.5 32t-48 -16.5t-25.5 -43.5h-53q12 62 47 93z" />
    <glyph glyph-name="uni00A0" unicode="&#xa0;" horiz-adv-x="300" 
 />
    <glyph glyph-name="exclamdown" unicode="&#xa1;" horiz-adv-x="418" 
d="M171 -191l8 552h55l8 -552h-71zM209 556q20 0 34.5 -14.5t14.5 -34.5t-14.5 -34.5t-34.5 -14.5t-34.5 14.5t-14.5 34.5t14.5 34.5t34.5 14.5z" />
    <glyph glyph-name="cent" unicode="&#xa2;" horiz-adv-x="737" 
d="M331 464q-87 0 -139 -54t-52 -148t52 -148t139 -54q126 0 161 101h65q-12 -63 -63.5 -108t-135.5 -52v-91h-55v91q-110 9 -169 84t-59 177t59 177t169 84v91h55v-91q84 -7 135.5 -52t63.5 -108h-65q-35 101 -161 101z" />
    <glyph glyph-name="sterling" unicode="&#xa3;" horiz-adv-x="632" 
d="M534 60v-60h-426l-17 45q38 49 56.5 90.5t18.5 91t-11 87.5h-108v50h90q-25 63 -25 128q0 90 59.5 149t155.5 59t146.5 -56.5t52.5 -145.5h-62q0 65 -34.5 103.5t-102 38.5t-109 -36.5t-41.5 -115.5q0 -49 25 -124h203v-50h-186q13 -46 13 -75q0 -98 -68 -179h370z" />
    <glyph glyph-name="currency" unicode="&#xa4;" horiz-adv-x="526" 
d="M404 479q28 -44 28 -101t-29 -102l63 -62l-39 -39l-62 62q-46 -35 -106.5 -35t-100.5 32l-59 -59l-39 39l61 61q-27 43 -27 103t29 101l-63 62l39 39l61 -61q44 33 103 33t103 -33l61 61l39 -39zM181 281.5q30 -33.5 77.5 -33.5t81.5 34t34 94.5t-33 95.5t-80 35
t-78.5 -34.5t-31.5 -96t30 -95z" />
    <glyph glyph-name="yen" unicode="&#xa5;" horiz-adv-x="541" 
d="M506 372v-57l-179 -3l-21 -40v-75h200v-57h-200v-140h-70v140h-200v57h200v75l-21 40l-179 3v57h147l-168 318h75l180 -354l180 354h76l-167 -318h147z" />
    <glyph glyph-name="brokenbar" unicode="&#xa6;" horiz-adv-x="280" 
d="M175 420h-70v370h70v-370zM105 270h70v-370h-70v370z" />
    <glyph glyph-name="section" unicode="&#xa7;" horiz-adv-x="571" 
d="M480 544h-64q-3 42 -35 69t-94 27q-140 0 -140 -96q0 -36 32.5 -58t136.5 -53.5t155 -74t51 -109t-42 -112t-113 -58.5q40 -16 62 -28.5t41.5 -39.5t19.5 -64q0 -65 -54.5 -107.5t-144.5 -42.5t-145 40t-55 107h64q3 -42 35 -69t94 -27q140 0 140 96q0 36 -32.5 58
t-136.5 53.5t-155 74t-51 109.5t42.5 112t112.5 58q-40 16 -62 28.5t-41.5 39.5t-19.5 64q0 65 54.5 107.5t144.5 42.5t145 -40t55 -107zM162 332q-45 -36 -45 -87.5t47.5 -88t123.5 -36.5t121 36t45 88.5t-48 88t-123.5 35.5t-120.5 -36z" />
    <glyph glyph-name="dieresis" unicode="&#xa8;" horiz-adv-x="268" 
d="M209 620q-20 0 -34.5 14.5t-14.5 34.5t14.5 34.5t34.5 14.5t34.5 -14.5t14.5 -34.5t-14.5 -34.5t-34.5 -14.5zM59 620q-20 0 -34.5 14.5t-14.5 34.5t14.5 34.5t34.5 14.5t34.5 -14.5t14.5 -34.5t-14.5 -34.5t-34.5 -14.5z" />
    <glyph glyph-name="copyright" unicode="&#xa9;" horiz-adv-x="790" 
d="M740 344q0 -156 -96 -255t-249 -99t-249 99t-96 255t96 254.5t249 98.5t249 -98.5t96 -254.5zM173 575q-82 -86 -82 -230.5t82.5 -231.5t221.5 -87t221.5 87t82.5 231.5t-82 230.5t-222 86t-222 -86zM395 112q-91 0 -153.5 65t-62.5 168t62.5 168t145.5 65t135.5 -38
t73.5 -104h-71q-25 87 -130 87q-64 0 -104.5 -44t-40.5 -133t41 -134t104 -45q100 0 130 87h71q-21 -63 -74 -102.5t-127 -39.5z" />
    <glyph glyph-name="ordfeminine" unicode="&#xaa;" horiz-adv-x="445" 
d="M337 528q0 60 -35 96t-84.5 36t-85 -35t-35.5 -94.5t35.5 -97t85 -37.5t84.5 36t35 96zM35 531q0 78 47.5 128t117.5 50q48 0 83.5 -21.5t53.5 -54.5v70h58v-350h-58v71q-18 -34 -53.5 -55.5t-83.5 -21.5q-69 0 -117 53t-48 131z" />
    <glyph glyph-name="guillemotleft" unicode="&#xab;" horiz-adv-x="435" 
d="M283 295l102 -175h-71l-99 175l99 175h71zM113 295l102 -175h-71l-99 175l99 175h71z" />
    <glyph glyph-name="logicalnot" unicode="&#xac;" horiz-adv-x="729" 
d="M49 373v57h630v-200h-69v143h-561z" />
    <glyph glyph-name="uni00AD" unicode="&#xad;" horiz-adv-x="589" 
d="M100 340v60h389v-60h-389z" />
    <glyph glyph-name="registered" unicode="&#xae;" horiz-adv-x="790" 
d="M395 697q153 0 249 -98.5t96 -254.5t-96 -255t-249 -99t-249 99t-96 255t96 254.5t249 98.5zM395 26q139 0 221.5 87t82.5 231.5t-82 230.5t-222 86t-222 -86t-82 -230.5t82.5 -231.5t221.5 -87zM255 589h144q80 0 121 -37.5t41 -95.5t-32 -94.5t-95 -44.5l133 -199h-62
l-128 197h-74v-197h-48v471zM303 550v-196h96q113 0 113 98t-113 98h-96z" />
    <glyph glyph-name="macron" unicode="&#xaf;" horiz-adv-x="359" 
d="M10 640v60h339v-60h-339z" />
    <glyph glyph-name="degree" unicode="&#xb0;" horiz-adv-x="398" 
d="M310 522q0 60 -33 95t-80 35t-78.5 -34.5t-31.5 -96t30 -95t77.5 -33.5t81.5 34.5t34 94.5zM75.5 395q-45.5 48 -45.5 126.5t48 127t121 48.5t121 -48.5t48 -126.5t-50.5 -126.5t-123.5 -48.5t-118.5 48z" />
    <glyph glyph-name="plusminus" unicode="&#xb1;" horiz-adv-x="769" 
d="M639 380h-222v-184h222v-60h-509v60h222v184h-222v60h222v185h65v-185h222v-60z" />
    <glyph glyph-name="uni00B2" unicode="&#xb2;" horiz-adv-x="306" 
d="M258 402v-50h-237v39l97 82q74 64 74 121q0 30 -17 48t-42 18q-47 0 -55 -44h-58q3 41 32 67t81.5 26t86 -33.5t33.5 -76t-20.5 -73.5t-67.5 -71l-68 -53h161z" />
    <glyph glyph-name="uni00B3" unicode="&#xb3;" horiz-adv-x="317" 
d="M64.5 685.5q35.5 23.5 85 23.5t88.5 -29.5t39 -65.5t-18 -57.5t-46 -30.5v-2q64 -20 64 -80q0 -40 -36 -68.5t-94 -28.5q-117 0 -127 99h56q9 -53 70 -53q31 0 50.5 15.5t19.5 41.5t-19.5 40.5t-50.5 14.5h-48v43h48q32 0 51 14t19 40t-18.5 42t-50.5 16q-51 0 -66 -37
h-58q6 39 41.5 62.5z" />
    <glyph glyph-name="acute" unicode="&#xb4;" horiz-adv-x="225" 
d="M10 642l205 128v-70l-205 -115v57z" />
    <glyph glyph-name="uni00B5" unicode="&#xb5;" horiz-adv-x="614" 
d="M469 546h70v-546h-70v89q-55 -99 -181 -99q-88 0 -144 52v-300h-69v804h69v-312q0 -90 43.5 -137t119 -47t119 47t43.5 137v312z" />
    <glyph glyph-name="paragraph" unicode="&#xb6;" horiz-adv-x="569" 
d="M276 690h218v-690h-70v633h-70v-633h-70v289h-8q-117 0 -176.5 55t-59.5 145t60 145.5t176 55.5z" />
    <glyph glyph-name="periodcentered" unicode="&#xb7;" horiz-adv-x="218" 
d="M109 300q-20 0 -34.5 14.5t-14.5 34.5t14.5 34.5t34.5 14.5t34.5 -14.5t14.5 -34.5t-14.5 -34.5t-34.5 -14.5z" />
    <glyph glyph-name="cedilla" unicode="&#xb8;" horiz-adv-x="253" 
d="M113 7v-64q60 0 95 -27.5t35 -72.5t-34.5 -73t-91.5 -28h-107v55h105q56 0 56 45.5t-56 45.5h-55v119h53z" />
    <glyph glyph-name="uni00B9" unicode="&#xb9;" horiz-adv-x="177" 
d="M69 352v309h-49v43h107v-352h-58z" />
    <glyph glyph-name="ordmasculine" unicode="&#xba;" horiz-adv-x="429" 
d="M295.5 429.5q36.5 35.5 36.5 98.5t-34.5 99t-84.5 36t-83 -36t-33 -99.5t31.5 -98.5t81 -35t86 35.5zM84.5 397q-49.5 50 -49.5 130.5t52.5 131t127.5 50.5t127 -50.5t52 -130.5t-54.5 -130.5t-130 -50.5t-125 50z" />
    <glyph glyph-name="guillemotright" unicode="&#xbb;" horiz-adv-x="435" 
d="M121 120h-71l102 175l-102 175h71l99 -175zM291 120h-71l102 175l-102 175h71l99 -175z" />
    <glyph glyph-name="onequarter" unicode="&#xbc;" horiz-adv-x="600" 
d="M79 352v309h-49v43h107v-352h-58zM447 113v179l-116 -179h116zM505 113h50v-42h-50v-71h-58v71h-178v35l163 248h73v-241zM44 0l380 690h62l-380 -690h-62z" />
    <glyph glyph-name="onehalf" unicode="&#xbd;" horiz-adv-x="607" 
d="M577 49v-50h-237v39l97 82q74 64 74 121q0 30 -17 48t-42 18q-47 0 -55 -44h-58q3 41 32 67t81.5 26t86 -33.5t33.5 -76t-20.5 -73.5t-67.5 -71l-68 -53h161zM404 690h62l-360 -690h-62zM79 352v309h-49v43h107v-352h-58z" />
    <glyph glyph-name="threequarters" unicode="&#xbe;" horiz-adv-x="625" 
d="M64.5 685.5q35.5 23.5 85 23.5t88.5 -29.5t39 -65.5t-18 -57.5t-46 -30.5v-2q64 -20 64 -80q0 -40 -36 -68.5t-94 -28.5q-117 0 -127 99h56q9 -53 70 -53q31 0 50.5 15.5t19.5 41.5t-19.5 40.5t-50.5 14.5h-48v43h48q32 0 51 14t19 40t-18.5 42t-50.5 16q-51 0 -66 -37
h-58q6 39 41.5 62.5zM487 113v179l-116 -179h116zM545 113h50v-42h-50v-71h-58v71h-178v35l163 248h73v-241zM88 0l416 690h62l-416 -690h-62z" />
    <glyph glyph-name="questiondown" unicode="&#xbf;" horiz-adv-x="619" 
d="M415 507q0 -20 -14.5 -34.5t-34.5 -14.5t-34.5 14.5t-14.5 34.5t14.5 34.5t34.5 14.5t34.5 -14.5t14.5 -34.5zM518 7q0 -91 -59.5 -144.5t-155.5 -53.5t-153.5 54.5t-57.5 157t60 150t183 48.5v142h66v-194h-33q-107 1 -159 -30.5t-52 -124.5q0 -68 39 -105.5t108 -37.5
t109 36t40 102h65z" />
    <glyph glyph-name="Agrave" unicode="&#xc0;" horiz-adv-x="685" 
d="M562 0l-58 161h-322l-59 -161h-70l254 690h72l253 -690h-70zM202 217h281l-140 386zM435 786v-57l-205 115v70z" />
    <glyph glyph-name="Aacute" unicode="&#xc1;" horiz-adv-x="685" 
d="M562 0l-58 161h-322l-59 -161h-70l254 690h72l253 -690h-70zM202 217h281l-140 386zM435 914v-70l-205 -115v57z" />
    <glyph glyph-name="Acircumflex" unicode="&#xc2;" horiz-adv-x="685" 
d="M562 0l-58 161h-322l-59 -161h-70l254 690h72l253 -690h-70zM202 217h281l-140 386zM477 742l-134 85l-134 -85v66l134 82l134 -82v-66z" />
    <glyph glyph-name="Atilde" unicode="&#xc3;" horiz-adv-x="685" 
d="M562 0l-58 161h-322l-59 -161h-70l254 690h72l253 -690h-70zM202 217h281l-140 386zM467 772q-27 -25 -59 -25t-62 22t-48 22q-39 0 -43 -41h-50q5 43 32 68t59 25t62 -22t48 -22q39 0 43 41h50q-5 -43 -32 -68z" />
    <glyph glyph-name="Adieresis" unicode="&#xc4;" horiz-adv-x="685" 
d="M562 0l-58 161h-322l-59 -161h-70l254 690h72l253 -690h-70zM202 217h281l-140 386zM268 764q-20 0 -34.5 14.5t-14.5 34.5t14.5 34.5t34.5 14.5t34.5 -14.5t14.5 -34.5t-14.5 -34.5t-34.5 -14.5zM418 764q-20 0 -34.5 14.5t-14.5 34.5t14.5 34.5t34.5 14.5t34.5 -14.5
t14.5 -34.5t-14.5 -34.5t-34.5 -14.5z" />
    <glyph glyph-name="Aring" unicode="&#xc5;" horiz-adv-x="685" 
d="M562 0l-58 161h-322l-59 -161h-70l254 690h72l253 -690h-70zM202 217h281l-140 386zM343 754q-43 0 -71.5 27.5t-28.5 72.5t28.5 72.5t71.5 27.5t71.5 -27.5t28.5 -72.5t-28.5 -72.5t-71.5 -27.5zM343 908q-23 0 -38 -14.5t-15 -38.5t15 -39t38 -15t38.5 15t15.5 39
t-15.5 38.5t-38.5 14.5z" />
    <glyph glyph-name="AE" unicode="&#xc6;" horiz-adv-x="873" 
d="M812 633h-281v-258h251v-56h-251v-263h281v-56h-351v161h-277l-94 -161h-76l406 690h392v-57zM461 217v419l-244 -419h244z" />
    <glyph glyph-name="Ccedilla" unicode="&#xc7;" horiz-adv-x="780" 
d="M391 636q-121 0 -200 -80t-79 -211t79 -211t200 -80q76 0 136 33.5t92 94.5h85q-39 -86 -114 -133.5t-172 -53.5v-52q60 0 95 -27.5t35 -72.5t-34.5 -73t-91.5 -28h-107v55h105q56 0 56 45.5t-56 45.5h-55v107q-139 9 -232 106.5t-93 247t101.5 249t249.5 99.5
q106 0 188.5 -48t124.5 -140h-85q-32 61 -92 94t-136 33z" />
    <glyph glyph-name="Egrave" unicode="&#xc8;" horiz-adv-x="487" 
d="M131 844v70l205 -128v-57zM426 690v-57h-281v-258h251v-56h-251v-263h281v-56h-351v690h351z" />
    <glyph glyph-name="Eacute" unicode="&#xc9;" horiz-adv-x="487" 
d="M426 690v-57h-281v-258h251v-56h-251v-263h281v-56h-351v690h351zM131 786l205 128v-70l-205 -115v57z" />
    <glyph glyph-name="Ecircumflex" unicode="&#xca;" horiz-adv-x="487" 
d="M426 690v-57h-281v-258h251v-56h-251v-263h281v-56h-351v690h351zM378 808v-66l-134 85l-134 -85v66l134 82z" />
    <glyph glyph-name="Edieresis" unicode="&#xcb;" horiz-adv-x="487" 
d="M426 690v-57h-281v-258h251v-56h-251v-263h281v-56h-351v690h351zM319 764q-20 0 -34.5 14.5t-14.5 34.5t14.5 34.5t34.5 14.5t34.5 -14.5t14.5 -34.5t-14.5 -34.5t-34.5 -14.5zM169 764q-20 0 -34.5 14.5t-14.5 34.5t14.5 34.5t34.5 14.5t34.5 -14.5t14.5 -34.5
t-14.5 -34.5t-34.5 -14.5z" />
    <glyph glyph-name="Igrave" unicode="&#xcc;" horiz-adv-x="220" 
d="M-3 844v70l205 -128v-57zM75 0v690h70v-690h-70z" />
    <glyph glyph-name="Iacute" unicode="&#xcd;" horiz-adv-x="220" 
d="M-3 786l205 128v-70l-205 -115v57zM75 0v690h70v-690h-70z" />
    <glyph glyph-name="Icircumflex" unicode="&#xce;" horiz-adv-x="220" 
d="M244 808v-66l-134 85l-134 -85v66l134 82zM75 0v690h70v-690h-70z" />
    <glyph glyph-name="Idieresis" unicode="&#xcf;" horiz-adv-x="220" 
d="M185 764q-20 0 -34.5 14.5t-14.5 34.5t14.5 34.5t34.5 14.5t34.5 -14.5t14.5 -34.5t-14.5 -34.5t-34.5 -14.5zM35 764q-20 0 -34.5 14.5t-14.5 34.5t14.5 34.5t34.5 14.5t34.5 -14.5t14.5 -34.5t-14.5 -34.5t-34.5 -14.5zM75 0v690h70v-690h-70z" />
    <glyph glyph-name="Eth" unicode="&#xd0;" horiz-adv-x="705" 
d="M95 690h212q167 0 261.5 -92.5t94.5 -256.5t-94 -252.5t-262 -88.5h-212v311h-95v60h95v319zM165 54h142q139 0 211.5 75.5t72.5 211.5t-72.5 211.5t-211.5 75.5h-142v-257h204v-60h-204v-257z" />
    <glyph glyph-name="Ntilde" unicode="&#xd1;" horiz-adv-x="677" 
d="M233 818q27 25 59 25t62 -22t48 -22q39 0 43 41h50q-5 -43 -32 -68t-59 -25t-62 22t-48 22q-39 0 -43 -41h-50q5 43 32 68zM532 690h70v-690h-70l-387 578v-578h-70v690h70l387 -578v578z" />
    <glyph glyph-name="Ograve" unicode="&#xd2;" horiz-adv-x="781" 
d="M278 844v70l205 -128v-57zM670 345q0 131 -79 211t-200 80t-200.5 -80t-79.5 -211t79.5 -211.5t200 -80.5t200 80.5t79.5 211.5zM40 345q0 153 101.5 252.5t250 99.5t249.5 -99.5t101 -252.5t-101 -252.5t-249.5 -99.5t-250 99.5t-101.5 252.5z" />
    <glyph glyph-name="Oacute" unicode="&#xd3;" horiz-adv-x="781" 
d="M670 345q0 131 -79 211t-200 80t-200.5 -80t-79.5 -211t79.5 -211.5t200 -80.5t200 80.5t79.5 211.5zM40 345q0 153 101.5 252.5t250 99.5t249.5 -99.5t101 -252.5t-101 -252.5t-249.5 -99.5t-250 99.5t-101.5 252.5zM278 786l205 128v-70l-205 -115v57z" />
    <glyph glyph-name="Ocircumflex" unicode="&#xd4;" horiz-adv-x="781" 
d="M670 345q0 131 -79 211t-200 80t-200.5 -80t-79.5 -211t79.5 -211.5t200 -80.5t200 80.5t79.5 211.5zM40 345q0 153 101.5 252.5t250 99.5t249.5 -99.5t101 -252.5t-101 -252.5t-249.5 -99.5t-250 99.5t-101.5 252.5zM525 808v-66l-134 85l-134 -85v66l134 82z" />
    <glyph glyph-name="Otilde" unicode="&#xd5;" horiz-adv-x="781" 
d="M285 818q27 25 59 25t62 -22t48 -22q39 0 43 41h50q-5 -43 -32 -68t-59 -25t-62 22t-48 22q-39 0 -43 -41h-50q5 43 32 68zM670 345q0 131 -79 211t-200 80t-200.5 -80t-79.5 -211t79.5 -211.5t200 -80.5t200 80.5t79.5 211.5zM40 345q0 153 101.5 252.5t250 99.5
t249.5 -99.5t101 -252.5t-101 -252.5t-249.5 -99.5t-250 99.5t-101.5 252.5z" />
    <glyph glyph-name="Odieresis" unicode="&#xd6;" horiz-adv-x="781" 
d="M670 345q0 131 -79 211t-200 80t-200.5 -80t-79.5 -211t79.5 -211.5t200 -80.5t200 80.5t79.5 211.5zM40 345q0 153 101.5 252.5t250 99.5t249.5 -99.5t101 -252.5t-101 -252.5t-249.5 -99.5t-250 99.5t-101.5 252.5zM466 764q-20 0 -34.5 14.5t-14.5 34.5t14.5 34.5
t34.5 14.5t34.5 -14.5t14.5 -34.5t-14.5 -34.5t-34.5 -14.5zM316 764q-20 0 -34.5 14.5t-14.5 34.5t14.5 34.5t34.5 14.5t34.5 -14.5t14.5 -34.5t-14.5 -34.5t-34.5 -14.5z" />
    <glyph glyph-name="multiply" unicode="&#xd7;" horiz-adv-x="736" 
d="M576 530l-163 -162l162 -162l-43 -43l-162 163l-164 -163l-46 46l164 163l-161 161l43 43l161 -162l163 162z" />
    <glyph glyph-name="Oslash" unicode="&#xd8;" horiz-adv-x="781" 
d="M654 584q88 -98 88 -245t-101 -246.5t-250 -99.5q-124 0 -219 73l-62 -66h-81l99 107q-88 98 -88 244.5t101.5 246t249.5 99.5q127 0 220 -73l61 66h81zM391 636q-121 0 -200.5 -80t-79.5 -202t62 -200l394 423q-73 59 -176 59zM215 112q73 -59 184.5 -59t191 80.5
t79.5 202.5t-61 199z" />
    <glyph glyph-name="Ugrave" unicode="&#xd9;" horiz-adv-x="658" 
d="M216 844v70l205 -128v-57zM75 232v458h70v-458q0 -92 49.5 -136.5t135.5 -44.5t135 44.5t49 136.5v458h70v-458q0 -118 -71 -178.5t-183 -60.5t-183.5 60.5t-71.5 178.5z" />
    <glyph glyph-name="Uacute" unicode="&#xda;" horiz-adv-x="658" 
d="M75 232v458h70v-458q0 -92 49.5 -136.5t135.5 -44.5t135 44.5t49 136.5v458h70v-458q0 -118 -71 -178.5t-183 -60.5t-183.5 60.5t-71.5 178.5zM216 786l205 128v-70l-205 -115v57z" />
    <glyph glyph-name="Ucircumflex" unicode="&#xdb;" horiz-adv-x="658" 
d="M75 232v458h70v-458q0 -92 49.5 -136.5t135.5 -44.5t135 44.5t49 136.5v458h70v-458q0 -118 -71 -178.5t-183 -60.5t-183.5 60.5t-71.5 178.5zM463 808v-66l-134 85l-134 -85v66l134 82z" />
    <glyph glyph-name="Udieresis" unicode="&#xdc;" horiz-adv-x="658" 
d="M75 232v458h70v-458q0 -92 49.5 -136.5t135.5 -44.5t135 44.5t49 136.5v458h70v-458q0 -118 -71 -178.5t-183 -60.5t-183.5 60.5t-71.5 178.5zM404 764q-20 0 -34.5 14.5t-14.5 34.5t14.5 34.5t34.5 14.5t34.5 -14.5t14.5 -34.5t-14.5 -34.5t-34.5 -14.5zM254 764
q-20 0 -34.5 14.5t-14.5 34.5t14.5 34.5t34.5 14.5t34.5 -14.5t14.5 -34.5t-14.5 -34.5t-34.5 -14.5z" />
    <glyph glyph-name="Yacute" unicode="&#xdd;" horiz-adv-x="541" 
d="M306 0h-70v272l-221 418h75l180 -354l180 354h76l-220 -418v-272zM363 914v-70l-205 -115v57z" />
    <glyph glyph-name="Thorn" unicode="&#xde;" horiz-adv-x="562" 
d="M522 345q0 -90 -59.5 -145t-176.5 -55h-141v-145h-70v690h70v-144h141q116 0 176 -55.5t60 -145.5zM145 202h141q165 0 165 143.5t-165 143.5h-141v-287z" />
    <glyph glyph-name="germandbls" unicode="&#xdf;" horiz-adv-x="631" 
d="M600 167q0 -82 -57.5 -129.5t-131 -47.5t-129 43.5t-55.5 119.5h66q3 -45 33.5 -73t86 -28t85.5 33.5t30 81.5q0 72 -91 132l-161 105v42l37 19q68 35 68 110q0 50 -32.5 82.5t-83.5 32.5t-85.5 -34t-34.5 -89v-567h-70v563q0 85 54.5 136t140.5 51t134.5 -49.5
t48.5 -117.5q0 -95 -95 -146l112 -72q70 -44 100 -89.5t30 -108.5z" />
    <glyph glyph-name="agrave" unicode="&#xe0;" horiz-adv-x="662" 
d="M218 700v70l205 -128v-57zM517 273q0 100 -59.5 161.5t-143.5 61.5t-143 -59t-59 -159.5t59.5 -164t143 -63.5t143 61.5t59.5 161.5zM115 71q-75 81 -75 206.5t74.5 202t189.5 76.5q74 0 130 -36t83 -93v119h70v-546h-70v120q-27 -57 -83 -93.5t-130 -36.5
q-114 0 -189 81z" />
    <glyph glyph-name="aacute" unicode="&#xe1;" horiz-adv-x="662" 
d="M218 642l205 128v-70l-205 -115v57zM517 273q0 100 -59.5 161.5t-143.5 61.5t-143 -59t-59 -159.5t59.5 -164t143 -63.5t143 61.5t59.5 161.5zM115 71q-75 81 -75 206.5t74.5 202t189.5 76.5q74 0 130 -36t83 -93v119h70v-546h-70v120q-27 -57 -83 -93.5t-130 -36.5
q-114 0 -189 81z" />
    <glyph glyph-name="acircumflex" unicode="&#xe2;" horiz-adv-x="662" 
d="M465 664v-66l-134 85l-134 -85v66l134 82zM517 273q0 100 -59.5 161.5t-143.5 61.5t-143 -59t-59 -159.5t59.5 -164t143 -63.5t143 61.5t59.5 161.5zM115 71q-75 81 -75 206.5t74.5 202t189.5 76.5q74 0 130 -36t83 -93v119h70v-546h-70v120q-27 -57 -83 -93.5
t-130 -36.5q-114 0 -189 81z" />
    <glyph glyph-name="atilde" unicode="&#xe3;" horiz-adv-x="662" 
d="M225 674q27 25 59 25t62 -22t48 -22q39 0 43 41h50q-5 -43 -32 -68t-59 -25t-62 22t-48 22q-39 0 -43 -41h-50q5 43 32 68zM517 273q0 100 -59.5 161.5t-143.5 61.5t-143 -59t-59 -159.5t59.5 -164t143 -63.5t143 61.5t59.5 161.5zM115 71q-75 81 -75 206.5t74.5 202
t189.5 76.5q74 0 130 -36t83 -93v119h70v-546h-70v120q-27 -57 -83 -93.5t-130 -36.5q-114 0 -189 81z" />
    <glyph glyph-name="adieresis" unicode="&#xe4;" horiz-adv-x="662" 
d="M406 620q-20 0 -34.5 14.5t-14.5 34.5t14.5 34.5t34.5 14.5t34.5 -14.5t14.5 -34.5t-14.5 -34.5t-34.5 -14.5zM256 620q-20 0 -34.5 14.5t-14.5 34.5t14.5 34.5t34.5 14.5t34.5 -14.5t14.5 -34.5t-14.5 -34.5t-34.5 -14.5zM517 273q0 100 -59.5 161.5t-143.5 61.5
t-143 -59t-59 -159.5t59.5 -164t143 -63.5t143 61.5t59.5 161.5zM115 71q-75 81 -75 206.5t74.5 202t189.5 76.5q74 0 130 -36t83 -93v119h70v-546h-70v120q-27 -57 -83 -93.5t-130 -36.5q-114 0 -189 81z" />
    <glyph glyph-name="aring" unicode="&#xe5;" horiz-adv-x="662" 
d="M385 711q0 24 -15.5 38.5t-38.5 14.5t-38 -14.5t-15 -38.5t15 -39t38 -15t38.5 15t15.5 39zM231 710q0 45 28.5 72.5t71.5 27.5t71.5 -27.5t28.5 -72.5t-28.5 -72.5t-71.5 -27.5t-71.5 27.5t-28.5 72.5zM517 273q0 100 -59.5 161.5t-143.5 61.5t-143 -59t-59 -159.5
t59.5 -164t143 -63.5t143 61.5t59.5 161.5zM115 71q-75 81 -75 206.5t74.5 202t189.5 76.5q74 0 130 -36t83 -93v119h70v-546h-70v120q-27 -57 -83 -93.5t-130 -36.5q-114 0 -189 81z" />
    <glyph glyph-name="ae" unicode="&#xe6;" horiz-adv-x="1080" 
d="M584 546v-93q38 57 86.5 80t116.5 23q114 0 184 -73t70 -181q0 -29 -4 -54h-455q7 -91 64.5 -146.5t128.5 -55.5t112.5 29t59.5 76h75q-27 -70 -88 -115.5t-156 -45.5q-60 0 -111.5 28.5t-82.5 77.5v-96h-70v97q-31 -48 -87 -77.5t-123 -29.5q-114 0 -189 81t-75 207
t76.5 202t197.5 76q136 0 200 -103v93h70zM171.5 113.5q59.5 -63.5 143 -63.5t143 61.5t59.5 161.5t-59.5 161.5t-143.5 61.5t-143 -59t-59 -159.5t59.5 -164zM969 303q0 91 -52 144t-131.5 53t-137 -54t-66.5 -143h387z" />
    <glyph glyph-name="ccedilla" unicode="&#xe7;" horiz-adv-x="600" 
d="M303 500q-85 0 -138 -58.5t-53 -168t53 -168.5t138 -59q65 0 108.5 30.5t60.5 85.5h75q-24 -73 -78.5 -119t-140.5 -52v-48q60 0 95 -27.5t35 -72.5t-34.5 -73t-91.5 -28h-107v55h105q56 0 56 45.5t-56 45.5h-55v103q-106 10 -170.5 86.5t-64.5 199.5t73 201t190 78
q192 0 244 -172h-75q-17 55 -60.5 85.5t-108.5 30.5z" />
    <glyph glyph-name="egrave" unicode="&#xe8;" horiz-adv-x="605" 
d="M303 -10q-117 0 -190 78t-73 205.5t74.5 205t193 77.5t188.5 -73t70 -181q0 -29 -4 -54h-450q4 -94 57 -148t134 -54q63 0 107.5 29t61.5 76h75q-27 -70 -88 -115.5t-156 -45.5zM494 303q0 90 -54.5 143.5t-135 53.5t-134 -52.5t-58.5 -144.5h382zM395 642v-57l-205 115
v70z" />
    <glyph glyph-name="eacute" unicode="&#xe9;" horiz-adv-x="605" 
d="M303 -10q-117 0 -190 78t-73 205.5t74.5 205t193 77.5t188.5 -73t70 -181q0 -29 -4 -54h-450q4 -94 57 -148t134 -54q63 0 107.5 29t61.5 76h75q-27 -70 -88 -115.5t-156 -45.5zM494 303q0 90 -54.5 143.5t-135 53.5t-134 -52.5t-58.5 -144.5h382zM395 770v-70l-205 -115
v57z" />
    <glyph glyph-name="ecircumflex" unicode="&#xea;" horiz-adv-x="605" 
d="M303 -10q-117 0 -190 78t-73 205.5t74.5 205t193 77.5t188.5 -73t70 -181q0 -29 -4 -54h-450q4 -94 57 -148t134 -54q63 0 107.5 29t61.5 76h75q-27 -70 -88 -115.5t-156 -45.5zM494 303q0 90 -54.5 143.5t-135 53.5t-134 -52.5t-58.5 -144.5h382zM437 598l-134 85
l-134 -85v66l134 82l134 -82v-66z" />
    <glyph glyph-name="edieresis" unicode="&#xeb;" horiz-adv-x="605" 
d="M303 -10q-117 0 -190 78t-73 205.5t74.5 205t193 77.5t188.5 -73t70 -181q0 -29 -4 -54h-450q4 -94 57 -148t134 -54q63 0 107.5 29t61.5 76h75q-27 -70 -88 -115.5t-156 -45.5zM494 303q0 90 -54.5 143.5t-135 53.5t-134 -52.5t-58.5 -144.5h382zM228 620
q-20 0 -34.5 14.5t-14.5 34.5t14.5 34.5t34.5 14.5t34.5 -14.5t14.5 -34.5t-14.5 -34.5t-34.5 -14.5zM378 620q-20 0 -34.5 14.5t-14.5 34.5t14.5 34.5t34.5 14.5t34.5 -14.5t14.5 -34.5t-14.5 -34.5t-34.5 -14.5z" />
    <glyph glyph-name="igrave" unicode="&#xec;" horiz-adv-x="220" 
d="M-3 700v70l205 -128v-57zM75 0v546h70v-546h-70z" />
    <glyph glyph-name="iacute" unicode="&#xed;" horiz-adv-x="220" 
d="M75 0v546h70v-546h-70zM-3 642l205 128v-70l-205 -115v57z" />
    <glyph glyph-name="icircumflex" unicode="&#xee;" horiz-adv-x="220" 
d="M75 0v546h70v-546h-70zM244 664v-66l-134 85l-134 -85v66l134 82z" />
    <glyph glyph-name="idieresis" unicode="&#xef;" horiz-adv-x="220" 
d="M75 0v546h70v-546h-70zM185 620q-20 0 -34.5 14.5t-14.5 34.5t14.5 34.5t34.5 14.5t34.5 -14.5t14.5 -34.5t-14.5 -34.5t-34.5 -14.5zM35 620q-20 0 -34.5 14.5t-14.5 34.5t14.5 34.5t34.5 14.5t34.5 -14.5t14.5 -34.5t-14.5 -34.5t-34.5 -14.5z" />
    <glyph glyph-name="eth" unicode="&#xf0;" horiz-adv-x="624" 
d="M584 317q0 -159 -77 -243t-198.5 -84t-195 78t-73.5 204.5t78 205t190 78.5t189 -77q-35 84 -104 155l-133 -46v57l89 31q-18 16 -76 64h85q27 -21 50 -44l147 51v-57l-105 -36q134 -149 134 -337zM165 106q54 -60 139 -60t147 61t62 166.5t-59 166t-144 60.5t-142 -60
t-57 -167t54 -167z" />
    <glyph glyph-name="ntilde" unicode="&#xf1;" horiz-adv-x="609" 
d="M145 546v-89q55 99 181 99q91 0 152 -59.5t61 -171.5v-325h-69v312q0 90 -43.5 137t-119 47t-119 -47t-43.5 -137v-312h-70v546h70zM429 628q-27 -25 -59 -25t-62 22t-48 22q-39 0 -43 -41h-50q5 43 32 68t59 25t62 -22t48 -22q39 0 43 41h50q-5 -43 -32 -68z" />
    <glyph glyph-name="ograve" unicode="&#xf2;" horiz-adv-x="626" 
d="M200 700v70l205 -128v-57zM451 107q62 61 62 166.5t-59 166t-144 60.5t-142 -60t-57 -167t54 -167t139 -60t147 61zM113.5 68q-73.5 78 -73.5 204.5t78 205t195 78.5t195 -78.5t78 -204t-82 -204.5t-199.5 -79t-191 78z" />
    <glyph glyph-name="oacute" unicode="&#xf3;" horiz-adv-x="626" 
d="M451 107q62 61 62 166.5t-59 166t-144 60.5t-142 -60t-57 -167t54 -167t139 -60t147 61zM113.5 68q-73.5 78 -73.5 204.5t78 205t195 78.5t195 -78.5t78 -204t-82 -204.5t-199.5 -79t-191 78zM200 642l205 128v-70l-205 -115v57z" />
    <glyph glyph-name="ocircumflex" unicode="&#xf4;" horiz-adv-x="626" 
d="M451 107q62 61 62 166.5t-59 166t-144 60.5t-142 -60t-57 -167t54 -167t139 -60t147 61zM113.5 68q-73.5 78 -73.5 204.5t78 205t195 78.5t195 -78.5t78 -204t-82 -204.5t-199.5 -79t-191 78zM447 664v-66l-134 85l-134 -85v66l134 82z" />
    <glyph glyph-name="otilde" unicode="&#xf5;" horiz-adv-x="626" 
d="M207 674q27 25 59 25t62 -22t48 -22q39 0 43 41h50q-5 -43 -32 -68t-59 -25t-62 22t-48 22q-39 0 -43 -41h-50q5 43 32 68zM451 107q62 61 62 166.5t-59 166t-144 60.5t-142 -60t-57 -167t54 -167t139 -60t147 61zM113.5 68q-73.5 78 -73.5 204.5t78 205t195 78.5
t195 -78.5t78 -204t-82 -204.5t-199.5 -79t-191 78z" />
    <glyph glyph-name="odieresis" unicode="&#xf6;" horiz-adv-x="626" 
d="M451 107q62 61 62 166.5t-59 166t-144 60.5t-142 -60t-57 -167t54 -167t139 -60t147 61zM113.5 68q-73.5 78 -73.5 204.5t78 205t195 78.5t195 -78.5t78 -204t-82 -204.5t-199.5 -79t-191 78zM388 620q-20 0 -34.5 14.5t-14.5 34.5t14.5 34.5t34.5 14.5t34.5 -14.5
t14.5 -34.5t-14.5 -34.5t-34.5 -14.5zM238 620q-20 0 -34.5 14.5t-14.5 34.5t14.5 34.5t34.5 14.5t34.5 -14.5t14.5 -34.5t-14.5 -34.5t-34.5 -14.5z" />
    <glyph glyph-name="divide" unicode="&#xf7;" horiz-adv-x="735" 
d="M128 340v60h509v-60h-509zM383 534q-20 0 -34.5 14.5t-14.5 34.5t14.5 34.5t34.5 14.5t34.5 -14.5t14.5 -34.5t-14.5 -34.5t-34.5 -14.5zM383 108q-20 0 -34.5 14.5t-14.5 34.5t14.5 34.5t34.5 14.5t34.5 -14.5t14.5 -34.5t-14.5 -34.5t-34.5 -14.5z" />
    <glyph glyph-name="oslash" unicode="&#xf8;" horiz-adv-x="626" 
d="M521 464q65 -78 65 -197t-82 -198t-201 -79q-96 0 -164 54l-40 -44h-69l73 80q-63 77 -63 198t78 199.5t186.5 78.5t179.5 -57l43 47h69zM441 452q-54 48 -135 48t-138 -60t-57 -167q0 -84 37 -144zM181 90q50 -44 129 -44t141 61t62 166q0 83 -38 140z" />
    <glyph glyph-name="ugrave" unicode="&#xf9;" horiz-adv-x="609" 
d="M464 546h70v-546h-70v89q-55 -99 -181 -99q-91 0 -152 59.5t-61 171.5v325h69v-312q0 -90 43.5 -137t119 -47t119 47t43.5 137v312zM397 642v-57l-205 115v70z" />
    <glyph glyph-name="uacute" unicode="&#xfa;" horiz-adv-x="609" 
d="M464 546h70v-546h-70v89q-55 -99 -181 -99q-91 0 -152 59.5t-61 171.5v325h69v-312q0 -90 43.5 -137t119 -47t119 47t43.5 137v312zM397 770v-70l-205 -115v57z" />
    <glyph glyph-name="ucircumflex" unicode="&#xfb;" horiz-adv-x="609" 
d="M464 546h70v-546h-70v89q-55 -99 -181 -99q-91 0 -152 59.5t-61 171.5v325h69v-312q0 -90 43.5 -137t119 -47t119 47t43.5 137v312zM439 598l-134 85l-134 -85v66l134 82l134 -82v-66z" />
    <glyph glyph-name="udieresis" unicode="&#xfc;" horiz-adv-x="609" 
d="M464 546h70v-546h-70v89q-55 -99 -181 -99q-91 0 -152 59.5t-61 171.5v325h69v-312q0 -90 43.5 -137t119 -47t119 47t43.5 137v312zM230 620q-20 0 -34.5 14.5t-14.5 34.5t14.5 34.5t34.5 14.5t34.5 -14.5t14.5 -34.5t-14.5 -34.5t-34.5 -14.5zM380 620q-20 0 -34.5 14.5
t-14.5 34.5t14.5 34.5t34.5 14.5t34.5 -14.5t14.5 -34.5t-14.5 -34.5t-34.5 -14.5z" />
    <glyph glyph-name="yacute" unicode="&#xfd;" horiz-adv-x="535" 
d="M155 642l205 128v-70l-205 -115v57zM231 8l-217 538h75l180 -464l180 464h71l-324 -800h-71z" />
    <glyph glyph-name="thorn" unicode="&#xfe;" horiz-adv-x="662" 
d="M490.5 113.5q59.5 63.5 59.5 164t-59 159.5t-143.5 59t-143.5 -61.5t-59 -161.5t59 -161.5t143 -61.5t143.5 63.5zM358 556q115 0 189.5 -76.5t74.5 -202t-75 -206.5t-189 -81q-74 0 -130 36.5t-83 93.5v-378h-70v998h70v-313q27 57 83 93t130 36z" />
    <glyph glyph-name="ydieresis" unicode="&#xff;" horiz-adv-x="535" 
d="M343 620q-20 0 -34.5 14.5t-14.5 34.5t14.5 34.5t34.5 14.5t34.5 -14.5t14.5 -34.5t-14.5 -34.5t-34.5 -14.5zM193 620q-20 0 -34.5 14.5t-14.5 34.5t14.5 34.5t34.5 14.5t34.5 -14.5t14.5 -34.5t-14.5 -34.5t-34.5 -14.5zM231 8l-217 538h75l180 -464l180 464h71
l-324 -800h-71z" />
    <glyph glyph-name="Amacron" unicode="&#x100;" horiz-adv-x="685" 
d="M562 0l-58 161h-322l-59 -161h-70l254 690h72l253 -690h-70zM202 217h281l-140 386zM512 844v-60h-339v60h339z" />
    <glyph glyph-name="amacron" unicode="&#x101;" horiz-adv-x="662" 
d="M161 640v60h339v-60h-339zM517 273q0 100 -59.5 161.5t-143.5 61.5t-143 -59t-59 -159.5t59.5 -164t143 -63.5t143 61.5t59.5 161.5zM115 71q-75 81 -75 206.5t74.5 202t189.5 76.5q74 0 130 -36t83 -93v119h70v-546h-70v120q-27 -57 -83 -93.5t-130 -36.5
q-114 0 -189 81z" />
    <glyph glyph-name="Abreve" unicode="&#x102;" horiz-adv-x="685" 
d="M562 0l-58 161h-322l-59 -161h-70l254 690h72l253 -690h-70zM202 217h281l-140 386zM478 892v-16q0 -51 -35.5 -85.5t-99.5 -34.5t-99.5 35t-35.5 86v15h50q0 -38 19 -57t66 -19t66 19t19 57h50z" />
    <glyph glyph-name="abreve" unicode="&#x103;" horiz-adv-x="662" 
d="M466 732q0 -51 -35.5 -85.5t-99.5 -34.5t-99.5 35t-35.5 86v15h50q0 -38 19 -57t66 -19t66 19t19 57h50v-16zM517 273q0 100 -59.5 161.5t-143.5 61.5t-143 -59t-59 -159.5t59.5 -164t143 -63.5t143 61.5t59.5 161.5zM115 71q-75 81 -75 206.5t74.5 202t189.5 76.5
q74 0 130 -36t83 -93v119h70v-546h-70v120q-27 -57 -83 -93.5t-130 -36.5q-114 0 -189 81z" />
    <glyph glyph-name="Aogonek" unicode="&#x104;" horiz-adv-x="685" 
d="M587 -144h75v-55h-77q-57 0 -91.5 28t-34.5 70.5t27.5 68.5t75.5 32l-58 161h-322l-59 -161h-70l254 690h72l253 -688v-55h-45q-56 0 -56 -45.5t56 -45.5zM202 217h281l-140 386z" />
    <glyph glyph-name="aogonek" unicode="&#x105;" horiz-adv-x="662" 
d="M542 -144h75v-55h-77q-57 0 -91.5 28t-34.5 70.5t27.5 68.5t75.5 32v120q-27 -57 -83 -93.5t-130 -36.5q-114 0 -189 81t-75 206.5t74.5 202t189.5 76.5q74 0 130 -36t83 -93v119h70v-599h-45q-56 0 -56 -45.5t56 -45.5zM171.5 113.5q59.5 -63.5 143 -63.5t143 61.5
t59.5 161.5t-59.5 161.5t-143.5 61.5t-143 -59t-59 -159.5t59.5 -164z" />
    <glyph glyph-name="Cacute" unicode="&#x106;" horiz-adv-x="780" 
d="M40 345q0 153 101.5 252.5t249.5 99.5q106 0 188.5 -48t124.5 -140h-85q-32 61 -92 94t-136 33q-121 0 -200 -80t-79 -211t79 -211t200 -80q76 0 136 33.5t92 94.5h85q-42 -92 -124.5 -140t-188.5 -48q-148 0 -249.5 99t-101.5 252zM277 786l205 128v-70l-205 -115v57z
" />
    <glyph glyph-name="cacute" unicode="&#x107;" horiz-adv-x="600" 
d="M40 273q0 127 73 205t190 78q192 0 244 -172h-75q-17 55 -60.5 85.5t-108.5 30.5q-85 0 -138 -58.5t-53 -168t53 -168.5t138 -59q65 0 108.5 30.5t60.5 85.5h75q-26 -78 -87 -125t-157 -47q-117 0 -190 78t-73 205zM187 642l205 128v-70l-205 -115v57z" />
    <glyph glyph-name="Ccaron" unicode="&#x10c;" horiz-adv-x="780" 
d="M40 345q0 153 101.5 252.5t249.5 99.5q106 0 188.5 -48t124.5 -140h-85q-32 61 -92 94t-136 33q-121 0 -200 -80t-79 -211t79 -211t200 -80q76 0 136 33.5t92 94.5h85q-42 -92 -124.5 -140t-188.5 -48q-148 0 -249.5 99t-101.5 252zM390 805l134 85v-66l-134 -82l-134 82
v66z" />
    <glyph glyph-name="ccaron" unicode="&#x10d;" horiz-adv-x="600" 
d="M40 273q0 127 73 205t190 78q192 0 244 -172h-75q-17 55 -60.5 85.5t-108.5 30.5q-85 0 -138 -58.5t-53 -168t53 -168.5t138 -59q65 0 108.5 30.5t60.5 85.5h75q-26 -78 -87 -125t-157 -47q-117 0 -190 78t-73 205zM300 661l134 85v-66l-134 -82l-134 82v66z" />
    <glyph glyph-name="Dcaron" unicode="&#x10e;" horiz-adv-x="685" 
d="M145 54h142q139 0 211.5 75.5t72.5 211.5t-72.5 211.5t-211.5 75.5h-142v-574zM287 690q167 0 261.5 -92.5t94.5 -256.5t-94 -252.5t-262 -88.5h-212v690h212zM343 805l134 85v-66l-134 -82l-134 82v66z" />
    <glyph glyph-name="dcaron" unicode="&#x10f;" horiz-adv-x="739" 
d="M517 273q0 100 -59.5 161.5t-143.5 61.5t-143 -59t-59 -159.5t59.5 -164t143 -63.5t143 61.5t59.5 161.5zM115 71q-75 81 -75 206.5t74.5 202t189.5 76.5q74 0 130 -36t83 -93v313h70v-740h-70v120q-27 -57 -83 -93.5t-130 -36.5q-114 0 -189 81zM639 740h81q9 -50 9 -96
q0 -92 -91 -92v38q46 0 46 49v25h-45v76z" />
    <glyph glyph-name="Dcroat" unicode="&#x110;" horiz-adv-x="705" 
d="M95 690h212q167 0 261.5 -92.5t94.5 -256.5t-94 -252.5t-262 -88.5h-212v311h-95v60h95v319zM165 54h142q139 0 211.5 75.5t72.5 211.5t-72.5 211.5t-211.5 75.5h-142v-257h204v-60h-204v-257z" />
    <glyph glyph-name="dcroat" unicode="&#x111;" horiz-adv-x="662" 
d="M649 643v-53h-62v-590h-70v120q-27 -57 -83 -93.5t-130 -36.5q-114 0 -189 81t-75 206.5t74.5 202t189.5 76.5q74 0 130 -36t83 -93v163h-87v53h87v97h70v-97h62zM171.5 113.5q59.5 -63.5 143 -63.5t143 61.5t59.5 161.5t-59.5 161.5t-143.5 61.5t-143 -59t-59 -159.5
t59.5 -164z" />
    <glyph glyph-name="Emacron" unicode="&#x112;" horiz-adv-x="487" 
d="M74 784v60h339v-60h-339zM426 690v-57h-281v-258h251v-56h-251v-263h281v-56h-351v690h351z" />
    <glyph glyph-name="emacron" unicode="&#x113;" horiz-adv-x="605" 
d="M303 -10q-117 0 -190 78t-73 205.5t74.5 205t193 77.5t188.5 -73t70 -181q0 -29 -4 -54h-450q4 -94 57 -148t134 -54q63 0 107.5 29t61.5 76h75q-27 -70 -88 -115.5t-156 -45.5zM494 303q0 90 -54.5 143.5t-135 53.5t-134 -52.5t-58.5 -144.5h382zM472 700v-60h-339v60
h339z" />
    <glyph glyph-name="Edotaccent" unicode="&#x116;" horiz-adv-x="487" 
d="M244 764q-20 0 -34.5 14.5t-14.5 34.5t14.5 34.5t34.5 14.5t34.5 -14.5t14.5 -34.5t-14.5 -34.5t-34.5 -14.5zM426 690v-57h-281v-258h251v-56h-251v-263h281v-56h-351v690h351z" />
    <glyph glyph-name="edotaccent" unicode="&#x117;" horiz-adv-x="605" 
d="M303 -10q-117 0 -190 78t-73 205.5t74.5 205t193 77.5t188.5 -73t70 -181q0 -29 -4 -54h-450q4 -94 57 -148t134 -54q63 0 107.5 29t61.5 76h75q-27 -70 -88 -115.5t-156 -45.5zM494 303q0 90 -54.5 143.5t-135 53.5t-134 -52.5t-58.5 -144.5h382zM303 620
q-20 0 -34.5 14.5t-14.5 34.5t14.5 34.5t34.5 14.5t34.5 -14.5t14.5 -34.5t-14.5 -34.5t-34.5 -14.5z" />
    <glyph glyph-name="Eogonek" unicode="&#x118;" horiz-adv-x="487" 
d="M381 -144h75v-55h-77q-57 0 -91.5 28t-34.5 70t26.5 68t73.5 33h-278v690h351v-57h-281v-258h251v-56h-251v-263h281v-109h-45q-56 0 -56 -45.5t56 -45.5z" />
    <glyph glyph-name="eogonek" unicode="&#x119;" horiz-adv-x="605" 
d="M483 -143h-77q-57 0 -91.5 28t-34.5 73q0 17 5 32q-110 7 -177.5 84t-67.5 202t74.5 202.5t193 77.5t188.5 -73t70 -181q0 -29 -4 -54h-450q4 -94 57 -148t134 -54q63 0 107.5 29t61.5 76h75q-39 -105 -145 -145q-26 -10 -38 -19.5t-12 -28.5q0 -46 56 -46h75v-55z
M494 303q0 90 -54.5 143.5t-135 53.5t-134 -52.5t-58.5 -144.5h382z" />
    <glyph glyph-name="Ecaron" unicode="&#x11a;" horiz-adv-x="487" 
d="M426 690v-57h-281v-258h251v-56h-251v-263h281v-56h-351v690h351zM244 805l134 85v-66l-134 -82l-134 82v66z" />
    <glyph glyph-name="ecaron" unicode="&#x11b;" horiz-adv-x="605" 
d="M303 -10q-117 0 -190 78t-73 205.5t74.5 205t193 77.5t188.5 -73t70 -181q0 -29 -4 -54h-450q4 -94 57 -148t134 -54q63 0 107.5 29t61.5 76h75q-27 -70 -88 -115.5t-156 -45.5zM494 303q0 90 -54.5 143.5t-135 53.5t-134 -52.5t-58.5 -144.5h382zM437 680l-134 -82
l-134 82v66l134 -85l134 85v-66z" />
    <glyph glyph-name="Gbreve" unicode="&#x11e;" horiz-adv-x="780" 
d="M525 876q0 -51 -35.5 -85.5t-99.5 -34.5t-99.5 35t-35.5 86v15h50q0 -38 19 -57t66 -19t66 19t19 57h50v-16zM40 345q0 153 101.5 252.5t249.5 99.5q106 0 188.5 -48t124.5 -140h-85q-32 61 -92 94t-136 33q-121 0 -200 -80t-79 -211t79 -211t198.5 -80t193.5 70t85 191
h-310v56h383v-56q-14 -144 -112 -232.5t-242 -88.5t-245.5 99t-101.5 252z" />
    <glyph glyph-name="gbreve" unicode="&#x11f;" horiz-adv-x="662" 
d="M466 732q0 -51 -35.5 -85.5t-99.5 -34.5t-99.5 35t-35.5 86v15h50q0 -38 19 -57t66 -19t66 19t19 57h50v-16zM115 71q-75 81 -75 206.5t74.5 202t189.5 76.5q74 0 130 -36t83 -93v119h70v-565q0 -111 -73.5 -180t-179.5 -69t-179 52t-84 129h69q13 -51 66 -86t130 -35
t129 50.5t52 138.5v139q-27 -57 -83 -93.5t-130 -36.5q-114 0 -189 81zM517 273q0 100 -59.5 161.5t-143.5 61.5t-143 -59t-59 -159.5t59.5 -164t143 -63.5t143 61.5t59.5 161.5z" />
    <glyph glyph-name="Gcommaaccent" unicode="&#x122;" horiz-adv-x="780" 
d="M40 345q0 153 101.5 252.5t249.5 99.5q106 0 188.5 -48t124.5 -140h-85q-32 61 -92 94t-136 33q-121 0 -200 -80t-79 -211t79 -211t198.5 -80t193.5 70t85 191h-310v56h383v-56q-14 -144 -112 -232.5t-242 -88.5t-245.5 99t-101.5 252zM346 -50h81q9 -49 9 -95
q0 -93 -91 -93v38q46 0 46 49v25h-45v76z" />
    <glyph glyph-name="gcommaaccent" unicode="&#x123;" horiz-adv-x="662" 
d="M115 71q-75 81 -75 206.5t74.5 202t189.5 76.5q74 0 130 -36t83 -93v119h70v-565q0 -111 -73.5 -180t-179.5 -69t-179 52t-84 129h69q13 -51 66 -86t130 -35t129 50.5t52 138.5v139q-27 -57 -83 -93.5t-130 -36.5q-114 0 -189 81zM517 273q0 100 -59.5 161.5t-143.5 61.5
t-143 -59t-59 -159.5t59.5 -164t143 -63.5t143 61.5t59.5 161.5zM375 596h-81q-9 50 -9 96q0 92 91 92v-38q-46 0 -46 -49v-25h45v-76z" />
    <glyph glyph-name="Imacron" unicode="&#x12a;" horiz-adv-x="220" 
d="M-60 784v60h339v-60h-339zM75 0v690h70v-690h-70z" />
    <glyph glyph-name="imacron" unicode="&#x12b;" horiz-adv-x="220" 
d="M-60 640v60h339v-60h-339zM75 0v546h70v-546h-70z" />
    <glyph glyph-name="Iogonek" unicode="&#x12e;" horiz-adv-x="220" 
d="M100 -143h75v-55h-77q-57 0 -91.5 28t-34.5 70.5t27.5 68.5t75.5 32v689h70v-742h-45q-56 0 -56 -45.5t56 -45.5z" />
    <glyph glyph-name="iogonek" unicode="&#x12f;" horiz-adv-x="220" 
d="M100 -143h75v-55h-77q-57 0 -91.5 28t-34.5 70.5t27.5 68.5t75.5 32v545h70v-598h-45q-56 0 -56 -45.5t56 -45.5zM147.5 664q-14.5 -15 -36 -15t-36.5 15t-15 36.5t15 36.5t36.5 15t36 -15t14.5 -36.5t-14.5 -36.5z" />
    <glyph glyph-name="Idotaccent" unicode="&#x130;" horiz-adv-x="220" 
d="M110 764q-20 0 -34.5 14.5t-14.5 34.5t14.5 34.5t34.5 14.5t34.5 -14.5t14.5 -34.5t-14.5 -34.5t-34.5 -14.5zM75 0v690h70v-690h-70z" />
    <glyph glyph-name="dotlessi" unicode="&#x131;" horiz-adv-x="220" 
d="M75 0v546h70v-546h-70z" />
    <glyph glyph-name="Kcommaaccent" unicode="&#x136;" horiz-adv-x="565" 
d="M145 0h-70v690h70v-323l299 323h91l-335 -350l335 -340h-95l-295 310v-310zM239 -50h81q9 -49 9 -95q0 -93 -91 -93v38q46 0 46 49v25h-45v76z" />
    <glyph glyph-name="kcommaaccent" unicode="&#x137;" horiz-adv-x="476" 
d="M145 0h-70v740h70v-438l220 244h101l-265 -270l265 -276h-96l-225 245v-245zM194 -50h81q9 -49 9 -95q0 -93 -91 -93v38q46 0 46 49v25h-45v76z" />
    <glyph glyph-name="Lacute" unicode="&#x139;" horiz-adv-x="416" 
d="M75 690h70v-636h251v-54h-321v690zM95 786l205 128v-70l-205 -115v57z" />
    <glyph glyph-name="lacute" unicode="&#x13a;" horiz-adv-x="220" 
d="M75 0v740h70v-740h-70zM-3 836l205 128v-70l-205 -115v57z" />
    <glyph glyph-name="Lcommaaccent" unicode="&#x13b;" horiz-adv-x="416" 
d="M75 690h70v-636h251v-54h-321v690zM186 -50h81q9 -49 9 -95q0 -93 -91 -93v38q46 0 46 49v25h-45v76z" />
    <glyph glyph-name="lcommaaccent" unicode="&#x13c;" horiz-adv-x="220" 
d="M75 0v740h70v-740h-70zM66 -50h81q9 -50 9 -96q0 -92 -91 -92v38q46 0 46 49v25h-45v76z" />
    <glyph glyph-name="Lcaron" unicode="&#x13d;" horiz-adv-x="416" 
d="M75 690h70v-636h251v-54h-321v690zM268 690h81q9 -50 9 -96q0 -92 -91 -92v38q46 0 46 49v25h-45v76z" />
    <glyph glyph-name="lcaron" unicode="&#x13e;" horiz-adv-x="355" 
d="M75 0v740h70v-740h-70zM223 740h81q9 -49 9 -95q0 -93 -91 -93v38q46 0 46 49v25h-45v76z" />
    <glyph glyph-name="Lslash" unicode="&#x141;" horiz-adv-x="416" 
d="M165 54h251v-54h-321v318l-95 -37v60l95 37v312h70v-284l115 45v-60l-115 -45v-292z" />
    <glyph glyph-name="lslash" unicode="&#x142;" horiz-adv-x="220" 
d="M145 0h-70v308l-75 -33v60l75 33v372h70v-342l75 33v-60l-75 -33v-338z" />
    <glyph glyph-name="Nacute" unicode="&#x143;" horiz-adv-x="677" 
d="M532 690h70v-690h-70l-387 578v-578h-70v690h70l387 -578v578zM226 786l205 128v-70l-205 -115v57z" />
    <glyph glyph-name="nacute" unicode="&#x144;" horiz-adv-x="609" 
d="M145 546v-89q55 99 181 99q91 0 152 -59.5t61 -171.5v-325h-69v312q0 90 -43.5 137t-119 47t-119 -47t-43.5 -137v-312h-70v546h70zM397 770v-70l-205 -115v57z" />
    <glyph glyph-name="Ncommaaccent" unicode="&#x145;" horiz-adv-x="677" 
d="M532 690h70v-690h-70l-387 578v-578h-70v690h70l387 -578v578zM295 -50h81q9 -49 9 -95q0 -93 -91 -93v38q46 0 46 49v25h-45v76z" />
    <glyph glyph-name="ncommaaccent" unicode="&#x146;" horiz-adv-x="609" 
d="M145 546v-89q55 99 181 99q91 0 152 -59.5t61 -171.5v-325h-69v312q0 90 -43.5 137t-119 47t-119 -47t-43.5 -137v-312h-70v546h70zM261 -50h81q9 -49 9 -95q0 -93 -91 -93v38q46 0 46 49v25h-45v76z" />
    <glyph glyph-name="Ncaron" unicode="&#x147;" horiz-adv-x="677" 
d="M532 690h70v-690h-70l-387 578v-578h-70v690h70l387 -578v578zM339 805l134 85v-66l-134 -82l-134 82v66z" />
    <glyph glyph-name="ncaron" unicode="&#x148;" horiz-adv-x="609" 
d="M145 546v-89q55 99 181 99q91 0 152 -59.5t61 -171.5v-325h-69v312q0 90 -43.5 137t-119 47t-119 -47t-43.5 -137v-312h-70v546h70zM439 680l-134 -82l-134 82v66l134 -85l134 85v-66z" />
    <glyph glyph-name="Omacron" unicode="&#x14c;" horiz-adv-x="781" 
d="M670 345q0 131 -79 211t-200 80t-200.5 -80t-79.5 -211t79.5 -211.5t200 -80.5t200 80.5t79.5 211.5zM40 345q0 153 101.5 252.5t250 99.5t249.5 -99.5t101 -252.5t-101 -252.5t-249.5 -99.5t-250 99.5t-101.5 252.5zM221 784v60h339v-60h-339z" />
    <glyph glyph-name="omacron" unicode="&#x14d;" horiz-adv-x="626" 
d="M451 107q62 61 62 166.5t-59 166t-144 60.5t-142 -60t-57 -167t54 -167t139 -60t147 61zM113.5 68q-73.5 78 -73.5 204.5t78 205t195 78.5t195 -78.5t78 -204t-82 -204.5t-199.5 -79t-191 78zM143 640v60h339v-60h-339z" />
    <glyph glyph-name="Ohungarumlaut" unicode="&#x150;" horiz-adv-x="781" 
d="M670 345q0 131 -79 211t-200 80t-200.5 -80t-79.5 -211t79.5 -211.5t200 -80.5t200 80.5t79.5 211.5zM40 345q0 153 101.5 252.5t250 99.5t249.5 -99.5t101 -252.5t-101 -252.5t-249.5 -99.5t-250 99.5t-101.5 252.5zM354 884h70l-85 -139h-50zM503 884h70l-95 -139h-50z
" />
    <glyph glyph-name="ohungarumlaut" unicode="&#x151;" horiz-adv-x="626" 
d="M451 107q62 61 62 166.5t-59 166t-144 60.5t-142 -60t-57 -167t54 -167t139 -60t147 61zM113.5 68q-73.5 78 -73.5 204.5t78 205t195 78.5t195 -78.5t78 -204t-82 -204.5t-199.5 -79t-191 78zM276 740h70l-85 -139h-50zM425 740h70l-95 -139h-50z" />
    <glyph glyph-name="OE" unicode="&#x152;" horiz-adv-x="1082" 
d="M1021 633h-281v-258h251v-56h-251v-263h281v-56h-351v148q-91 -155 -279 -155q-148 0 -249.5 99.5t-101.5 253t102 252.5t249 99q188 0 279 -155v148h351v-57zM111 345q0 -131 79.5 -211.5t200 -80.5t200 80.5t79.5 211.5t-79 211t-200 80t-200.5 -80t-79.5 -211z" />
    <glyph glyph-name="oe" unicode="&#x153;" horiz-adv-x="1079" 
d="M933 35.5q-61 -45.5 -147 -45.5t-146 35.5t-93 99.5q-37 -64 -101.5 -99.5t-142.5 -35.5q-116 0 -189.5 78t-73.5 204.5t78 205t195 78.5q76 0 138.5 -35t97.5 -97q33 63 94.5 97.5t142.5 34.5q114 0 184 -73t70 -181q0 -29 -4 -54h-450q4 -94 57 -148t134 -54
q63 0 107.5 29t61.5 76h75q-27 -70 -88 -115.5zM165 106q54 -60 139 -60t147 61t62 166.5t-59 166t-144 60.5t-142 -60t-57 -167t54 -167zM968 303q0 90 -54.5 143.5t-135 53.5t-134 -52.5t-58.5 -144.5h382z" />
    <glyph glyph-name="Racute" unicode="&#x154;" horiz-adv-x="603" 
d="M145 289v-289h-70v690h211q116 0 176 -55.5t60 -140.5t-47 -137.5t-140 -64.5l196 -292h-91l-187 289h-108zM145 633v-287h141q165 0 165 143.5t-165 143.5h-141zM394 914v-70l-205 -115v57z" />
    <glyph glyph-name="racute" unicode="&#x155;" horiz-adv-x="353" 
d="M145 546v-90q45 100 169 100v-73h-20q-72 0 -110.5 -39t-38.5 -134v-310h-70v546h70zM309 770v-70l-205 -115v57z" />
    <glyph glyph-name="Rcommaaccent" unicode="&#x156;" horiz-adv-x="603" 
d="M145 289v-289h-70v690h211q116 0 176 -55.5t60 -140.5t-47 -137.5t-140 -64.5l196 -292h-91l-187 289h-108zM145 633v-287h141q165 0 165 143.5t-165 143.5h-141zM258 -50h81q9 -49 9 -95q0 -93 -91 -93v38q46 0 46 49v25h-45v76z" />
    <glyph glyph-name="rcommaaccent" unicode="&#x157;" horiz-adv-x="353" 
d="M145 546v-90q45 100 169 100v-73h-20q-72 0 -110.5 -39t-38.5 -134v-310h-70v546h70zM68 -50h81q9 -50 9 -96q0 -92 -91 -92v38q46 0 46 49v25h-45v76z" />
    <glyph glyph-name="Rcaron" unicode="&#x158;" horiz-adv-x="603" 
d="M145 289v-289h-70v690h211q116 0 176 -55.5t60 -140.5t-47 -137.5t-140 -64.5l196 -292h-91l-187 289h-108zM145 633v-287h141q165 0 165 143.5t-165 143.5h-141zM436 824l-134 -82l-134 82v66l134 -85l134 85v-66z" />
    <glyph glyph-name="rcaron" unicode="&#x159;" horiz-adv-x="353" 
d="M217 661l134 85v-66l-134 -82l-134 82v66zM145 546v-90q45 100 169 100v-73h-20q-72 0 -110.5 -39t-38.5 -134v-310h-70v546h70z" />
    <glyph glyph-name="Sacute" unicode="&#x15a;" horiz-adv-x="571" 
d="M125 508q0 -41 21.5 -67t55.5 -38.5t75 -21.5t82 -20t75 -28.5t55.5 -53.5t21.5 -89q0 -79 -59 -138t-161.5 -59t-166.5 46t-64 124h74q4 -48 41 -79.5t110.5 -31.5t117 38t43.5 94.5t-40 85t-96.5 39.5t-113 25.5t-96.5 56.5t-40 122t59.5 132t157 52t153.5 -45t68 -120
h-79q-4 42 -42 73.5t-104 31.5t-107 -33t-41 -96zM173 786l205 128v-70l-205 -115v57z" />
    <glyph glyph-name="sacute" unicode="&#x15b;" horiz-adv-x="518" 
d="M60 395q0 68 56 114.5t143 46.5t135.5 -45.5t53.5 -125.5h-72q-2 50 -34 82.5t-89 32.5t-89.5 -28t-32.5 -67.5t24 -62.5t60.5 -31t79 -19t79 -23.5t60.5 -45t24 -83.5q0 -66 -55 -108t-144.5 -42t-141.5 46t-57 125h72q2 -51 36 -83t93.5 -32t92.5 25.5t33 65.5t-24 63
t-60.5 31.5t-79 19.5t-79 23t-60.5 43t-24 78zM146 642l205 128v-70l-205 -115v57z" />
    <glyph glyph-name="Scedilla" unicode="&#x15e;" horiz-adv-x="571" 
d="M377 605.5q-38 31.5 -104 31.5t-107 -33t-41 -96q0 -41 21.5 -67t55.5 -38.5t75 -21.5t82 -20t75 -28.5t55.5 -53.5t21.5 -89q0 -73 -51 -130.5t-146 -65.5v-51q60 0 95 -27.5t35 -72.5t-34.5 -73t-91.5 -28h-107v55h105q56 0 56 45.5t-56 45.5h-55v106
q-88 5 -144.5 50.5t-56.5 118.5h74q4 -48 41 -79.5t110.5 -31.5t117 38t43.5 94.5t-40 85t-96.5 39.5t-113 25.5t-96.5 56.5t-40 122t59.5 132t157 52t153.5 -45t68 -120h-79q-4 42 -42 73.5z" />
    <glyph glyph-name="scedilla" unicode="&#x15f;" horiz-adv-x="518" 
d="M342 467.5q-32 32.5 -89 32.5t-89.5 -28t-32.5 -67.5t24 -62.5t60.5 -31t79 -19t79 -23.5t60.5 -45t24 -88.5t-46.5 -96.5t-124.5 -47.5v-48q60 0 95 -27.5t35 -72.5t-34.5 -73t-91.5 -28h-107v55h105q56 0 56 45.5t-56 45.5h-55v103q-79 6 -124 51t-50 119h72
q2 -51 36 -83t93.5 -32t92.5 25.5t33 65.5t-24 63t-60.5 31.5t-79 19.5t-79 23t-60.5 43t-24 78q0 68 56 114.5t143 46.5t135.5 -45.5t53.5 -125.5h-72q-2 50 -34 82.5z" />
    <glyph glyph-name="Scaron" unicode="&#x160;" horiz-adv-x="571" 
d="M125 508q0 -41 21.5 -67t55.5 -38.5t75 -21.5t82 -20t75 -28.5t55.5 -53.5t21.5 -89q0 -79 -59 -138t-161.5 -59t-166.5 46t-64 124h74q4 -48 41 -79.5t110.5 -31.5t117 38t43.5 94.5t-40 85t-96.5 39.5t-113 25.5t-96.5 56.5t-40 122t59.5 132t157 52t153.5 -45t68 -120
h-79q-4 42 -42 73.5t-104 31.5t-107 -33t-41 -96zM286 805l134 85v-66l-134 -82l-134 82v66z" />
    <glyph glyph-name="scaron" unicode="&#x161;" horiz-adv-x="518" 
d="M60 395q0 68 56 114.5t143 46.5t135.5 -45.5t53.5 -125.5h-72q-2 50 -34 82.5t-89 32.5t-89.5 -28t-32.5 -67.5t24 -62.5t60.5 -31t79 -19t79 -23.5t60.5 -45t24 -83.5q0 -66 -55 -108t-144.5 -42t-141.5 46t-57 125h72q2 -51 36 -83t93.5 -32t92.5 25.5t33 65.5t-24 63
t-60.5 31.5t-79 19.5t-79 23t-60.5 43t-24 78zM259 661l134 85v-66l-134 -82l-134 82v66z" />
    <glyph glyph-name="Tcommaaccent" unicode="&#x162;" horiz-adv-x="529" 
d="M480 633h-181v-633q60 0 95 -27.5t35 -72.5t-34.5 -73t-91.5 -28h-137v55h135q56 0 56 45.5t-56 45.5h-71v688h-181v57h431v-57z" />
    <glyph glyph-name="tcommaaccent" unicode="&#x163;" horiz-adv-x="339" 
d="M198 -57q60 0 95 -27.5t35 -72.5t-34.5 -73t-91.5 -28h-107v55h105q56 0 56 45.5t-56 45.5h-55v131q-48 30 -48 110v362h-76v55h76v137h70v-137h151v-55h-151v-362q0 -41 16 -57.5t57 -16.5h78v-55h-93q-11 0 -27 2v-59z" />
    <glyph glyph-name="Tcaron" unicode="&#x164;" horiz-adv-x="529" 
d="M49 633v57h431v-57h-181v-633h-69v633h-181zM265 805l134 85v-66l-134 -82l-134 82v66z" />
    <glyph glyph-name="tcaron" unicode="&#x165;" horiz-adv-x="339" 
d="M318 491h-151v-362q0 -41 16 -57.5t57 -16.5h78v-55h-93q-128 0 -128 129v362h-76v55h76v137h70v-137h151v-55zM126 -50h81q9 -50 9 -96q0 -92 -91 -92v38q46 0 46 49v25h-45v76z" />
    <glyph glyph-name="Umacron" unicode="&#x16a;" horiz-adv-x="658" 
d="M159 784v60h339v-60h-339zM75 232v458h70v-458q0 -92 49.5 -136.5t135.5 -44.5t135 44.5t49 136.5v458h70v-458q0 -118 -71 -178.5t-183 -60.5t-183.5 60.5t-71.5 178.5z" />
    <glyph glyph-name="umacron" unicode="&#x16b;" horiz-adv-x="609" 
d="M464 546h70v-546h-70v89q-55 -99 -181 -99q-91 0 -152 59.5t-61 171.5v325h69v-312q0 -90 43.5 -137t119 -47t119 47t43.5 137v312zM474 700v-60h-339v60h339z" />
    <glyph glyph-name="Uring" unicode="&#x16e;" horiz-adv-x="658" 
d="M75 232v458h70v-458q0 -92 49.5 -136.5t135.5 -44.5t135 44.5t49 136.5v458h70v-458q0 -118 -71 -178.5t-183 -60.5t-183.5 60.5t-71.5 178.5zM383 855q0 24 -15.5 38.5t-38.5 14.5t-38 -14.5t-15 -38.5t15 -39t38 -15t38.5 15t15.5 39zM229 854q0 45 28.5 72.5
t71.5 27.5t71.5 -27.5t28.5 -72.5t-28.5 -72.5t-71.5 -27.5t-71.5 27.5t-28.5 72.5z" />
    <glyph glyph-name="uring" unicode="&#x16f;" horiz-adv-x="609" 
d="M464 546h70v-546h-70v89q-55 -99 -181 -99q-91 0 -152 59.5t-61 171.5v325h69v-312q0 -90 43.5 -137t119 -47t119 47t43.5 137v312zM305 610q-43 0 -71.5 27.5t-28.5 72.5t28.5 72.5t71.5 27.5t71.5 -27.5t28.5 -72.5t-28.5 -72.5t-71.5 -27.5zM305 764q-23 0 -38 -14.5
t-15 -38.5t15 -39t38 -15t38.5 15t15.5 39t-15.5 38.5t-38.5 14.5z" />
    <glyph glyph-name="Uhungarumlaut" unicode="&#x170;" horiz-adv-x="658" 
d="M292 884h70l-85 -139h-50zM441 884h70l-95 -139h-50zM75 232v458h70v-458q0 -92 49.5 -136.5t135.5 -44.5t135 44.5t49 136.5v458h70v-458q0 -118 -71 -178.5t-183 -60.5t-183.5 60.5t-71.5 178.5z" />
    <glyph glyph-name="uhungarumlaut" unicode="&#x171;" horiz-adv-x="609" 
d="M464 546h70v-546h-70v89q-55 -99 -181 -99q-91 0 -152 59.5t-61 171.5v325h69v-312q0 -90 43.5 -137t119 -47t119 47t43.5 137v312zM338 740l-85 -139h-50l65 139h70zM487 740l-95 -139h-50l75 139h70z" />
    <glyph glyph-name="Uogonek" unicode="&#x172;" horiz-adv-x="658" 
d="M75 232v458h70v-458q0 -92 49.5 -136.5t135.5 -44.5t135 44.5t49 136.5v458h70v-458q0 -100 -47.5 -154.5t-114.5 -72.5q-42 -12 -56.5 -22t-14.5 -29q0 -46 56 -46h75v-55h-77q-57 0 -91.5 28t-34.5 73q0 23 9 41q-96 11 -154.5 71t-58.5 166z" />
    <glyph glyph-name="uogonek" unicode="&#x173;" horiz-adv-x="609" 
d="M489 -144h75v-55h-77q-57 0 -91.5 28t-34.5 70.5t27.5 68.5t75.5 32v89q-55 -99 -181 -99q-91 0 -152 59.5t-61 171.5v325h69v-312q0 -90 43.5 -137t119 -47t119 47t43.5 137v312h70v-599h-45q-56 0 -56 -45.5t56 -45.5z" />
    <glyph glyph-name="Ydieresis" unicode="&#x178;" horiz-adv-x="541" 
d="M306 0h-70v272l-221 418h75l180 -354l180 354h76l-220 -418v-272zM196 764q-20 0 -34.5 14.5t-14.5 34.5t14.5 34.5t34.5 14.5t34.5 -14.5t14.5 -34.5t-14.5 -34.5t-34.5 -14.5zM346 764q-20 0 -34.5 14.5t-14.5 34.5t14.5 34.5t34.5 14.5t34.5 -14.5t14.5 -34.5
t-14.5 -34.5t-34.5 -14.5z" />
    <glyph glyph-name="Zacute" unicode="&#x179;" horiz-adv-x="528" 
d="M478 690v-57l-348 -577h348v-56h-428v56l348 577h-348v57h428zM151 786l205 128v-70l-205 -115v57z" />
    <glyph glyph-name="zacute" unicode="&#x17a;" horiz-adv-x="437" 
d="M396 546v-55l-279 -435h279v-56h-356v56l279 435h-279v55h356zM106 642l205 128v-70l-205 -115v57z" />
    <glyph glyph-name="Zdotaccent" unicode="&#x17b;" horiz-adv-x="528" 
d="M264 764q-20 0 -34.5 14.5t-14.5 34.5t14.5 34.5t34.5 14.5t34.5 -14.5t14.5 -34.5t-14.5 -34.5t-34.5 -14.5zM478 690v-57l-348 -577h348v-56h-428v56l348 577h-348v57h428z" />
    <glyph glyph-name="zdotaccent" unicode="&#x17c;" horiz-adv-x="437" 
d="M219 620q-20 0 -34.5 14.5t-14.5 34.5t14.5 34.5t34.5 14.5t34.5 -14.5t14.5 -34.5t-14.5 -34.5t-34.5 -14.5zM396 546v-55l-279 -435h279v-56h-356v56l279 435h-279v55h356z" />
    <glyph glyph-name="Zcaron" unicode="&#x17d;" horiz-adv-x="528" 
d="M478 690v-57l-348 -577h348v-56h-428v56l348 577h-348v57h428zM264 805l134 85v-66l-134 -82l-134 82v66z" />
    <glyph glyph-name="zcaron" unicode="&#x17e;" horiz-adv-x="437" 
d="M396 546v-55l-279 -435h279v-56h-356v56l279 435h-279v55h356zM219 661l134 85v-66l-134 -82l-134 82v66z" />
    <glyph glyph-name="florin" unicode="&#x192;" horiz-adv-x="328" 
d="M-11 -179h-25l6 55h16q30 0 45 17t19 57l58 541h-76l5 55h76l6 53q9 86 58 125t148 39l-6 -56q-66 0 -95 -25t-35 -83l-6 -53h127l-5 -55h-127l-58 -541q-7 -67 -37.5 -98t-93.5 -31z" />
    <glyph glyph-name="Scommaaccent" unicode="&#x218;" horiz-adv-x="571" 
d="M125 508q0 -41 21.5 -67t55.5 -38.5t75 -21.5t82 -20t75 -28.5t55.5 -53.5t21.5 -89q0 -79 -59 -138t-161.5 -59t-166.5 46t-64 124h74q4 -48 41 -79.5t110.5 -31.5t117 38t43.5 94.5t-40 85t-96.5 39.5t-113 25.5t-96.5 56.5t-40 122t59.5 132t157 52t153.5 -45t68 -120
h-79q-4 42 -42 73.5t-104 31.5t-107 -33t-41 -96zM242 -50h81q9 -49 9 -95q0 -93 -91 -93v38q46 0 46 49v25h-45v76z" />
    <glyph glyph-name="scommaaccent" unicode="&#x219;" horiz-adv-x="518" 
d="M60 395q0 68 56 114.5t143 46.5t135.5 -45.5t53.5 -125.5h-72q-2 50 -34 82.5t-89 32.5t-89.5 -28t-32.5 -67.5t24 -62.5t60.5 -31t79 -19t79 -23.5t60.5 -45t24 -83.5q0 -66 -55 -108t-144.5 -42t-141.5 46t-57 125h72q2 -51 36 -83t93.5 -32t92.5 25.5t33 65.5t-24 63
t-60.5 31.5t-79 19.5t-79 23t-60.5 43t-24 78zM215 -50h81q9 -49 9 -95q0 -93 -91 -93v38q46 0 46 49v25h-45v76z" />
    <glyph glyph-name="uni021A" unicode="&#x21a;" horiz-adv-x="529" 
d="M49 633v57h431v-57h-181v-633h-69v633h-181zM221 -50h81q9 -49 9 -95q0 -93 -91 -93v38q46 0 46 49v25h-45v76z" />
    <glyph glyph-name="uni021B" unicode="&#x21b;" horiz-adv-x="339" 
d="M318 491h-151v-362q0 -41 16 -57.5t57 -16.5h78v-55h-93q-128 0 -128 129v362h-76v55h76v137h70v-137h151v-55zM126 -50h81q9 -50 9 -96q0 -92 -91 -92v38q46 0 46 49v25h-45v76z" />
    <glyph glyph-name="afii57929" unicode="&#x2bc;" horiz-adv-x="131" 
d="M21 768h81q9 -50 9 -96q0 -92 -91 -92v38q46 0 46 49v25h-45v76z" />
    <glyph glyph-name="circumflex" unicode="&#x2c6;" horiz-adv-x="288" 
d="M278 664v-66l-134 85l-134 -85v66l134 82z" />
    <glyph glyph-name="caron" unicode="&#x2c7;" horiz-adv-x="288" 
d="M144 661l134 85v-66l-134 -82l-134 82v66z" />
    <glyph glyph-name="uni02C9" unicode="&#x2c9;" horiz-adv-x="359" 
d="M10 640v60h339v-60h-339z" />
    <glyph glyph-name="breve" unicode="&#x2d8;" horiz-adv-x="290" 
d="M280 732q0 -51 -35.5 -85.5t-99.5 -34.5t-99.5 35t-35.5 86v15h50q0 -38 19 -57t66 -19t66 19t19 57h50v-16z" />
    <glyph glyph-name="dotaccent" unicode="&#x2d9;" horiz-adv-x="118" 
d="M59 620q-20 0 -34.5 14.5t-14.5 34.5t14.5 34.5t34.5 14.5t34.5 -14.5t14.5 -34.5t-14.5 -34.5t-34.5 -14.5z" />
    <glyph glyph-name="ring" unicode="&#x2da;" horiz-adv-x="220" 
d="M164 711q0 24 -15.5 38.5t-38.5 14.5t-38 -14.5t-15 -38.5t15 -39t38 -15t38.5 15t15.5 39zM10 710q0 45 28.5 72.5t71.5 27.5t71.5 -27.5t28.5 -72.5t-28.5 -72.5t-71.5 -27.5t-71.5 27.5t-28.5 72.5z" />
    <glyph glyph-name="ogonek" unicode="&#x2db;" horiz-adv-x="243" 
d="M10 -98q0 45 35 72.5t95 27.5h43v-55h-45q-56 0 -56 -45.5t56 -45.5h75v-55h-77q-57 0 -91.5 28t-34.5 73z" />
    <glyph glyph-name="tilde" unicode="&#x2dc;" horiz-adv-x="314" 
d="M42 674q27 25 59 25t62 -22t48 -22q39 0 43 41h50q-5 -43 -32 -68t-59 -25t-62 22t-48 22q-39 0 -43 -41h-50q5 43 32 68z" />
    <glyph glyph-name="hungarumlaut" unicode="&#x2dd;" horiz-adv-x="304" 
d="M75 740h70l-85 -139h-50zM224 740h70l-95 -139h-50z" />
    <glyph glyph-name="pi" unicode="&#x3c0;" horiz-adv-x="706" 
d="M40 489v57h616v-57h-81v-489h-69v489h-316v-489h-69v489h-81z" />
    <glyph glyph-name="uni0901" unicode="&#x901;" horiz-adv-x="0" 
d="M-132 968q-20 0 -34.5 14.5t-14.5 34.5t14.5 34.5t34.5 14.5t34.5 -14.5t14.5 -34.5t-14.5 -34.5t-34.5 -14.5zM48 987q0 -73 -44 -120.5t-136 -47.5t-136 47.5t-44 120.5h60q0 -47 30 -80t90 -33t90 33t30 80h60z" />
    <glyph glyph-name="uni0902" unicode="&#x902;" horiz-adv-x="0" 
d="M-132 841q-20 0 -34.5 14.5t-14.5 34.5t14.5 34.5t34.5 14.5t34.5 -14.5t14.5 -34.5t-14.5 -34.5t-34.5 -14.5z" />
    <glyph glyph-name="uni0903" unicode="&#x903;" horiz-adv-x="148" 
d="M74 150q-20 0 -34.5 14.5t-14.5 34.5t14.5 34.5t34.5 14.5t34.5 -14.5t14.5 -34.5t-14.5 -34.5t-34.5 -14.5zM74 455q-20 0 -34.5 14.5t-14.5 34.5t14.5 34.5t34.5 14.5t34.5 -14.5t14.5 -34.5t-14.5 -34.5t-34.5 -14.5z" />
    <glyph glyph-name="uni0905" unicode="&#x905;" horiz-adv-x="822" 
d="M657 740h205v-60h-140v-680h-65v344h-175q24 -39 24 -90q0 -92 -57.5 -147t-150.5 -55t-152.5 55t-59.5 146h60q0 -66 42.5 -106t110 -40t107.5 40t40 106t-40 99t-110 33h-40v60h33q62 0 103.5 32t41.5 90.5t-38.5 93t-100.5 34.5t-101.5 -35t-39.5 -93h-60
q0 83 56.5 133t143.5 50t143.5 -50t56.5 -133q0 -112 -109 -146v-6q23 -6 40 -16h232v341z" />
    <glyph glyph-name="uni0906" unicode="&#x906;" horiz-adv-x="1087" 
d="M1127 740v-60h-140v-680h-65v680h-200v-680h-65v344h-175q24 -39 24 -90q0 -92 -57.5 -147t-150.5 -55t-152.5 55t-59.5 146h60q0 -66 42.5 -106t110 -40t107.5 40t40 106t-40 99t-110 33h-40v60h33q62 0 103.5 32t41.5 90.5t-38.5 93t-100.5 34.5t-101.5 -35t-39.5 -93
h-60q0 83 56.5 133t143.5 50t143.5 -50t56.5 -133q0 -112 -109 -146v-6q23 -6 40 -16h232v341h470z" />
    <glyph glyph-name="uni0907" unicode="&#x907;" horiz-adv-x="598" 
d="M491 501h-164q-67 0 -105 -19t-38 -73.5t35.5 -73.5t94 -19t93.5 -5.5t71 -20.5q73 -33 73 -134q0 -73 -51.5 -119.5t-143.5 -46.5q-123 0 -178 76v-141h-65v277h65q10 -152 165 -152q67 0 105 27.5t38 84.5q0 64 -48 82q-37 14 -101 14q-104 0 -161 33.5t-57 118.5
q0 151 207 151h100v119h-466v60h678v-60h-147v-179z" />
    <glyph glyph-name="uni0908" unicode="&#x908;" horiz-adv-x="598" 
d="M-40 740h468v106q0 195 159 195q71 0 110 -43.5t39 -116.5h-55q-2 52 -23.5 79t-72.5 27t-73.5 -35t-22.5 -106v-106h149v-60h-147v-179h-164q-67 0 -105 -19t-38 -73.5t35.5 -73.5t94 -19t93.5 -5.5t71 -20.5q73 -33 73 -134q0 -73 -51.5 -119.5t-143.5 -46.5
q-123 0 -178 76v-141h-65v277h65q10 -152 165 -152q67 0 105 27.5t38 84.5q0 64 -48 82q-37 14 -101 14q-104 0 -161 33.5t-57 118.5q0 151 207 151h100v119h-466v60z" />
    <glyph glyph-name="uni0909" unicode="&#x909;" horiz-adv-x="585" 
d="M480 680v-36q0 -92 -19 -146.5t-80 -85.5v-6q60 -20 95.5 -68.5t35.5 -117.5q0 -100 -56 -156t-158 -56t-164 61t-62 160h60q0 -70 48.5 -118t118.5 -48t111.5 43t41.5 116t-51.5 114.5t-125.5 41.5h-33v61h33q80 0 112.5 53.5t32.5 148.5v39h-460v60h665v-60h-145z" />
    <glyph glyph-name="uni090A" unicode="&#x90a;" horiz-adv-x="857" 
d="M479 680v-36q0 -92 -19 -146.5t-80 -85.5v-6h197q229 0 229 -190q0 -213 -256 -186v54q142 -17 178 58q14 29 14 74q0 76 -41 104t-124 28h-110q44 -52 44 -128q0 -100 -56 -156t-157.5 -56t-164 61.5t-62.5 159.5h60q0 -70 48.5 -118t118.5 -48t111.5 42.5t41.5 116
t-51.5 115t-125.5 41.5h-33v61h33q80 0 112.5 53.5t32.5 148.5v39h-459v60h937v-60h-418z" />
    <glyph glyph-name="uni090B" unicode="&#x90b;" horiz-adv-x="964" 
d="M1004 680h-449v-209h188q40 0 51.5 15.5t11.5 59.5v35h65v-365h-32q-54 0 -83.5 -29.5t-29.5 -84.5t35 -83t90 -28q32 0 64 9v-54q-24 -10 -65 -10q-80 0 -132.5 42t-52.5 118t37 120.5t104 53.5v154q-24 -10 -62 -10h-189v-414h-65v295l-288 -295h-83v5l367 361
q-12 67 -57 107t-122 40t-127.5 -52t-50.5 -142h-65q0 114 66.5 184t175.5 70q126 0 184 -99v206h-530v60h1044v-60z" />
    <glyph glyph-name="uni090C" unicode="&#x90c;" horiz-adv-x="906" 
d="M806 -64q-80 0 -132 42t-52 118.5t37 120.5t104 53q4 68 -21 120q-29 61 -112 61q-147 0 -140 -220h-64q7 220 -141 220q-133 0 -133 -179q0 -93 50 -145.5t149 -45.5v-60q-120 -12 -192 57.5t-72 192.5q0 240 198 240q65 0 111 -33t62 -93q15 55 54.5 87.5t96.5 37.5
v170h-649v60h986v-60h-272v-173q72 -12 112 -69t40 -152q0 -28 -5 -70h-25q-54 0 -83.5 -29.5t-29.5 -84.5t35 -83t90 -28q32 0 64 9v-55q-25 -9 -66 -9z" />
    <glyph glyph-name="uni090D" unicode="&#x90d;" horiz-adv-x="615" 
d="M469 555v125h-328v-415q0 -186 171 -186q165 0 165 166h65q0 -106 -60 -166t-175.5 -60t-173 68t-57.5 186v407h-153v60h735v-60h-124v-126q0 -119 -46 -166t-155 -48v61q82 3 109 31t27 123zM442 1000h60q0 -79 -50 -128.5t-150 -49.5t-150 49.5t-50 128.5h60
q0 -54 34.5 -88.5t107 -34.5t105.5 34t33 89z" />
    <glyph glyph-name="uni090F" unicode="&#x90f;" horiz-adv-x="655" 
d="M506 555v125h-328v-415q0 -186 171 -186q165 0 165 166h65q0 -106 -60 -166t-175.5 -60t-173 68t-57.5 186v407h-153v60h735v-60h-124v-126q0 -119 -46 -166t-155 -48v61q82 3 109 31t27 123z" />
    <glyph glyph-name="uni0910" unicode="&#x910;" horiz-adv-x="655" 
d="M506 555v125h-328v-415q0 -186 171 -186q165 0 165 166h65q0 -106 -60 -166t-175.5 -60t-173 68t-57.5 186v407h-153v60h531l-48.5 70t-38.5 46.5t-35 32t-37.5 16t-47 8.5t-62.5 1h-32v60h27q129 0 177 -32q55 -37 105 -106q28 -39 64 -96h132v-60h-124v-126
q0 -119 -46 -166t-155 -48v61q82 3 109 31t27 123z" />
    <glyph glyph-name="uni0911" unicode="&#x911;" horiz-adv-x="1087" 
d="M1127 740v-60h-140v-680h-65v680h-200v-680h-65v344h-175q24 -39 24 -90q0 -92 -57.5 -147t-150.5 -55t-152.5 55t-59.5 146h60q0 -66 42.5 -106t110 -40t107.5 40t40 106t-40 99t-110 33h-40v60h33q62 0 103.5 32t41.5 90.5t-38.5 93t-100.5 34.5t-101.5 -35t-39.5 -93
h-60q0 83 56.5 133t143.5 50t143.5 -50t56.5 -133q0 -112 -109 -146v-6q23 -6 40 -16h232v341h470zM948 987h60q0 -74 -39.5 -121t-130.5 -47t-130.5 47t-39.5 121h60q0 -49 25.5 -81t84.5 -32t84.5 32t25.5 81z" />
    <glyph glyph-name="uni0913" unicode="&#x913;" horiz-adv-x="1087" 
d="M1127 740v-60h-140v-680h-65v680h-200v-680h-65v344h-175q24 -39 24 -90q0 -92 -57.5 -147t-150.5 -55t-152.5 55t-59.5 146h60q0 -66 42.5 -106t110 -40t107.5 40t40 106t-40 99t-110 33h-40v60h33q62 0 103.5 32t41.5 90.5t-38.5 93t-100.5 34.5t-101.5 -35t-39.5 -93
h-60q0 83 56.5 133t143.5 50t143.5 -50t56.5 -133q0 -112 -109 -146v-6q23 -6 40 -16h232v341h260l-48.5 70t-38.5 46.5t-35 32t-37.5 16t-47 8.5t-62.5 1h-32v60h27q129 0 177 -32q55 -37 105 -106q28 -39 64 -96h138z" />
    <glyph glyph-name="uni0914" unicode="&#x914;" horiz-adv-x="1148" 
d="M1188 740v-60h-140v-680h-65v680h-200v-680h-65v344h-175q24 -39 24 -90q0 -92 -57.5 -147t-150.5 -55t-152.5 55t-59.5 146h60q0 -66 42.5 -106t110 -40t107.5 40t40 106t-40 99t-110 33h-40v60h33q62 0 103.5 32t41.5 90.5t-38.5 93t-100.5 34.5t-101.5 -35t-39.5 -93
h-60q0 83 56.5 133t143.5 50t143.5 -50t56.5 -133q0 -112 -109 -146v-6q23 -6 40 -16h232v341h255q-44 50 -91.5 61.5t-145.5 11.5h-32v60h27q68 0 99 -3t71 -22.5t77 -61.5q-57 88 -105.5 116t-143.5 28h-32v60h27q62 0 98 -6.5t75 -32.5t73.5 -75t79.5 -136h138z" />
    <glyph glyph-name="uni0915" unicode="&#x915;" horiz-adv-x="1018" 
d="M1058 680h-506v-198q50 89 167 89q102 0 162.5 -64.5t60.5 -172t-77 -169.5t-199 -51v60q94 -8 152.5 34.5t58.5 127t-43.5 130t-123 45.5t-119 -50.5t-39.5 -141.5v-319h-65v195q-54 -86 -174 -86q-100 0 -162.5 63.5t-62.5 166.5t62 167t163 64q120 0 174 -86v196h-527
v60h1098v-60zM197.5 213.5q44.5 -44.5 124.5 -44.5t122.5 45.5t42.5 125.5t-43.5 125t-123.5 45t-123.5 -45t-43.5 -126t44.5 -125.5z" />
    <glyph glyph-name="uni0916" unicode="&#x916;" horiz-adv-x="905" 
d="M-40 740h985v-60h-140v-680h-65v212q-49 -67 -154 -67q-19 0 -37 3q-20 -72 -81.5 -110.5t-147.5 -38.5q-108 0 -171.5 61t-63.5 168v179h37q55 0 80 3.5t44 22.5t23 51.5t4 97.5v98h-313v60zM150 353v-123q0 -87 42 -129t119 -42t121 28.5t55 80.5q-49 25 -76 72
t-27 109q0 90 56.5 147t145.5 57q107 0 154 -62v189h-403v-99q0 -135 -38.5 -181.5t-148.5 -46.5zM596 205q66 0 105 39t39 105t-39 105t-105 39t-106.5 -39t-40.5 -105t40.5 -105t106.5 -39z" />
    <glyph glyph-name="uni0917" unicode="&#x917;" horiz-adv-x="687" 
d="M-40 740h767v-60h-140v-680h-65v680h-221v-255q0 -95 -31.5 -141.5t-106.5 -46.5t-110 49.5t-31 138.5h64q0 -61 9.5 -85.5t25.5 -33.5t41 -9t41 9t23 29q11 31 11 90v255h-277v60z" />
    <glyph glyph-name="uni0918" unicode="&#x918;" horiz-adv-x="694" 
d="M734 740v-60h-140v-680h-65v214q-31 -50 -89.5 -77t-144 -27t-151.5 47.5t-66 134.5q0 55 28.5 94t75.5 59v6q-52 23 -69 67t-17 124v38h-136v60h774zM529 355v325h-367v-38q0 -95 28.5 -131t115.5 -36h33v-59h-33q-72 0 -117.5 -31t-45.5 -94t49 -92t131.5 -29t144 50.5
t61.5 134.5z" />
    <glyph glyph-name="uni0919" unicode="&#x919;" horiz-adv-x="645" 
d="M-40 740h725v-60h-216v-179h-164q-67 0 -105 -19t-38 -73.5t35.5 -73.5t94 -19t93.5 -5.5t71 -20.5q73 -33 73 -134q0 -72 -56 -119t-157.5 -47t-167 55.5t-66.5 156.5h64q10 -152 175 -152q67 0 105 27.5t38 84.5q0 64 -48 82q-37 14 -101 14q-104 0 -161 33.5
t-57 118.5q0 151 207 151h100v119h-444v60zM566 433q20 0 34.5 -14.5t14.5 -34.5t-14.5 -34.5t-34.5 -14.5t-34.5 14.5t-14.5 34.5t14.5 34.5t34.5 14.5z" />
    <glyph glyph-name="uni091A" unicode="&#x91a;" horiz-adv-x="720" 
d="M-40 740h800v-60h-140v-680h-65v199q-55 -95 -185 -95q-96 0 -161.5 58.5t-65.5 149.5q0 112 86 162h-180v57h362v-57h-26q-82 0 -129.5 -42t-47.5 -115t47.5 -113t123.5 -40t126 53t50 128v335h-595v60z" />
    <glyph glyph-name="uni091B" unicode="&#x91b;" horiz-adv-x="817" 
d="M857 680h-225v-111q63 -16 98.5 -74.5t35.5 -147.5q0 -146 -97 -230.5t-260 -84.5q-90 0 -161 20t-119 71t-48 119q0 131 119 174v6q-58 18 -77.5 67t-19.5 145v46h-143v60h897v-60zM567 680h-399v-52q0 -104 29.5 -143t122.5 -39h12v-60h-12q-81 0 -128 -34.5
t-47 -102.5q0 -44 22.5 -76t61.5 -49q73 -32 180 -32q135 0 216 65t81 197q0 84 -32 122t-86 38q-28 0 -47 -7t-37 -27q-37 -43 -35 -170h-60q-3 245 158 263v107z" />
    <glyph glyph-name="uni091C" unicode="&#x91c;" horiz-adv-x="819" 
d="M-40 740h899v-60h-140v-680h-65v460h-202v-84q0 -160 -50 -217q-46 -53 -139 -53q-135 0 -171 113q-18 60 -18 157v142h65v-120q0 -134 15 -167q23 -47 57 -58q22 -7 52 -7t52 7t35.5 24.5t21 33.5t10.5 49q5 42 5 118v120h267v162h-694v60z" />
    <glyph glyph-name="uni091D" unicode="&#x91d;" horiz-adv-x="819" 
d="M859 740v-60h-140v-680h-65v290h-188q23 -11 39.5 -38t16.5 -60q0 -66 -48 -112t-138 -46q-55 0 -99.5 22.5t-66.5 57.5v-144h-65v261h65q4 -63 46.5 -100.5t111.5 -37.5q129 0 129 105q0 47 -25 69q-25 21 -107 21q-131 0 -173 38q-41 35 -41 104q0 89 65 118
q55 23 142 23h100v109h-458v60h899zM654 343v337h-171v-169h-164q-91 0 -115 -19q-28 -21 -28 -67.5t31 -64t90 -17.5h357z" />
    <glyph glyph-name="uni091E" unicode="&#x91e;" horiz-adv-x="798" 
d="M-40 740h878v-60h-140v-680h-65v325h-121q-7 -93 -63.5 -152.5t-157.5 -59.5t-156 48.5t-69 116.5h66q11 -44 50 -74.5t112.5 -30.5t113.5 47t40 131t-40 131t-113.5 47t-112.5 -30.5t-50 -74.5h-66q14 68 69 116.5t155 48.5t156.5 -57.5t65.5 -148.5h121v297h-673v60z
" />
    <glyph glyph-name="uni091F" unicode="&#x91f;" horiz-adv-x="663" 
d="M444 506h-65q-109 -1 -172.5 -51t-63.5 -145t55.5 -148.5t146.5 -53.5t143.5 53.5t52.5 145.5h65q0 -117 -72 -188t-189 -71t-192 71t-75 191.5t83 187.5t218 68v114h-419v60h743v-60h-259v-174z" />
    <glyph glyph-name="uni0920" unicode="&#x920;" horiz-adv-x="669" 
d="M345 506q-89 0 -144 -54.5t-55 -142.5t55 -142.5t144 -54.5t144 54.5t55 142.5t-55 142.5t-144 54.5zM544.5 483.5q64.5 -69.5 64.5 -179t-74 -180.5t-190 -71t-190 71t-74 180.5t64 178.5t167 80v117h-352v60h749v-60h-332v-117q103 -10 167.5 -79.5z" />
    <glyph glyph-name="uni0921" unicode="&#x921;" horiz-adv-x="586" 
d="M469 501h-164q-67 0 -105 -19t-38 -73.5t35.5 -73.5t94 -19t93.5 -5.5t71 -20.5q73 -33 73 -134q0 -72 -56 -119t-157.5 -47t-167 55.5t-66.5 156.5h64q10 -152 175 -152q67 0 105 27.5t38 84.5q0 64 -48 82q-37 14 -101 14q-104 0 -161 33.5t-57 118.5q0 151 207 151
h100v119h-444v60h666v-60h-157v-179z" />
    <glyph glyph-name="uni0922" unicode="&#x922;" horiz-adv-x="633" 
d="M470 517h-65q-121 1 -191.5 -57t-70.5 -166.5t64.5 -165t164.5 -56.5q74 0 113 35.5t39 88.5q0 115 -103 115q-100 0 -100 -118h-64q0 77 41.5 127t119.5 50t124.5 -45t46.5 -127t-59.5 -134t-158.5 -52q-128 0 -210.5 75t-82.5 201q0 98 46 165q85 126 281 124v103h-445
v60h713v-60h-203v-163z" />
    <glyph glyph-name="uni0923" unicode="&#x923;" horiz-adv-x="848" 
d="M-40 740h928v-60h-140v-680h-65v680h-191v-261q0 -117 -45.5 -179.5t-149.5 -62.5t-149.5 62.5t-45.5 179.5v261h-142v60zM427 418v262h-260v-262q0 -91 27 -136t103 -45t103 45t27 136z" />
    <glyph glyph-name="uni0924" unicode="&#x924;" horiz-adv-x="666" 
d="M338 56v-58h-8q-136 0 -201 68.5t-65 189.5t77 182t209 61h151v181h-541v60h746v-60h-140v-680h-65v439h-151q-101 0 -160.5 -45t-59.5 -143t49 -146.5t159 -48.5z" />
    <glyph glyph-name="uni0925" unicode="&#x925;" horiz-adv-x="751" 
d="M791 680h-140v-680h-65v204q-23 -42 -76.5 -73.5t-134.5 -31.5q-143 0 -216 98t-54 248q64 -2 90 -2q113 0 165.5 26t52.5 105q0 54 -30 85t-86.5 31t-86 -37.5t-27.5 -100.5h-65q-2 88 47 143t131.5 55t132 -49.5t49.5 -130.5q0 -118 -96 -154q-83 -31 -212 -27
q-5 -105 49 -167.5t163 -62.5q82 0 141 51.5t63 130.5v399h205v-60z" />
    <glyph glyph-name="uni0926" unicode="&#x926;" horiz-adv-x="592" 
d="M514 8h-65v154q-19 -27 -58 -42.5t-86 -15.5q-108 0 -175 62.5t-67 164.5q0 124 80.5 181t221.5 57h44v111h-449v60h672v-60h-158v-171h-97q-114 0 -177 -33q-71 -38 -71 -145q0 -83 48.5 -125t123 -42t114.5 32.5t40 105.5h59v-294z" />
    <glyph glyph-name="uni0927" unicode="&#x927;" horiz-adv-x="714" 
d="M754 740v-60h-140v-680h-65v208q-30 -47 -88.5 -72.5t-140.5 -25.5t-147.5 47t-65.5 130q0 103 104 140v6q-47 19 -76.5 59t-29.5 94q0 72 46 118t123 46t120.5 -50.5t38.5 -131.5h-62q3 122 -99 122q-47 0 -74.5 -27.5t-27.5 -74.5q0 -66 44.5 -98.5t120.5 -32.5h48v-59
h-48q-72 0 -117.5 -26.5t-45.5 -85t49.5 -87.5t127.5 -29t139 49.5t61 130.5v390h205z" />
    <glyph glyph-name="uni0928" unicode="&#x928;" horiz-adv-x="775" 
d="M357 392q-35 36 -92 36t-95 -34.5t-38 -97t39 -95t93.5 -32.5t91 34t36.5 93.5t-35 95.5zM610 0v429h-225q71 -38 71 -136q0 -79 -51.5 -131t-137 -52t-143 51.5t-57.5 138.5t56.5 137t166.5 50h320v193h-650v60h855v-60h-140v-680h-65z" />
    <glyph glyph-name="uni092A" unicode="&#x92a;" horiz-adv-x="643" 
d="M-40 740h723v-60h-140v-680h-65v299q-51 -90 -174 -90q-102 0 -156.5 68.5t-54.5 178.5v224h-133v60zM158 680v-220q0 -191 160 -191q70 0 115 50t45 125v236h-320z" />
    <glyph glyph-name="uni092B" unicode="&#x92b;" horiz-adv-x="995" 
d="M1035 680h-504v-227q55 90 179 90q97 0 156.5 -61.5t59.5 -162.5t-72.5 -160t-188.5 -51v58q87 -8 141.5 34.5t54.5 120.5t-41.5 120t-120 42t-123.5 -53t-45 -136v-294h-65v330q-51 -84 -156 -84t-157 67t-52 177v190h-141v60h1075v-60zM166 680v-189q0 -92 35 -138.5
t110.5 -46.5t115 53t39.5 129v192h-300z" />
    <glyph glyph-name="uni092C" unicode="&#x92c;" horiz-adv-x="673" 
d="M-40 740h753v-60h-140v-680h-65v194q-61 -100 -194 -100q-108 0 -180 68.5t-72 176.5t72 176.5t180 68.5q132 0 194 -101v197h-548v60zM508 339q0 81 -51.5 133t-131 52t-132.5 -39l294 -237q21 42 21 91zM127 339q0 -86 54.5 -135.5t137.5 -49.5t136 51l-298 241
q-30 -46 -30 -107z" />
    <glyph glyph-name="uni092D" unicode="&#x92d;" horiz-adv-x="785" 
d="M825 740v-60h-140v-680h-65v390h-173v-64q0 -216 -172 -216q-75 0 -126.5 48t-51.5 128q0 162 231 162h55v93q0 69 -22 106.5t-77.5 37.5t-77 -37.5t-21.5 -111.5h-63q0 209 162.5 209t162.5 -204v-93h173v292h205zM383 326v64h-62q-78 0 -118.5 -24t-40.5 -88
q0 -48 31.5 -78.5t87 -30.5t79 38.5t23.5 118.5z" />
    <glyph glyph-name="uni092E" unicode="&#x92e;" horiz-adv-x="763" 
d="M803 740v-60h-140v-680h-65v393h-198v-64q0 -216 -172 -216q-75 0 -126.5 48t-51.5 128q0 162 231 162h55v229h-376v60h843zM336 329v64h-62q-78 0 -118.5 -24t-40.5 -88q0 -48 31.5 -78.5t87 -30.5t79 38.5t23.5 118.5zM598 451v229h-198v-229h198z" />
    <glyph glyph-name="uni092F" unicode="&#x92f;" horiz-adv-x="718" 
d="M-40 740h798v-60h-140v-680h-65v235q-25 -54 -79.5 -87.5t-130.5 -33.5q-137 0 -208 90t-64 246q63 0 90 5.5t41.5 9t25.5 13l18.5 16t12.5 21t7.5 24.5t4 31t1.5 34v76h-312v60zM337 680v-36q0 -64 -6.5 -103.5t-26.5 -74.5q-37 -65 -164 -71q-2 -99 53.5 -160
t152.5 -61t152 65.5t55 169.5v271h-216z" />
    <glyph glyph-name="uni0930" unicode="&#x930;" horiz-adv-x="524" 
d="M441 680v-56q0 -92 -11 -143.5t-45.5 -82.5t-86 -40t-144.5 -9v-136q0 -154 125 -154q64 0 94.5 40t30.5 111h66q0 -95 -50.5 -153t-141.5 -58t-140.5 59t-49.5 155v194q161 0 200 8q55 12 71 54t16 159v52h-415v60h604v-60h-123z" />
    <glyph glyph-name="uni0931" unicode="&#x931;" horiz-adv-x="524" 
d="M441 680v-56q0 -92 -11 -143.5t-45.5 -82.5t-86 -40t-144.5 -9v-136q0 -154 125 -154q64 0 94.5 40t30.5 111h66q0 -95 -50.5 -153t-141.5 -58t-140.5 59t-49.5 155v194q161 0 200 8q55 12 71 54t16 159v52h-415v60h604v-60h-123zM65 9q20 0 34.5 -14.5t14.5 -34.5
t-14.5 -34.5t-34.5 -14.5t-34.5 14.5t-14.5 34.5t14.5 34.5t34.5 14.5z" />
    <glyph glyph-name="uni0932" unicode="&#x932;" horiz-adv-x="906" 
d="M285 451q-133 0 -133 -179q0 -93 50 -145.5t149 -45.5v-60q-120 -12 -192 57.5t-72 192.5q0 240 198 240q65 0 111 -33t62 -93q15 55 54.5 87.5t96.5 37.5v170h-649v60h986v-60h-272v-173q154 -27 154 -236q0 -123 -72 -192.5t-192 -57.5v60q99 -7 149 45.5t50 145.5
q0 179 -133 179q-147 0 -140 -220h-64q7 220 -141 220z" />
    <glyph glyph-name="uni0933" unicode="&#x933;" horiz-adv-x="942" 
d="M982 680h-293v-158q96 -5 158.5 -68t62.5 -161.5t-65.5 -162t-167.5 -63.5q-65 0 -118.5 32.5t-78.5 90.5q-28 -60 -79 -91.5t-117 -31.5q-102 0 -167.5 63.5t-65.5 163.5t66 164t167 64q66 0 117.5 -32t78.5 -92q40 95 144 118v164h-664v60h1022v-60zM162.5 174
q46.5 -46 121 -46t119 46t44.5 120t-44.5 120.5t-119 46.5t-121 -46t-46.5 -120.5t46.5 -120.5zM845 294q0 75 -46.5 121t-120.5 46t-119 -46.5t-45 -120t45 -120t119.5 -46.5t120.5 45.5t46 120.5z" />
    <glyph glyph-name="uni0935" unicode="&#x935;" horiz-adv-x="649" 
d="M-40 740h729v-60h-140v-680h-65v198q-59 -95 -191 -95q-103 0 -168.5 66t-65.5 170t65.5 170t168.5 66q132 0 191 -95v200h-524v60zM303 163q82 0 131.5 48t49.5 128t-49.5 128t-131.5 48t-130.5 -47.5t-48.5 -128.5t48.5 -128.5t130.5 -47.5z" />
    <glyph glyph-name="uni0936" unicode="&#x936;" horiz-adv-x="801" 
d="M841 680h-140v-680h-65v740h205v-60zM185 197q0 -68 34.5 -103t99.5 -35t94.5 41t31.5 120h66q-6 -221 -196 -221q-90 0 -143 51.5t-53 146.5v203q78 -2 117 -2t69 2.5t61 12t50 25.5q43 36 43 107.5t-36 108t-105 36.5t-104 -48.5t-33 -126.5h-64q-5 100 49.5 167.5
t151 67.5t151.5 -56t55 -141q0 -126 -82 -173q-71 -40 -192 -40q-21 0 -65 2v-145z" />
    <glyph glyph-name="uni0937" unicode="&#x937;" horiz-adv-x="643" 
d="M-40 740h723v-60h-140v-680h-65v299q-51 -90 -174 -90q-102 0 -156.5 68.5t-54.5 178.5v224h-133v60zM478 680h-320v-6l318 -262q2 20 2 31v237zM158 460q0 -191 160 -191q47 0 84 24.5t57 65.5l-301 249v-148z" />
    <glyph glyph-name="uni0938" unicode="&#x938;" horiz-adv-x="792" 
d="M88 425l40 -1q105 0 148 20q26 12 41 27.5t24 44.5q14 46 14 147v17h-395v60h872v-60h-140v-680h-65v369h-473v-156q0 -154 120 -154q65 0 93 43t27 128h66q4 -107 -44.5 -169t-140.5 -62t-139.5 58.5t-47.5 155.5v212zM627 424v256h-208v-15q0 -102 -16 -158t-55 -83
h279z" />
    <glyph glyph-name="uni0939" unicode="&#x939;" horiz-adv-x="608" 
d="M483 500h-176q-59 0 -95.5 -22.5t-36.5 -67.5q0 -62 76 -88q35 8 69 8q90 0 150 -46t67 -111h-65q-26 97 -152 97q-73 0 -116.5 -42t-43.5 -108.5t43.5 -109t116.5 -42.5q126 0 152 97h65q-7 -65 -67 -111t-155 -46t-157.5 58.5t-62.5 152.5q0 114 88 173
q-74 39 -74 115.5t53 114.5t144 38h112v120h-458v60h688v-60h-165v-180z" />
    <glyph glyph-name="uni093C" unicode="&#x93c;" horiz-adv-x="0" 
d="M-377 -122q-20 0 -34.5 14.5t-14.5 34.5t14.5 34.5t34.5 14.5t34.5 -14.5t14.5 -34.5t-14.5 -34.5t-34.5 -14.5z" />
    <glyph glyph-name="uni093D" unicode="&#x93d;" horiz-adv-x="600" 
d="M370 359q37 -50 68 -108.5t31 -102.5t-34.5 -63.5t-128.5 -19.5h-253v60h252q53 0 75 8t22 35t-30.5 78.5t-67 101.5t-67 109.5t-30.5 98.5q0 116 161 116h179v-60h-145q-64 0 -97.5 -15.5t-33.5 -59.5t99 -178z" />
    <glyph glyph-name="uni093E" unicode="&#x93e;" 
d="M305 680h-140v-680h-65v680h-140v60h345v-60z" />
    <glyph glyph-name="uni093F" unicode="&#x93f;" 
d="M102 740v20q0 59 23.5 102t58 67t88 37.5t100 17.5t106.5 4t106.5 -4t100 -17.5t88 -37.5t58 -67t23.5 -102v-57h-65v47q0 86 -49 123q-25 19 -50.5 30.5t-66.5 16.5t-70 6.5t-75 1.5t-75 -1.5t-70 -6.5t-66.5 -16.5t-50.5 -30.5q-49 -37 -49 -123v-10h138v-60h-140v-680
h-65v680h-140v60h142z" />
    <glyph glyph-name="uni0940" unicode="&#x940;" 
d="M169 740h136v-60h-140v-680h-65v680h-140v60h147v30q0 82 -23.5 120t-85.5 38t-85.5 -38t-23.5 -120v-67h-62v77q0 98 38.5 153t132.5 55t132.5 -55t38.5 -153v-40z" />
    <glyph glyph-name="uni0941" unicode="&#x941;" horiz-adv-x="0" 
d="M-159 52q88 0 132 -41.5t44 -115t-48.5 -116.5t-139.5 -43q-115 0 -171.5 57.5t-56.5 146.5h65q0 -75 44.5 -110t117.5 -35q124 0 124 102q0 93 -111 98v57z" />
    <glyph glyph-name="uni0942" unicode="&#x942;" horiz-adv-x="0" 
d="M-233 -233.5q-53 40.5 -53 122.5t54.5 123t130.5 41q117 0 178.5 -81t61.5 -223h-63q0 117 -43.5 181.5t-132.5 64.5q-54 0 -87 -28t-33 -79.5t34 -77t91 -15.5v-59q-85 -10 -138 30.5z" />
    <glyph glyph-name="uni0943" unicode="&#x943;" horiz-adv-x="0" 
d="M-100 56v-56h-17q-115 0 -115 -108q0 -47 26 -77t75 -30t80 14v-56q-30 -14 -73 -14q-82 0 -125.5 47t-43.5 120t46 116.5t130 43.5h17z" />
    <glyph glyph-name="uni0944" unicode="&#x944;" horiz-adv-x="0" 
d="M-107 -440h-37q-77 0 -123 34t-46 104.5t67 105.5q-69 36 -69 110.5t51 108t126 33.5h31v-56h-29q-118 0 -118 -82q0 -47 33 -64.5t92 -17.5h22v-56h-33q-112 -2 -112 -84q0 -80 113 -80h32v-56z" />
    <glyph glyph-name="uni0945" unicode="&#x945;" horiz-adv-x="0" 
d="M48 987q0 -73 -44 -120.5t-136 -47.5t-136 47.5t-44 120.5h60q0 -47 30 -80t90 -33t90 33t30 80h60z" />
    <glyph glyph-name="uni0947" unicode="&#x947;" horiz-adv-x="0" 
d="M-447 914h-32v60h27q118 0 156 -21q55 -29 83 -63q53 -65 112 -158h-72l-50.5 73.5t-39.5 48.5t-36 33.5t-38 16.5t-47.5 9t-62.5 1z" />
    <glyph glyph-name="uni0948" unicode="&#x948;" horiz-adv-x="0" 
d="M-461 990h27q63 0 99.5 -7t76 -34t74.5 -78.5t82 -142.5h-73q-47 58 -96 71.5t-151 13.5h-32v60h27q68 0 99 -3t71 -22.5t77 -61.5q-57 88 -105.5 116t-143.5 28h-32v60z" />
    <glyph glyph-name="uni0949" unicode="&#x949;" horiz-adv-x="257" 
d="M310 987q0 -73 -44 -120.5t-136 -47.5t-136 47.5t-44 120.5h60q0 -47 30 -80t90 -33t90 33t30 80h60zM305 680h-140v-680h-65v680h-140v60h345v-60z" />
    <glyph glyph-name="uni094B" unicode="&#x94b;" 
d="M305 740v-60h-140v-680h-65v680h-140v60h126l-48.5 70t-38.5 46.5t-35 32t-37.5 16t-47 8.5t-62.5 1h-32v60h27q129 0 177 -32q55 -37 105 -106q28 -39 64 -96h147z" />
    <glyph glyph-name="uni094C" unicode="&#x94c;" horiz-adv-x="257" 
d="M305 740v-60h-140v-680h-65v680h-140v60h120q-44 50 -91.5 61.5t-145.5 11.5h-32v60h27q68 0 99 -3t71 -22.5t77 -61.5q-57 88 -105.5 116t-143.5 28h-32v60h27q62 0 98 -6.5t75 -32.5t73.5 -75t79.5 -136h148z" />
    <glyph glyph-name="uni094D" unicode="&#x94d;" horiz-adv-x="0" 
d="M12 -214h-76l-99 152h65z" />
    <glyph glyph-name="uni0950" unicode="&#x950;" horiz-adv-x="0" 
d="M484 375q64 0 89.5 15.5t25.5 63.5q0 115 42 175.5t141.5 60.5t142 -62t42.5 -185v-111q0 -178 -84.5 -249t-294.5 -40v57q172 -23 245.5 26.5t73.5 212.5v112q0 101 -26 142.5t-96.5 41.5t-98 -43t-27.5 -141q0 -84 -55 -109q-46 -22 -120 -22h-4q26 -46 26 -100
q0 -96 -55 -152t-150.5 -56t-155 58.5t-59.5 152.5h60q0 -69 42.5 -112.5t112 -43.5t107.5 40.5t38 110t-41 108.5t-109 39h-40v60h33q61 0 103 36.5t42 98t-37 98.5t-102 37t-103 -37.5t-38 -100.5h-60q0 88 55.5 140.5t144.5 52.5t144.5 -52.5t55.5 -140.5q0 -55 -28 -97
t-81 -59v-6q24 -6 44 -20h55zM689 917h60q0 -73 -44 -120.5t-136 -47.5t-136 47.5t-44 120.5h60q0 -47 30 -80t90 -33t90 33t30 80zM569 898q-20 0 -34.5 14.5t-14.5 34.5t14.5 34.5t34.5 14.5t34.5 -14.5t14.5 -34.5t-14.5 -34.5t-34.5 -14.5z" />
    <glyph glyph-name="uni0958" unicode="&#x958;" horiz-adv-x="1018" 
d="M1058 680h-506v-198q50 89 167 89q102 0 162.5 -64.5t60.5 -172t-77 -169.5t-199 -51v60q94 -8 152.5 34.5t58.5 127t-43.5 130t-123 45.5t-119 -50.5t-39.5 -141.5v-319h-65v195q-54 -86 -174 -86q-100 0 -162.5 63.5t-62.5 166.5t62 167t163 64q120 0 174 -86v196h-527
v60h1098v-60zM197.5 213.5q44.5 -44.5 124.5 -44.5t122.5 45.5t42.5 125.5t-43.5 125t-123.5 45t-123.5 -45t-43.5 -126t44.5 -125.5zM354 38q20 0 34.5 -14.5t14.5 -34.5t-14.5 -34.5t-34.5 -14.5t-34.5 14.5t-14.5 34.5t14.5 34.5t34.5 14.5z" />
    <glyph glyph-name="uni0959" unicode="&#x959;" horiz-adv-x="905" 
d="M-40 740h985v-60h-140v-680h-65v212q-49 -67 -154 -67q-19 0 -37 3q-20 -72 -81.5 -110.5t-147.5 -38.5q-108 0 -171.5 61t-63.5 168v179h37q55 0 80 3.5t44 22.5t23 51.5t4 97.5v98h-313v60zM150 353v-123q0 -87 42 -129t119 -42t121 28.5t55 80.5q-49 25 -76 72
t-27 109q0 90 56.5 147t145.5 57q107 0 154 -62v189h-403v-99q0 -135 -38.5 -181.5t-148.5 -46.5zM596 205q66 0 105 39t39 105t-39 105t-105 39t-106.5 -39t-40.5 -105t40.5 -105t106.5 -39zM312 -66q20 0 34.5 -14.5t14.5 -34.5t-14.5 -34.5t-34.5 -14.5t-34.5 14.5
t-14.5 34.5t14.5 34.5t34.5 14.5z" />
    <glyph glyph-name="uni095A" unicode="&#x95a;" horiz-adv-x="687" 
d="M-40 740h767v-60h-140v-680h-65v680h-221v-255q0 -95 -31.5 -141.5t-106.5 -46.5t-110 49.5t-31 138.5h64q0 -61 9.5 -85.5t25.5 -33.5t41 -9t41 9t23 29q11 31 11 90v255h-277v60zM165 124q20 0 34.5 -14.5t14.5 -34.5t-14.5 -34.5t-34.5 -14.5t-34.5 14.5t-14.5 34.5
t14.5 34.5t34.5 14.5z" />
    <glyph glyph-name="uni095B" unicode="&#x95b;" horiz-adv-x="819" 
d="M-40 740h899v-60h-140v-680h-65v460h-202v-84q0 -160 -50 -217q-46 -53 -139 -53q-135 0 -171 113q-18 60 -18 157v142h65v-120q0 -134 15 -167q23 -47 57 -58q22 -7 52 -7t52 7t35.5 24.5t21 33.5t10.5 49q5 42 5 118v120h267v162h-694v60zM264 33q20 0 34.5 -14.5
t14.5 -34.5t-14.5 -34.5t-34.5 -14.5t-34.5 14.5t-14.5 34.5t14.5 34.5t34.5 14.5z" />
    <glyph glyph-name="uni095C" unicode="&#x95c;" horiz-adv-x="586" 
d="M469 501h-164q-67 0 -105 -19t-38 -73.5t35.5 -73.5t94 -19t93.5 -5.5t71 -20.5q73 -33 73 -134q0 -72 -56 -119t-157.5 -47t-167 55.5t-66.5 156.5h64q10 -152 175 -152q67 0 105 27.5t38 84.5q0 64 -48 82q-37 14 -101 14q-104 0 -161 33.5t-57 118.5q0 151 207 151
h100v119h-444v60h666v-60h-157v-179zM330 -64q20 0 34.5 -14.5t14.5 -34.5t-14.5 -34.5t-34.5 -14.5t-34.5 14.5t-14.5 34.5t14.5 34.5t34.5 14.5z" />
    <glyph glyph-name="uni095D" unicode="&#x95d;" horiz-adv-x="633" 
d="M470 517h-65q-121 1 -191.5 -57t-70.5 -166.5t64.5 -165t164.5 -56.5q74 0 113 35.5t39 88.5q0 115 -103 115q-100 0 -100 -118h-64q0 77 41.5 127t119.5 50t124.5 -45t46.5 -127t-59.5 -134t-158.5 -52q-128 0 -210.5 75t-82.5 201q0 98 46 165q85 126 281 124v103h-445
v60h713v-60h-203v-163zM384 -49q20 0 34.5 -14.5t14.5 -34.5t-14.5 -34.5t-34.5 -14.5t-34.5 14.5t-14.5 34.5t14.5 34.5t34.5 14.5z" />
    <glyph glyph-name="uni095E" unicode="&#x95e;" horiz-adv-x="995" 
d="M1035 680h-504v-227q55 90 179 90q97 0 156.5 -61.5t59.5 -162.5t-72.5 -160t-188.5 -51v58q87 -8 141.5 34.5t54.5 120.5t-41.5 120t-120 42t-123.5 -53t-45 -136v-294h-65v330q-51 -84 -156 -84t-157 67t-52 177v190h-141v60h1075v-60zM166 680v-189q0 -92 35 -138.5
t110.5 -46.5t115 53t39.5 129v192h-300zM272 128q20 0 34.5 -14.5t14.5 -34.5t-14.5 -34.5t-34.5 -14.5t-34.5 14.5t-14.5 34.5t14.5 34.5t34.5 14.5z" />
    <glyph glyph-name="uni0960" unicode="&#x960;" horiz-adv-x="966" 
d="M1004 680h-449v-209h188q40 0 51.5 15.5t11.5 59.5v35h65v-365h-22q-90 0 -113 -36q-11 -16 -11 -40.5t10.5 -40t30.5 -22.5q33 -11 84 -11h22v-56h-26q-53 0 -86 -22t-33 -66q0 -87 108 -87q27 0 57 6v-54q-31 -7 -61 -7q-79 0 -122 38t-43 99q0 81 68 117
q-31 13 -50.5 42t-19.5 66q0 63 41.5 94t100.5 32v156q-24 -10 -62 -10h-189v-414h-65v295l-288 -295h-83v4l367 362q-12 67 -57 107t-122 40t-127.5 -52t-50.5 -142h-65q0 114 66.5 184t175.5 70q126 0 184 -99v206h-530v60h1044v-60z" />
    <glyph glyph-name="uni0961" unicode="&#x961;" horiz-adv-x="906" 
d="M828 279q0 -34 -4 -63h-19q-90 0 -113 -36q-11 -16 -11 -40.5t10.5 -40t30.5 -22.5q33 -11 84 -11h22v-56h-26q-53 0 -86 -22t-33 -66q0 -87 111 -87q28 0 54 7v-55q-31 -7 -61 -7q-79 0 -122 38t-43 99q0 81 68 117q-31 13 -50.5 42t-19.5 66q0 63 42 94t101 32
q0 183 -133 183q-147 0 -140 -220h-64q7 220 -141 220q-133 0 -133 -179q0 -93 50 -145.5t149 -45.5v-60q-120 -12 -192 57.5t-72 192.5q0 240 198 240q65 0 111 -33t62 -93q15 55 54.5 87.5t96.5 37.5v170h-649v60h986v-60h-272v-173q74 -12 114 -70.5t40 -157.5z" />
    <glyph glyph-name="uni0962" unicode="&#x962;" horiz-adv-x="0" 
d="M532 18q60 0 89.5 -40t29.5 -106q0 -20 -3 -41h-7q-71 0 -71 -59q0 -56 72 -56q19 0 38 4v-51q-15 -5 -42 -5q-54 0 -91 26t-37 72.5t23.5 72.5t62.5 32q7 96 -69 96q-80 0 -77 -123h-60q5 122 -77 122q-73 0 -73 -98q0 -111 116 -105v-55q-78 -6 -127 39.5t-49 118
t33.5 114.5t96.5 42q43 0 71.5 -22t38.5 -60q10 38 39.5 60t72.5 22z" />
    <glyph glyph-name="uni0963" unicode="&#x963;" horiz-adv-x="0" 
d="M640 -167q-46 0 -58 -8.5t-12 -20t3.5 -17.5t15.5 -9q14 -3 48 -5h10v-34h-7q-36 0 -53 -6t-17 -25q0 -29 51 -29q17 0 40 5v-39q-15 -5 -42 -5q-96 0 -96 66q0 36 31 54q-30 14 -30 46t22 47.5t54 15.5q7 97 -73 97t-77 -126h-60q5 122 -77 122q-73 0 -73 -98
q0 -111 116 -105v-55q-78 -6 -127 39.5t-49 118t33.5 114.5t96.5 42q43 0 71.5 -22t38.5 -60q10 38 39.5 60t72.5 22q60 0 89 -40t29 -106q0 -18 -3 -39h-7z" />
    <glyph glyph-name="uni0964" unicode="&#x964;" horiz-adv-x="235" 
d="M150 741h65v-741h-65v741z" />
    <glyph glyph-name="uni0965" unicode="&#x965;" horiz-adv-x="431" 
d="M346 741h65v-741h-65v741zM150 741h65v-741h-65v741z" />
    <glyph glyph-name="uni0966" unicode="&#x966;" horiz-adv-x="632" 
d="M315 733q59 0 102.5 -19t70 -51t42.5 -80.5t22 -99.5t6 -116t-6 -116t-22 -99.5t-42.5 -80.5t-70 -51t-102.5 -19t-102.5 19t-70 51t-42.5 80.5t-22 99.5t-6 116t6 116t22 99.5t42.5 80.5t70 51t102.5 19zM315 673q-46 0 -79 -17.5t-51.5 -44t-29 -69t-13.5 -82t-3 -93.5
t3 -93.5t13.5 -82t29 -69t51.5 -44t79 -17.5t79 17.5t51.5 44t29 69t13.5 82t3 93.5t-3 93.5t-13.5 82t-29 69t-51.5 44t-79 17.5z" />
    <glyph glyph-name="uni0967" unicode="&#x967;" horiz-adv-x="295" 
d="M130 0v650h-71v60h136v-710h-65z" />
    <glyph glyph-name="uni0968" unicode="&#x968;" horiz-adv-x="581" 
d="M61 10v48l68.5 59l69.5 60l62.5 56.5t60 59t48 56t40.5 58.5q32 63 32 123.5t-36 103t-114 42.5t-119.5 -47t-45.5 -123h-66q5 110 67 170t160.5 60t159.5 -55.5t61 -156.5q0 -44 -18 -91.5t-41 -83t-66 -82t-69.5 -71l-77.5 -69l-65 -57.5h361v-60h-472z" />
    <glyph glyph-name="uni0969" unicode="&#x969;" horiz-adv-x="585" 
d="M136 699.5q64 47.5 161 47.5t154.5 -52.5t57.5 -133.5q0 -57 -33.5 -102t-89.5 -62v-5q64 -16 100 -67t36 -133t-59 -139t-163.5 -57t-170.5 52.5t-76 146.5h65q7 -60 54.5 -99.5t125 -39.5t119 41t41.5 107q0 87 -55.5 123.5t-166.5 36.5h-22v59h23q207 1 207 131
q0 61 -39 97t-110.5 36t-114 -30.5t-51.5 -87.5h-67q10 83 74 130.5z" />
    <glyph glyph-name="uni096A" unicode="&#x96a;" horiz-adv-x="623" 
d="M426 230v435l-298 -435h298zM426 0v170h-382v45l351 505h96v-490h102v-60h-102v-170h-65z" />
    <glyph glyph-name="uni096B" unicode="&#x96b;" horiz-adv-x="630" 
d="M89 731h427v-60h-362v-256q23 37 72 62t108 25t106.5 -21.5t73.5 -58.5q49 -72 49 -175t-61.5 -175t-173 -72t-175 51.5t-80.5 138.5h65q17 -61 64.5 -95.5t117.5 -34.5q88 0 133 53.5t45 140.5q0 187 -178 187q-59 0 -102.5 -31t-66.5 -85h-62v406z" />
    <glyph glyph-name="uni096C" unicode="&#x96c;" horiz-adv-x="646" 
d="M468.5 375.5q-43.5 48.5 -123 48.5t-135 -45t-55.5 -131t46.5 -137t132.5 -51t132 48t46 133.5t-43.5 134zM338 687q-99 0 -146 -71t-50 -247q27 54 82.5 85t127.5 31q100 0 162 -65.5t62 -174t-59 -177t-174 -68.5q-66 0 -113.5 21t-75 54t-43.5 86t-21 105t-5 123
q0 168 61.5 263t191.5 95q92 0 147.5 -49.5t64.5 -121.5h-62q-14 58 -49.5 84.5t-100.5 26.5z" />
    <glyph glyph-name="uni096D" unicode="&#x96d;" horiz-adv-x="560" 
d="M40 730h482v-53l-293 -677h-78l306 670h-417v60z" />
    <glyph glyph-name="uni096E" unicode="&#x96e;" horiz-adv-x="631" 
d="M448.5 317q-51.5 39 -133 39t-133 -39t-51.5 -115.5t50 -119.5t134.5 -43t134.5 43t50 119.5t-51.5 115.5zM315 691q-78 0 -121.5 -36t-43.5 -99.5t46 -102t119.5 -38.5t119.5 38.5t46 102t-44 99.5t-122 36zM85 556q0 86 60 140.5t170.5 54.5t170.5 -54.5t60 -140.5
q0 -59 -31.5 -104t-81.5 -65q59 -18 95.5 -68t36.5 -121q0 -100 -68 -159.5t-181.5 -59.5t-181.5 59.5t-68 159.5q0 72 36 121.5t96 67.5q-113 52 -113 169z" />
    <glyph glyph-name="uni096F" unicode="&#x96f;" horiz-adv-x="634" 
d="M198 383q45 -48 127 -48t124 46.5t42 127.5t-45 129.5t-123 48.5t-124 -48t-46 -128t45 -128zM335 61q87 0 128 67.5t41 237.5q-57 -92 -184 -92q-97 0 -164.5 64t-67.5 171t62 172.5t180 65.5t175 -88.5t57 -280.5t-51.5 -284.5t-178.5 -92.5q-96 0 -153.5 50t-69.5 126
h63q26 -116 163 -116z" />
    <glyph glyph-name="uni0970" unicode="&#x970;" horiz-adv-x="486" 
d="M330.5 324.5q-27.5 28.5 -74 28.5t-76.5 -27.5t-30 -71.5t30.5 -72.5t76 -28.5t73.5 27.5t28 71.5t-27.5 72.5zM139 365.5q45 43.5 117.5 43.5t115.5 -44t43 -113t-44.5 -112t-115 -43t-116 45.5t-45.5 112.5t45 110.5z" />
    <glyph glyph-name="uni0972" unicode="&#x972;" horiz-adv-x="822" 
d="M657 399v341h205v-60h-140v-680h-65v344h-175q24 -39 24 -90q0 -92 -57.5 -147t-150.5 -55t-152.5 55t-59.5 146h60q0 -66 42.5 -106t110 -40t107.5 40t40 106t-40 99t-110 33h-40v60h33q62 0 103.5 32t41.5 90.5t-38.5 93t-100.5 34.5t-101.5 -35t-39.5 -93h-60
q0 83 56.5 133t143.5 50t143.5 -50t56.5 -133q0 -112 -109 -146v-6q23 -6 40 -16h232zM812 970h60q0 -73 -44 -120.5t-136 -47.5t-136 47.5t-44 120.5h60q0 -47 30 -80t90 -33t90 33t30 80z" />
    <glyph glyph-name="uni200B" unicode="&#x200b;" horiz-adv-x="0" 
 />
    <glyph glyph-name="afii61664" unicode="&#x200c;" horiz-adv-x="0" 
d="M24 -230h-47v1041h47v-1041z" />
    <glyph glyph-name="afii301" unicode="&#x200d;" horiz-adv-x="0" 
d="M24 -230h-47v865l-69 -73l-33 33l93 93l-95 95l33 33l95 -95l96 95l32 -32l-96 -96l96 -95l-33 -33l-72 75v-865z" />
    <glyph glyph-name="endash" unicode="&#x2013;" horiz-adv-x="719" 
d="M100 340v60h519v-60h-519z" />
    <glyph glyph-name="emdash" unicode="&#x2014;" horiz-adv-x="919" 
d="M100 340v60h719v-60h-719z" />
    <glyph glyph-name="quoteleft" unicode="&#x2018;" horiz-adv-x="131" 
d="M110 580h-81q-9 49 -9 95q0 93 91 93v-38q-46 0 -46 -49v-25h45v-76z" />
    <glyph glyph-name="quoteright" unicode="&#x2019;" horiz-adv-x="131" 
d="M21 768h81q9 -50 9 -96q0 -92 -91 -92v38q46 0 46 49v25h-45v76z" />
    <glyph glyph-name="quotesinglbase" unicode="&#x201a;" horiz-adv-x="172" 
d="M41 56h81q20 -103 -1 -145.5t-81 -42.5v38q46 0 46 49v25h-45v76z" />
    <glyph glyph-name="quotedblleft" unicode="&#x201c;" horiz-adv-x="252" 
d="M231 580h-81q-9 49 -9 95q0 93 91 93v-38q-46 0 -46 -49v-25h45v-76zM110 580h-81q-9 49 -9 95q0 93 91 93v-38q-46 0 -46 -49v-25h45v-76z" />
    <glyph glyph-name="quotedblright" unicode="&#x201d;" horiz-adv-x="252" 
d="M21 768h81q9 -50 9 -96q0 -92 -91 -92v38q46 0 46 49v25h-45v76zM142 768h81q9 -50 9 -96q0 -92 -91 -92v38q46 0 46 49v25h-45v76z" />
    <glyph glyph-name="quotedblbase" unicode="&#x201e;" horiz-adv-x="172" 
d="M41 56h81q20 -103 -1 -145.5t-81 -42.5v38q46 0 46 49v25h-45v76z" />
    <glyph glyph-name="dagger" unicode="&#x2020;" horiz-adv-x="529" 
d="M291 538l189 8v-57l-189 8l8 -755h-69l8 755l-189 -8v57l189 -8l-8 241h69z" />
    <glyph glyph-name="daggerdbl" unicode="&#x2021;" horiz-adv-x="531" 
d="M481 546v-57l-189 8v-473l189 8v-57l-189 8l8 -241h-69l8 241l-189 -8v57l189 -8v473l-189 -8v57l189 -8l-8 241h69l-8 -241z" />
    <glyph glyph-name="bullet" unicode="&#x2022;" horiz-adv-x="431" 
d="M297.5 251.5q-33.5 -33.5 -82 -33.5t-82 33.5t-33.5 82t33.5 82t82 33.5t82 -33.5t33.5 -82t-33.5 -82z" />
    <glyph glyph-name="ellipsis" unicode="&#x2026;" horiz-adv-x="568" 
d="M109 0q-20 0 -34.5 14.5t-14.5 34.5t14.5 34.5t34.5 14.5t34.5 -14.5t14.5 -34.5t-14.5 -34.5t-34.5 -14.5zM459 0q-20 0 -34.5 14.5t-14.5 34.5t14.5 34.5t34.5 14.5t34.5 -14.5t14.5 -34.5t-14.5 -34.5t-34.5 -14.5zM284 0q-20 0 -34.5 14.5t-14.5 34.5t14.5 34.5
t34.5 14.5t34.5 -14.5t14.5 -34.5t-14.5 -34.5t-34.5 -14.5z" />
    <glyph glyph-name="perthousand" unicode="&#x2030;" horiz-adv-x="970" 
d="M779.5 230q-74.5 0 -74.5 -97.5t74.5 -97.5t74.5 97.5t-74.5 97.5zM640 133q0 64 39.5 103t100.5 39t100.5 -39t39.5 -103t-39.5 -103.5t-100.5 -39.5t-100.5 39.5t-39.5 103.5zM459.5 230q-74.5 0 -74.5 -97.5t74.5 -97.5t74.5 97.5t-74.5 97.5zM320 133q0 64 39.5 103
t100.5 39t100.5 -39t39.5 -103t-39.5 -103.5t-100.5 -39.5t-100.5 39.5t-39.5 103.5zM84 0l410 690h71l-410 -690h-71zM189.5 655q-74.5 0 -74.5 -97.5t74.5 -97.5t74.5 97.5t-74.5 97.5zM50 558q0 64 39.5 103t100.5 39t100.5 -39t39.5 -103t-39.5 -103.5t-100.5 -39.5
t-100.5 39.5t-39.5 103.5z" />
    <glyph glyph-name="guilsinglleft" unicode="&#x2039;" 
d="M113 295l102 -175h-71l-99 175l99 175h71z" />
    <glyph glyph-name="guilsinglright" unicode="&#x203a;" 
d="M121 120h-71l102 175l-102 175h71l99 -175z" />
    <glyph glyph-name="fraction" unicode="&#x2044;" horiz-adv-x="600" 
d="M84 0l410 690h71l-410 -690h-71z" />
    <glyph glyph-name="uni20A8" unicode="&#x20a8;" horiz-adv-x="1099" 
d="M876 467.5q-32 32.5 -89 32.5t-89.5 -28t-32.5 -67.5t24 -62.5t60.5 -31t79 -19t79 -23.5t60.5 -45t24 -83.5q0 -66 -55 -108t-144.5 -42t-141.5 46t-57 125h72q2 -51 36 -83t93.5 -32t92.5 25.5t33 65.5t-24 63t-60.5 31.5t-79 19.5t-79 23t-60.5 43t-24 78
q0 68 56 114.5t143 46.5t135.5 -45.5t53.5 -125.5h-72q-2 50 -34 82.5zM75 690h211q116 0 176 -55.5t60 -140.5t-47 -137.5t-140 -64.5l196 -292h-91l-187 289h-108v-289h-70v690zM145 633v-287h141q165 0 165 143.5t-165 143.5h-141z" />
    <glyph glyph-name="Euro" unicode="&#x20ac;" horiz-adv-x="795" 
d="M462 232h-260q30 -83 99.5 -130.5t153 -47.5t143.5 33.5t92 94.5h85q-42 -92 -124.5 -140t-194.5 -48t-203 65t-125 173h-98v57h85q-4 24 -4 56.5t4 56.5h-85v57h98q35 108 125.5 173t202.5 65t194.5 -48t124.5 -140h-85q-32 61 -92 94t-143.5 33t-153 -47t-99.5 -130
h260v-57h-275q-4 -36 -4 -62.5t4 -50.5h275v-57z" />
    <glyph glyph-name="uni20B9" unicode="&#x20b9;" horiz-adv-x="612" 
d="M446 633v-56q0 -41 -2 -59h142v-57h-147q-17 -102 -79 -138t-204 -36v-91q0 -149 131 -149t131 142h63q-2 -99 -51.5 -149t-144 -50t-145 56t-50.5 150v144q166 0 219.5 20.5t65.5 100.5h-333v57h337q1 19 1 63v52h-338v57h544v-57h-140z" />
    <glyph glyph-name="uni20BA" unicode="&#x20ba;" horiz-adv-x="865" 
d="M646 406h72q0 -213 -87 -319.5t-273 -106.5q-70 0 -149 21v240l-168 -45v60l168 44v107l-173 -45v58l173 46v231h72v-212l187 49v-59l-187 -49v-107l178 47v-58l-178 -48v-209q33 -7 78 -7q147 0 217 89.5t70 272.5z" />
    <glyph glyph-name="uni20BD" unicode="&#x20bd;" horiz-adv-x="602" 
d="M326 289h-141v-99h234v-60h-234v-130h-70v130h-85v60h85v99h-84v57h84v344h211q116 0 176 -55.5t60 -145.5t-59.5 -145t-176.5 -55zM185 633v-287h141q165 0 165 143.5t-165 143.5h-141z" />
    <glyph glyph-name="afii61289" unicode="&#x2113;" horiz-adv-x="220" 
d="M75 0v740h70v-740h-70z" />
    <glyph glyph-name="trademark" unicode="&#x2122;" horiz-adv-x="757" 
d="M687 704v-352h-58v243l-113 -243h-43l-112 243v-243h-58v352h64l128 -280l128 280h64zM20 661v43h219v-43h-81v-309h-58v309h-80z" />
    <glyph glyph-name="uni2126" unicode="&#x2126;" horiz-adv-x="782" 
d="M55 57h153q-78 38 -123 116.5t-45 171.5q0 153 101.5 252.5t249.5 99.5t249.5 -99.5t101.5 -252.5q0 -93 -45 -171.5t-123 -116.5h153v-57h-276v59q98 19 159 96t61 199t-79.5 202t-201 80t-200.5 -80.5t-79 -202t61 -198.5t159 -96v-59h-276v57z" />
    <glyph glyph-name="estimated" unicode="&#x212e;" horiz-adv-x="764" 
d="M170 371h413v179q-68 96 -205 96t-208 -108v-167zM686 137q-134 -144 -290 -144t-251 89t-95 248t88.5 263t242.5 104t243.5 -95.5t89.5 -227.5v-61h-544v-164q80 -106 221 -106q73 0 132 32.5t127 99.5z" />
    <glyph glyph-name="partialdiff" unicode="&#x2202;" horiz-adv-x="559" 
d="M40 216q0 133 79 236.5t196 103.5q90 0 134 -81q-4 99 -44.5 158t-113.5 59q-40 0 -80 -11v46q46 13 90 13q107 0 162.5 -83t55.5 -243q0 -191 -86 -307.5t-213 -116.5q-80 0 -130 57.5t-50 168.5zM436 323q0 85 -34 131t-95 46q-81 0 -138.5 -83t-57.5 -201
q0 -84 31.5 -127t88.5 -43q81 0 143 83.5t62 193.5z" />
    <glyph glyph-name="uni2206" unicode="&#x2206;" horiz-adv-x="666" 
d="M575 55l-243 555l-241 -555h484zM646 0h-626v55l283 635h59l284 -635v-55z" />
    <glyph glyph-name="product" unicode="&#x220f;" horiz-adv-x="736" 
d="M40 633v57h656v-57h-81v-633h-69v633h-356v-633h-69v633h-81z" />
    <glyph glyph-name="summation" unicode="&#x2211;" horiz-adv-x="436" 
d="M396 690v-55h-295l267 -296v-55l-267 -289h295v-55h-356v80l269 290l-269 300v80h356z" />
    <glyph glyph-name="minus" unicode="&#x2212;" horiz-adv-x="589" 
d="M100 340v60h389v-60h-389z" />
    <glyph glyph-name="uni2215" unicode="&#x2215;" horiz-adv-x="562" 
d="M101 -166l274 1106h71l-275 -1106h-70z" />
    <glyph glyph-name="uni2219" unicode="&#x2219;" horiz-adv-x="218" 
d="M109 300q-20 0 -34.5 14.5t-14.5 34.5t14.5 34.5t34.5 14.5t34.5 -14.5t14.5 -34.5t-14.5 -34.5t-34.5 -14.5z" />
    <glyph glyph-name="radical" unicode="&#x221a;" horiz-adv-x="750" 
d="M681 859h64l-484 -903h-39l-118 207l-60 -36l-22 39l116 70l107 -189z" />
    <glyph glyph-name="infinity" unicode="&#x221e;" horiz-adv-x="643" 
d="M576 450.5q42 -38.5 42 -103t-42.5 -103.5t-104.5 -39q-42 0 -77 26t-73 73q-24 -44 -65 -72t-95 -27t-95 39t-41 103t42.5 104t104.5 39q42 0 77 -26t73 -73q24 44 65 72t94 27t95 -39.5zM111 284.5q23 -22.5 59 -22.5t67.5 22.5t52.5 58.5q-34 44 -61 67t-61 23
t-57 -23t-23 -63t23 -62.5zM413.5 285q26.5 -23 61 -23t57.5 23t23 63t-23 62.5t-59 22.5t-67.5 -22.5t-52.5 -58.5q34 -44 60.5 -67z" />
    <glyph glyph-name="integral" unicode="&#x222b;" horiz-adv-x="253" 
d="M274 911h25l-6 -55h-16q-30 0 -45 -16.5t-19 -57.5l-93 -832q-8 -68 -38.5 -98.5t-92.5 -30.5h-25l6 55h16q30 0 45 17t19 57l93 832q8 68 38.5 98.5t92.5 30.5z" />
    <glyph glyph-name="approxequal" unicode="&#x2248;" horiz-adv-x="491" 
d="M87 519q35 31 79 31t88.5 -32t70.5 -32t47.5 16.5t25.5 43.5h53q-12 -62 -47 -93t-79 -31t-88 32t-70.5 32t-48 -16.5t-25.5 -43.5h-53q12 62 47 93zM87 319q35 31 79 31t88.5 -32t70.5 -32t47.5 16.5t25.5 43.5h53q-12 -62 -47 -93t-79 -31t-88 32t-70.5 32t-48 -16.5
t-25.5 -43.5h-53q12 62 47 93z" />
    <glyph glyph-name="notequal" unicode="&#x2260;" horiz-adv-x="770" 
d="M639 503v-60h-149l-136 -146h285v-60h-341l-94 -100h-74l93 100h-93v60h149l137 146h-286v60h342l93 100h75l-94 -100h93z" />
    <glyph glyph-name="lessequal" unicode="&#x2264;" horiz-adv-x="550" 
d="M450 602l-252 -194l252 -194h-98l-252 194l252 194h98zM100 120v51h346v-51h-346z" />
    <glyph glyph-name="greaterequal" unicode="&#x2265;" horiz-adv-x="550" 
d="M104 120v51h346v-51h-346zM198 214h-98l252 194l-252 194h98l252 -194z" />
    <glyph glyph-name="lozenge" unicode="&#x25ca;" horiz-adv-x="551" 
d="M431 349l-155 156l-156 -156l155 -156zM40 349l236 236l235 -236l-236 -236z" />
    <glyph glyph-name="uni25CC" unicode="&#x25cc;" horiz-adv-x="660" 
d="M257 560q0 20 12.5 32t31.5 12t31.5 -12t12.5 -32t-12.5 -32t-31.5 -12t-31.5 12t-12.5 32zM396 514q-13 13 -13 31.5t12.5 31.5t32 13t31.5 -12.5t12 -31.5t-12.5 -32t-31 -13t-31.5 13zM478 477q0 19 12.5 32t31.5 13t31.5 -12.5t12.5 -32t-12.5 -32t-31.5 -12.5
t-31.5 12.5t-12.5 31.5zM528 359q0 19 12 31.5t31.5 12.5t32 -12.5t12.5 -31.5t-12.5 -31.5t-32 -12.5t-31.5 12.5t-12 31.5zM518 225q0 19 13 32t31.5 13t31 -13t12.5 -32t-12.5 -31.5t-31 -12.5t-31.5 12.5t-13 31.5zM445 127q0 19 12.5 31.5t31.5 12.5t32 -12.5t13 -31.5
t-13 -31.5t-32 -12.5t-31.5 12.5t-12.5 31.5zM324 74q0 20 12 32t32 12t32.5 -12.5t12.5 -31.5t-12.5 -31.5t-32.5 -12.5t-32 12t-12 32zM210 57q-13 13 -13 32t13 32t32 13t31.5 -13t12.5 -32t-12.5 -32t-31.5 -13t-32 13zM96 165q0 19 12.5 31.5t31.5 12.5t31.5 -12.5
t12.5 -31.5t-12.5 -31.5t-32 -12.5t-31.5 12.5t-12 31.5zM44 281q0 19 12.5 32t31.5 13t31.5 -12.5t12.5 -32t-12.5 -31.5t-31.5 -12t-31.5 12t-12.5 31zM57 407q0 19 13 31.5t32 12.5t32 -12.5t13 -31.5t-13 -31.5t-32 -12.5t-32 12.5t-13 31.5zM151.5 484.5
q-12.5 12.5 -12.5 32t12.5 32t31.5 12.5t31.5 -12.5t12.5 -32t-12.5 -32t-31.5 -12.5t-31.5 12.5z" />
    <glyph glyph-name="uniF6C3" unicode="&#xf6c3;" horiz-adv-x="111" 
d="M11 -50h81q9 -50 9 -96q0 -92 -91 -92v38q46 0 46 49v25h-45v76z" />
    <glyph glyph-name="uF01B6" unicode="&#xf01b6;" horiz-adv-x="765" 
d="M600 740h205v-60h-140v-680h-65v381h-272q-55 -27 -92.5 -51t-46 -34l-21.5 -26q-24 -28 -24 -73t31.5 -76t93 -31t94.5 35t33 90h57v-246h-65v121q-15 -24 -49 -42t-85 -18q-79 0 -127 45.5t-48 117.5q0 77 57 128q50 44 115 77q-70 15 -110.5 62.5t-40.5 122t55 121
t138.5 46.5t133 -49.5t49.5 -117.5q0 -87 -70 -144h194v301zM413 576q0 57 -33.5 86t-88.5 29t-91 -29.5t-36 -93.5t46 -96.5t116 -32.5q87 53 87 137z" />
    <glyph glyph-name="uF01B7" unicode="&#xf01b7;" horiz-adv-x="783" 
d="M-40 740h863v-60h-140v-680h-65v475h-214q94 -49 94 -159q0 -88 -52.5 -143.5t-142.5 -55.5q-60 0 -105 24t-65 58v-149h-65v286h61q6 -76 51.5 -117.5t114.5 -41.5t103.5 38t34.5 110t-53.5 111t-139.5 39h-1v57h379v148h-658v60z" />
    <glyph glyph-name="uF01B8" unicode="&#xf01b8;" horiz-adv-x="789" 
d="M943 680h-391v-198q50 89 167 89q102 0 162 -64t60 -168h-64q0 81 -43.5 126.5t-123 45.5t-119 -50.5t-39.5 -141.5v-319h-65v195q-54 -86 -174 -86q-100 0 -162.5 63.5t-62.5 166.5t62 167t163 64q120 0 174 -86v196h-527v60h983v-60zM197.5 213.5
q44.5 -44.5 124.5 -44.5t122.5 45.5t42.5 125.5t-43.5 125t-123.5 45t-123.5 -45t-43.5 -126t44.5 -125.5z" />
    <glyph glyph-name="uF01B9" unicode="&#xf01b9;" horiz-adv-x="656" 
d="M337 680v-99q0 -135 -38.5 -181.5t-148.5 -46.5v-123q0 -87 42 -129t119 -42q153 0 176 110q-103 50 -103 180q0 95 58.5 149.5t154.5 54.5t154.5 -54.5t58.5 -149.5t-58.5 -149.5t-154.5 -54.5q-28 0 -48 4q-19 -72 -81 -111t-148 -39q-108 0 -171.5 61t-63.5 168v179
h37q55 0 80 3.5t44 22.5t23 51.5t4 97.5v98h-316v60h853v-60h-473zM704.5 454q-40.5 39 -107.5 39t-107.5 -39t-40.5 -105t40.5 -105t107.5 -39t107.5 39t40.5 105t-40.5 105z" />
    <glyph glyph-name="uF01BA" unicode="&#xf01ba;" horiz-adv-x="422" 
d="M472 740v-60h-171v-255q0 -95 -31.5 -141.5t-106.5 -46.5t-110 49.5t-31 138.5h64q0 -61 9.5 -85.5t25.5 -33.5t41 -9t41 9t23 29q11 31 11 90v255h-277v60h512z" />
    <glyph glyph-name="uF01BB" unicode="&#xf01bb;" horiz-adv-x="411" 
d="M529 355h59q0 -122 -73.5 -183.5t-184.5 -61.5t-181.5 47t-70.5 135q0 55 28.5 94t75.5 59v6q-52 23 -69 67t-17 124v38h-136v60h627v-60h-425v-38q0 -95 28.5 -131t115.5 -36h33v-59h-33q-72 0 -117.5 -31t-45.5 -94.5t52 -92t139 -28.5t141 47.5t54 137.5z" />
    <glyph glyph-name="uF01BC" unicode="&#xf01bc;" horiz-adv-x="662" 
d="M-40 740h725v-60h-216v-179h-164q-67 0 -105 -19t-38 -73.5t35.5 -73.5t94 -19t93.5 -5.5t71 -20.5q73 -33 73 -134q0 -72 -56 -119t-157.5 -47t-167 55.5t-66.5 156.5h64q10 -152 175 -152q67 0 105 27.5t38 84.5q0 64 -48 82q-37 14 -101 14q-104 0 -161 33.5
t-57 118.5q0 151 207 151h100v119h-444v60zM566 433q20 0 34.5 -14.5t14.5 -34.5t-14.5 -34.5t-34.5 -14.5t-34.5 14.5t-14.5 34.5t14.5 34.5t34.5 14.5zM283 -83h65l110 -152h-76z" />
    <glyph glyph-name="uF01BD" unicode="&#xf01bd;" horiz-adv-x="467" 
d="M-40 740h658v-60h-658v60zM411 474h-26q-82 0 -129.5 -42t-47.5 -115t47.5 -113t130 -40t126 50.5t43.5 134.5h62q0 -109 -61.5 -177t-168 -68t-175 57.5t-68.5 153.5q0 112 87 159h-182v57h362v-57z" />
    <glyph glyph-name="uF01BE" unicode="&#xf01be;" horiz-adv-x="817" 
d="M857 680h-689v-52q0 -104 29.5 -143t122.5 -39h12v-60h-12q-81 0 -128 -34.5t-47 -102.5q0 -44 22.5 -76t61.5 -49q73 -32 180 -32q135 0 216 65t81 197q0 84 -32 122t-86 38q-28 0 -47 -7t-37 -27q-37 -43 -35 -170h-60q-3 260 179 264q83 0 130.5 -61.5t47.5 -165.5
q0 -146 -97 -230.5t-260 -84.5q-90 0 -161 20t-119 71t-48 119q0 131 119 174v6q-58 18 -77.5 67t-19.5 145v46h-143v60h897v-60z" />
    <glyph glyph-name="uF01BF" unicode="&#xf01bf;" horiz-adv-x="559" 
d="M-40 740h761v-60h-761v60zM720 518v-58h-268v-84q0 -160 -50 -217q-46 -53 -139 -53q-135 0 -171 113q-18 60 -18 157v142h65v-120q0 -134 15 -167q23 -47 57 -58q22 -7 52 -7t52 7t35.5 24.5t21 33.5t10.5 49q5 42 5 118v120h333z" />
    <glyph glyph-name="uF01C0" unicode="&#xf01c0;" horiz-adv-x="560" 
d="M483 511h-164q-91 0 -115 -19q-28 -21 -28 -67.5t31 -64t90 -17.5h408v-53h-239q23 -11 39.5 -38t16.5 -60q0 -66 -48 -112t-138 -46q-55 0 -99.5 22.5t-66.5 57.5v-144h-65v261h65q4 -63 46.5 -100.5t111.5 -37.5q129 0 129 105q0 47 -25 69q-25 21 -107 21
q-131 0 -173 38q-41 35 -41 104q0 89 65 118q55 23 142 23h100v109h-458v60h745v-60h-222v-169z" />
    <glyph glyph-name="uF01C1" unicode="&#xf01c1;" horiz-adv-x="554" 
d="M-40 740h718v-60h-718v60zM135 540.5q55 48.5 155 48.5t156.5 -57.5t65.5 -148.5h166v-58h-166q-7 -93 -63.5 -152.5t-157.5 -59.5t-156 48.5t-69 116.5h66q11 -44 50 -74.5t112.5 -30.5t113.5 47t40 131t-40 131t-113.5 47t-112.5 -30.5t-50 -74.5h-66q14 68 69 116.5z
" />
    <glyph glyph-name="uF01C2" unicode="&#xf01c2;" horiz-adv-x="663" 
d="M502 -185h-76l-99 152h65zM444 506h-65q-109 -1 -172.5 -51t-63.5 -145t55.5 -148.5t146.5 -53.5t143.5 53.5t52.5 145.5h65q0 -117 -72 -188t-189 -71t-192 71t-75 191.5t83 187.5t218 68v114h-419v60h743v-60h-259v-174z" />
    <glyph glyph-name="uF01C3" unicode="&#xf01c3;" horiz-adv-x="669" 
d="M345 506q-89 0 -144 -54.5t-55 -142.5t55 -142.5t144 -54.5t144 54.5t55 142.5t-55 142.5t-144 54.5zM544.5 483.5q64.5 -69.5 64.5 -179t-74 -180.5t-190 -71t-190 71t-74 180.5t64 178.5t167 80v117h-352v60h749v-60h-332v-117q103 -10 167.5 -79.5zM491 -185h-76
l-99 152h65z" />
    <glyph glyph-name="uF01C4" unicode="&#xf01c4;" horiz-adv-x="586" 
d="M469 501h-164q-67 0 -105 -19t-38 -73.5t35.5 -73.5t94 -19t93.5 -5.5t71 -20.5q73 -33 73 -134q0 -72 -56 -119t-157.5 -47t-167 55.5t-66.5 156.5h64q10 -152 175 -152q67 0 105 27.5t38 84.5q0 64 -48 82q-37 14 -101 14q-104 0 -161 33.5t-57 118.5q0 151 207 151
h100v119h-444v60h666v-60h-157v-179zM287 -83h65l110 -152h-76z" />
    <glyph glyph-name="uF01C5" unicode="&#xf01c5;" horiz-adv-x="633" 
d="M470 517h-65q-121 1 -191.5 -57t-70.5 -166.5t64.5 -165t164.5 -56.5q74 0 113 35.5t39 88.5q0 115 -103 115q-100 0 -100 -118h-64q0 77 41.5 127t119.5 50t124.5 -45t46.5 -127t-59.5 -134t-158.5 -52q-128 0 -210.5 75t-82.5 201q0 98 46 165q85 126 281 124v103h-445
v60h713v-60h-203v-163zM361 -63h65l110 -152h-76z" />
    <glyph glyph-name="uF01C6" unicode="&#xf01c6;" horiz-adv-x="591" 
d="M631 740v-60h-139v-261q0 -117 -45.5 -179.5t-149.5 -62.5t-149.5 62.5t-45.5 179.5v261h-142v60h671zM427 418v262h-260v-262q0 -91 27 -136t103 -45t103 45t27 136z" />
    <glyph glyph-name="uF01C7" unicode="&#xf01c7;" horiz-adv-x="357" 
d="M513 680h-553v60h553v-60zM513 499v-60h-163q-101 0 -160.5 -45t-59.5 -143t49 -146.5t159 -48.5v-58h-8q-136 0 -201 68.5t-65 189.5t77 182t209 61h163z" />
    <glyph glyph-name="uF01C8" unicode="&#xf01c8;" horiz-adv-x="480" 
d="M587 349h58q0 -112 -71.5 -181t-191.5 -69q-149 0 -222.5 97.5t-54.5 248.5q64 -2 90 -2q113 0 165.5 26t52.5 105q0 54 -30 85t-86.5 31t-86 -37.5t-27.5 -100.5h-65q-2 88 47 143t131.5 55t132 -49.5t49.5 -130.5q0 -118 -96 -154q-83 -31 -212 -27q-5 -105 49 -167.5
t155.5 -62.5t157 52t55.5 138z" />
    <glyph glyph-name="uF01C9" unicode="&#xf01c9;" horiz-adv-x="592" 
d="M514 8h-65v154q-19 -27 -58 -42.5t-86 -15.5q-108 0 -175 62.5t-67 164.5q0 124 80.5 181t221.5 57h44v111h-449v60h672v-60h-158v-171h-97q-114 0 -177 -33q-71 -38 -71 -145q0 -83 48.5 -125t123 -42t114.5 32.5t40 105.5h59v-294zM631 -214h-76l-99 152h65z" />
    <glyph glyph-name="uF01CA" unicode="&#xf01ca;" horiz-adv-x="417" 
d="M262 690q-47 0 -74.5 -27.5t-27.5 -74.5q0 -66 44.5 -98.5t120.5 -32.5h48v-59h-48q-72 0 -117.5 -26.5t-45.5 -85t49.5 -87.5t129.5 -29t133 43.5t53 136.5h60q0 -118 -69.5 -179t-177 -61t-175.5 45.5t-68 131.5q0 103 104 140v6q-47 19 -76.5 59t-29.5 94q0 72 46 118
t123 46t120.5 -50.5t38.5 -131.5h-62q3 122 -99 122z" />
    <glyph glyph-name="uF01CB" unicode="&#xf01cb;" horiz-adv-x="502" 
d="M654 680h-694v60h694v-60zM654 487v-58h-269q71 -38 71 -136q0 -79 -51.5 -131t-137 -52t-143 51.5t-57.5 138.5t56.5 137t166.5 50h364zM357 392q-35 36 -92 36t-95 -34.5t-38 -97t39 -95t93.5 -32.5t91 34t36.5 93.5t-35 95.5z" />
    <glyph glyph-name="uF01CC" unicode="&#xf01cc;" horiz-adv-x="379" 
d="M478 444h62q0 -108 -59.5 -171.5t-168 -63.5t-164 66.5t-55.5 180.5v224h-133v60h582v-60h-384v-220q0 -191 160 -191q80 0 120 45.5t40 129.5z" />
    <glyph glyph-name="uF01CD" unicode="&#xf01cd;" horiz-adv-x="769" 
d="M531 680v-227q55 90 179 90q97 0 156.5 -61.5t59.5 -160.5h-65q0 78 -41.5 120t-120 42t-123.5 -53t-45 -136v-294h-65v330q-51 -84 -156 -84t-157 67t-52 177v190h-141v60h965v-60h-394zM166 680v-189q0 -92 35 -138.5t110.5 -46.5t115 53t39.5 129v192h-300z" />
    <glyph glyph-name="uF01CE" unicode="&#xf01ce;" horiz-adv-x="428" 
d="M324 584q114 0 188 -67t74 -178t-74 -178t-188 -67t-188 67t-74 178t74 178t188 67zM521 339q0 86 -54.5 135.5t-137.5 49.5t-136 -39l303 -244q25 42 25 98zM127 339q0 -86 54.5 -135.5t141.5 -49.5t139 46l-305 246q-30 -46 -30 -107zM585 740v-60h-625v60h625z" />
    <glyph glyph-name="uF01CF" unicode="&#xf01cf;" horiz-adv-x="522" 
d="M663 448v-58h-216v-64q0 -216 -172 -216q-75 0 -126.5 48t-51.5 128q0 162 231 162h55v93q0 69 -22 106.5t-77.5 37.5t-77 -37.5t-21.5 -111.5h-63q0 209 162.5 209t162.5 -204v-93h216zM383 326v64h-62q-78 0 -118.5 -24t-40.5 -88q0 -48 31.5 -78.5t87 -30.5t79 38.5
t23.5 118.5z" />
    <glyph glyph-name="uF01D0" unicode="&#xf01d0;" horiz-adv-x="508" 
d="M661 680h-261v-229h261v-58h-261v-64q0 -216 -172 -216q-75 0 -126.5 48t-51.5 128q0 162 231 162h55v229h-376v60h701v-60zM336 329v64h-62q-78 0 -118.5 -24t-40.5 -88q0 -48 31.5 -78.5t87 -30.5t79 38.5t23.5 118.5z" />
    <glyph glyph-name="uF01D1" unicode="&#xf01d1;" horiz-adv-x="457" 
d="M337 680v-36q0 -64 -6.5 -103.5t-26.5 -74.5q-37 -65 -164 -71q-2 -99 53.5 -160t156 -61t152 61.5t51.5 173.5h62q0 -134 -69 -214.5t-204 -80.5t-206.5 89.5t-64.5 246.5q63 0 90 5.5t41.5 9t25.5 13l18.5 16t12.5 21t7.5 24.5t4 31t1.5 34v76h-312v60h656v-60h-279z
" />
    <glyph glyph-name="uF01D2" unicode="&#xf01d2;" horiz-adv-x="524" 
d="M441 680v-56q0 -92 -11 -143.5t-45.5 -82.5t-86 -40t-144.5 -9v-136q0 -154 125 -154q64 0 94.5 40t30.5 111h66q0 -95 -50.5 -153t-141.5 -58t-140.5 59t-49.5 155v194q161 0 200 8q55 12 71 54t16 159v52h-415v60h604v-60h-123zM256 -76h65l110 -152h-76z" />
    <glyph glyph-name="uF01D3" unicode="&#xf01d3;" horiz-adv-x="707" 
d="M828 271h-65q0 180 -133 180q-147 0 -140 -220h-64q7 220 -141 220q-133 0 -133 -179q0 -93 50 -145.5t149 -45.5v-60q-120 -12 -192 57.5t-72 192.5q0 240 198 240q65 0 111 -33t62 -93q16 58 60 92t105.5 34t101.5 -19.5t61 -53.5q42 -67 42 -167zM827 680h-867v60h867
v-60z" />
    <glyph glyph-name="uF01D4" unicode="&#xf01d4;" horiz-adv-x="390" 
d="M124 339q0 -81 48.5 -128.5t130.5 -47.5t130.5 47.5t48.5 128.5t-48.5 128.5t-130.5 47.5t-130.5 -47.5t-48.5 -128.5zM59 339q0 107 68 171.5t176 64.5t176 -64.5t68 -171.5t-68 -171.5t-176 -64.5t-176 64.5t-68 171.5zM547 680h-587v60h587v-60z" />
    <glyph glyph-name="uF01D5" unicode="&#xf01d5;" horiz-adv-x="562" 
d="M166.5 682.5q54.5 67.5 151 67.5t151.5 -56t55 -141q0 -126 -82 -173q-71 -40 -192 -40q-21 0 -65 2v-145q0 -68 34.5 -103t99.5 -35t94.5 41t31.5 120h66q-6 -221 -196 -221q-90 0 -143 51.5t-53 146.5v201h113q87 0 126 12t58 28q43 36 43 107.5t-36 108t-105 36.5
t-104 -48.5t-33 -126.5h-64q-5 100 49.5 167.5z" />
    <glyph glyph-name="uF01D6" unicode="&#xf01d6;" horiz-adv-x="384" 
d="M516 680h-358v-6l357 -293q0 -71 -51 -121.5t-142 -50.5q-110 0 -169.5 66.5t-59.5 180.5v224h-133v60h556v-60zM158 460q0 -191 164 -191q58 0 93 27t41 68l-298 244v-148z" />
    <glyph glyph-name="uF01D7" unicode="&#xf01d7;" horiz-adv-x="523" 
d="M88 425l45 -1q54 0 89 4t60.5 17t39 28.5t21.5 48.5q12 51 12 158h-395v60h716v-60h-257q-2 -112 -16.5 -170.5t-52.5 -85.5h326v-55h-522v-156q0 -154 120 -154q65 0 93 43t27 128h66q4 -107 -44.5 -169t-140.5 -62t-139.5 58.5t-47.5 155.5v212z" />
    <glyph glyph-name="uF01D8" unicode="&#xf01d8;" horiz-adv-x="608" 
d="M483 500h-176q-59 0 -95.5 -22.5t-36.5 -67.5q0 -62 76 -88q35 8 69 8q90 0 150 -46t67 -111h-65q-26 97 -152 97q-73 0 -116.5 -42t-43.5 -108.5t43.5 -109t116.5 -42.5q126 0 152 97h65q-7 -65 -67 -111t-155 -46t-157.5 58.5t-62.5 152.5q0 114 88 173
q-74 39 -74 115.5t53 114.5t144 38h112v120h-458v60h688v-60h-165v-180zM310 -164h65l110 -152h-76z" />
    <glyph glyph-name="uF01D9" unicode="&#xf01d9;" horiz-adv-x="942" 
d="M162.5 174q46.5 -46 121 -46t119 46t44.5 120t-44.5 120.5t-119 46.5t-121 -46t-46.5 -120.5t46.5 -120.5zM798.5 415q-46.5 46 -120.5 46t-119 -46.5t-45 -120t45 -120t119.5 -46.5t120.5 45.5t46 120.5t-46.5 121zM677 522q101 0 167 -64t66 -164t-65.5 -163.5
t-167.5 -63.5q-65 0 -118.5 32.5t-78.5 90.5q-28 -60 -79 -91.5t-117 -31.5q-102 0 -167.5 63.5t-65.5 163.5t66 164t167 64q66 0 117.5 -32t78.5 -92q24 58 77.5 91t119.5 33zM982 680h-1022v60h1022v-60z" />
    <glyph glyph-name="uF01DA" unicode="&#xf01da;" horiz-adv-x="529" 
d="M379.5 662q-33.5 29 -88.5 29t-91 -29.5t-36 -93.5t46 -96.5t116 -32.5q87 53 87 137q0 57 -33.5 86zM155 703.5q55 46.5 138.5 46.5t133 -49.5t49.5 -117.5q0 -87 -70 -144h243v-58h-321q-55 -27 -92.5 -51t-46 -34l-21.5 -26q-24 -28 -24 -73t31.5 -76t93 -31t94.5 35
t33 90h57v-246h-65v121q-15 -24 -49 -42t-85 -18q-79 0 -127 45.5t-48 117.5q0 77 57 128q50 44 115 77q-70 15 -110.5 62.5t-40.5 122t55 121z" />
    <glyph glyph-name="uF01DB" unicode="&#xf01db;" horiz-adv-x="576" 
d="M-10 740h726v-60h-726v60zM284 532h432v-58h-299q45 -23 70 -68t25 -100q0 -90 -55 -152t-148 -62q-111 0 -164 74v-187h-65v308h65q0 -58 45 -96.5t112 -38.5t106 41.5t39 118t-45.5 119t-117.5 43.5v58z" />
    <glyph glyph-name="uF01DC" unicode="&#xf01dc;" horiz-adv-x="789" 
d="M943 680h-391v-198q50 89 167 89q102 0 162 -64t60 -168h-64q0 81 -43.5 126.5t-123 45.5t-119 -50.5t-39.5 -141.5v-319h-65v195q-54 -86 -174 -86q-100 0 -162.5 63.5t-62.5 166.5t62 167t163 64q120 0 174 -86v196h-527v60h983v-60zM197.5 213.5
q44.5 -44.5 124.5 -44.5t122.5 45.5t42.5 125.5t-43.5 125t-123.5 45t-123.5 -45t-43.5 -126t44.5 -125.5zM346 24q20 0 34.5 -14.5t14.5 -34.5t-14.5 -34.5t-34.5 -14.5t-34.5 14.5t-14.5 34.5t14.5 34.5t34.5 14.5z" />
    <glyph glyph-name="uF01DD" unicode="&#xf01dd;" horiz-adv-x="653" 
d="M337 680v-99q0 -135 -38.5 -181.5t-148.5 -46.5v-123q0 -87 42 -129t119 -42q153 0 176 110q-103 50 -103 180q0 95 58.5 149.5t154.5 54.5t152.5 -54.5t56.5 -149.5t-56.5 -149.5t-152.5 -54.5q-28 0 -48 4q-19 -72 -81 -111t-148 -39q-108 0 -171.5 61t-63.5 168v179
h37q55 0 80 3.5t44 22.5t23 51.5t4 97.5v98h-313v60h850v-60h-473zM704.5 454q-40.5 39 -107.5 39t-107.5 -39t-40.5 -105t40.5 -105t107.5 -39t107.5 39t40.5 105t-40.5 105zM322 -66q20 0 34.5 -14.5t14.5 -34.5t-14.5 -34.5t-34.5 -14.5t-34.5 14.5t-14.5 34.5t14.5 34.5
t34.5 14.5z" />
    <glyph glyph-name="uF01DE" unicode="&#xf01de;" horiz-adv-x="422" 
d="M472 740v-60h-171v-255q0 -95 -31.5 -141.5t-106.5 -46.5t-110 49.5t-31 138.5h64q0 -61 9.5 -85.5t25.5 -33.5t41 -9t41 9t23 29q11 31 11 90v255h-277v60h512zM164 124q20 0 34.5 -14.5t14.5 -34.5t-14.5 -34.5t-34.5 -14.5t-34.5 14.5t-14.5 34.5t14.5 34.5t34.5 14.5
z" />
    <glyph glyph-name="uF01DF" unicode="&#xf01df;" horiz-adv-x="559" 
d="M-40 740h761v-60h-761v60zM720 518v-58h-268v-84q0 -160 -50 -217q-46 -53 -139 -53q-135 0 -171 113q-18 60 -18 157v142h65v-120q0 -134 15 -167q23 -47 57 -58q22 -7 52 -7t52 7t35.5 24.5t21 33.5t10.5 49q5 42 5 118v120h333zM266 24q20 0 34.5 -14.5t14.5 -34.5
t-14.5 -34.5t-34.5 -14.5t-34.5 14.5t-14.5 34.5t14.5 34.5t34.5 14.5z" />
    <glyph glyph-name="uF01E0" unicode="&#xf01e0;" horiz-adv-x="769" 
d="M531 680v-227q55 90 179 90q97 0 156.5 -61.5t59.5 -160.5h-65q0 78 -41.5 120t-120 42t-123.5 -53t-45 -136v-294h-65v330q-51 -84 -156 -84t-157 67t-52 177v190h-141v60h965v-60h-394zM166 680v-189q0 -92 35 -138.5t110.5 -46.5t115 53t39.5 129v192h-300zM280 129
q20 0 34.5 -14.5t14.5 -34.5t-14.5 -34.5t-34.5 -14.5t-34.5 14.5t-14.5 34.5t14.5 34.5t34.5 14.5z" />
    <glyph glyph-name="uF01E1" unicode="&#xf01e1;" horiz-adv-x="1734" 
d="M1396 237v196h207v-196h-207zM1396 475v196h207v-196h-207zM1146 0v671h208v-671h-208zM896 475v196h208v-196h-208zM647 0v671h207v-671h-207zM397 475v196h207v-196h-207zM147 0v671h207v-671h-207z" />
    <glyph glyph-name="uF01E2" unicode="&#xf01e2;" horiz-adv-x="0" 
d="M-166 846q0 195 159 195q71 0 110 -43.5t39 -116.5h-55q-2 52 -23.5 79t-72.5 27t-73.5 -35t-22.5 -106v-132h-60q-1 33 -1 132z" />
    <glyph glyph-name="uF01E3" unicode="&#xf01e3;" horiz-adv-x="0" 
d="M297 680h-337v60h337v-60zM297 401q-32 -6 -83 -6t-102 17.5t-87.5 62.5t-36.5 113h52q1 -50 30 -82.5t67 -44t75.5 -11.5t73.5 4z" />
    <glyph glyph-name="uF01E4" unicode="&#xf01e4;" horiz-adv-x="0" 
d="M-18 -111h-81l-128 159l-134 -159h-81l184 197h63z" />
    <glyph glyph-name="uF01E5" unicode="&#xf01e5;" horiz-adv-x="1018" 
d="M1058 680h-506v-198q50 89 167 89q102 0 162.5 -64.5t60.5 -172t-77 -169.5t-199 -51v60q94 -8 152.5 34.5t58.5 127t-43.5 130t-123 45.5t-119 -50.5t-39.5 -141.5v-319h-65v194l-202 -221h-83l143 143q-20 -2 -32 -2q-100 0 -162.5 61.5t-62.5 164t62 166.5t163 64
q120 0 174 -86v196h-527v60h1098v-60zM153 339q0 -81 44.5 -125.5t124.5 -44.5t122.5 45.5t42.5 125.5t-43.5 125t-123.5 45t-123.5 -45t-43.5 -126z" />
    <glyph glyph-name="uF01E6" unicode="&#xf01e6;" horiz-adv-x="905" 
d="M-40 740h985v-60h-140v-680h-65v212q-49 -67 -154 -67q-27 0 -52 6l-239 -255h-77v2l136 134q-22 -2 -35 -2q-108 0 -171 58.5t-63 164.5v154h37q55 0 80 3.5t44 22.5t23 51.5t4 97.5v98h-313v60zM150 353v-98q0 -86 42.5 -126t129.5 -40q124 0 158 83q-45 26 -70.5 72
t-25.5 105q0 90 56.5 147t145.5 57q107 0 154 -62v189h-403v-99q0 -135 -38.5 -181.5t-148.5 -46.5zM596 205q66 0 105 39t39 105t-39 105t-105 39t-106.5 -39t-40.5 -105t40.5 -105t106.5 -39z" />
    <glyph glyph-name="uF01E7" unicode="&#xf01e7;" horiz-adv-x="687" 
d="M-40 740h767v-60h-140v-680h-65v303l-270 -303h-83l353 380v300h-221v-255q0 -95 -31.5 -141.5t-106.5 -46.5t-110 49.5t-31 138.5h64q0 -61 9.5 -85.5t25.5 -33.5t41 -9t41 9t23 29q11 31 11 90v255h-277v60z" />
    <glyph glyph-name="uF01E8" unicode="&#xf01e8;" horiz-adv-x="694" 
d="M734 740v-60h-140v-680h-65v213l-223 -243h-83l151 151q-31 -6 -68 -6q-97 0 -162.5 45t-65.5 132q0 55 28.5 94t75.5 59v6q-52 23 -69 67t-17 124v38h-136v60h774zM529 356v324h-367v-38q0 -95 28.5 -131t115.5 -36h33v-59h-33q-72 0 -117.5 -31t-45.5 -94t49 -92
t131.5 -29t144 51t61.5 135z" />
    <glyph glyph-name="uF01E9" unicode="&#xf01e9;" horiz-adv-x="645" 
d="M331 -10h-9l-129 -153h-81l148 158q-82 15 -129.5 68.5t-48.5 138.5h64q10 -152 175 -152q67 0 105 27.5t38 84.5q0 64 -48 82q-37 14 -101 14q-104 0 -161 33.5t-57 118.5q0 151 207 151h100v119h-444v60h725v-60h-216v-179h-164q-67 0 -105 -19t-38 -73.5t35.5 -73.5
t94 -19t93.5 -5.5t71 -20.5q73 -33 73 -134q0 -57 -36.5 -99.5t-100.5 -58.5l144 -161h-81zM566 433q20 0 34.5 -14.5t14.5 -34.5t-14.5 -34.5t-34.5 -14.5t-34.5 14.5t-14.5 34.5t14.5 34.5t34.5 14.5z" />
    <glyph glyph-name="uF01EA" unicode="&#xf01ea;" horiz-adv-x="720" 
d="M-40 740h800v-60h-140v-680h-65v200l-209 -243h-83l148 154q-17 -4 -41 -4q-97 0 -162 57t-65 148q0 112 86 162h-180v57h362v-57h-26q-82 0 -129.5 -42t-47.5 -115t47.5 -113t123.5 -40t126 53t50 128v335h-595v60z" />
    <glyph glyph-name="uF01EB" unicode="&#xf01eb;" horiz-adv-x="817" 
d="M857 680h-225v-111q63 -16 98.5 -74.5t35.5 -147.5q0 -122 -69 -202.5t-190 -103.5l149 -166h-81l-128 158h-1l-133 -158h-81l147 158q-83 3 -147.5 24.5t-107.5 71t-43 116t32 109t87 62.5v6q-58 18 -77.5 67t-19.5 145v46h-143v60h897v-60zM567 680h-399v-52
q0 -104 29.5 -143t122.5 -39h12v-60h-12q-81 0 -128 -34.5t-47 -102.5q0 -44 22.5 -76t61.5 -49q73 -32 180 -32q135 0 216 65t81 197q0 84 -32 122t-86 38q-28 0 -47 -7t-37 -27q-37 -43 -35 -170h-60q-3 245 158 263v107z" />
    <glyph glyph-name="uF01EC" unicode="&#xf01ec;" horiz-adv-x="819" 
d="M-40 740h899v-60h-140v-680h-65v268l-243 -290h-83l326 369v113h-202v-54q0 -160 -50 -217q-46 -53 -139 -53q-135 0 -171 113q-18 60 -18 157v112h65v-90q0 -134 15 -167q23 -47 57 -58q22 -7 52 -7t52 7t35.5 24.5t21 33.5t10.5 49q5 42 5 118v90h267v162h-694v60z" />
    <glyph glyph-name="uF01ED" unicode="&#xf01ed;" horiz-adv-x="839" 
d="M879 740v-60h-140v-680h-65v196l-167 -292h-75l238 386h-194q20 -11 33 -38t13 -60q0 -68 -45 -114.5t-134 -46.5q-55 0 -103 24t-70 59v-144h-65v261h65q4 -62 50 -101.5t115 -39.5q122 0 122 108q0 53 -29.5 71t-116.5 18t-143.5 31t-56.5 112q0 87 67 116
q59 25 151 25h89v109h-458v60h919zM674 343v337h-191v-169h-157q-113 0 -138 -37q-12 -17 -12 -45q0 -52 35.5 -69t101.5 -17h361z" />
    <glyph glyph-name="uF01EE" unicode="&#xf01ee;" horiz-adv-x="828" 
d="M-40 740h908v-60h-140v-680h-65v232l-181 -232h-83l264 312v13h-151q-7 -93 -63.5 -152.5t-157.5 -59.5t-156 48.5t-69 116.5h66q11 -44 50 -74.5t112.5 -30.5t113.5 47t40 131t-40 131t-113.5 47t-112.5 -30.5t-50 -74.5h-66q14 68 69 116.5t155 48.5t156.5 -57.5
t65.5 -148.5h151v297h-703v60z" />
    <glyph glyph-name="uF01EF" unicode="&#xf01ef;" horiz-adv-x="663" 
d="M444 506h-65q-109 -1 -172.5 -51t-63.5 -145t55.5 -148.5t146.5 -53.5t143.5 53.5t52.5 145.5h65q0 -97 -49.5 -163t-135.5 -87l150 -167h-81l-128 158l-134 -158h-81l151 161q-99 14 -159.5 83t-60.5 171q0 126 83 193t218 68v114h-419v60h743v-60h-259v-174z" />
    <glyph glyph-name="uF01F0" unicode="&#xf01f0;" horiz-adv-x="669" 
d="M709 680h-332v-117q103 -10 167.5 -79.5t64.5 -170t-54 -167t-143 -86.5l148 -165h-81l-128 158h-1l-133 -158h-81l152 163q-93 17 -150 84.5t-57 169.5t64 171t167 80v117h-352v60h749v-60zM544 309q0 88 -55 142.5t-144 54.5t-144 -54.5t-55 -142.5t55 -142.5
t144 -54.5t144 54.5t55 142.5z" />
    <glyph glyph-name="uF01F1" unicode="&#xf01f1;" horiz-adv-x="586" 
d="M469 501h-164q-67 0 -105 -19t-38 -73.5t35.5 -73.5t94 -19t93.5 -5.5t71 -20.5q73 -33 73 -134q0 -56 -35.5 -98.5t-98.5 -58.5l151 -168h-81l-128 159l-134 -159h-81l152 162q-89 12 -140 66t-52 143h64q10 -152 175 -152q67 0 105 27.5t38 84.5q0 64 -48 82
q-37 14 -101 14q-104 0 -161 33.5t-57 118.5q0 151 207 151h100v119h-444v60h666v-60h-157v-179z" />
    <glyph glyph-name="uF01F2" unicode="&#xf01f2;" horiz-adv-x="633" 
d="M470 517h-65q-121 1 -191.5 -57t-70.5 -166.5t64.5 -165t164.5 -56.5q74 0 113 35.5t39 88.5q0 115 -103 115q-100 0 -100 -118h-64q0 77 41.5 127t119.5 50t124.5 -45t46.5 -117.5t-37.5 -120t-102.5 -65.5l151 -168h-81l-128 159l-134 -159h-81l150 161
q-110 13 -179 86t-69 179t46 173q85 126 281 124v103h-445v60h713v-60h-203v-163z" />
    <glyph glyph-name="uF01F3" unicode="&#xf01f3;" horiz-adv-x="848" 
d="M-40 740h928v-60h-140v-680h-65v294l-239 -294h-83l322 373v307h-191v-261q0 -117 -45.5 -179.5t-149.5 -62.5t-149.5 62.5t-45.5 179.5v261h-142v60zM427 418v262h-260v-262q0 -91 27 -136t103 -45t103 45t27 136z" />
    <glyph glyph-name="uF01F4" unicode="&#xf01f4;" horiz-adv-x="655" 
d="M308 567q128 0 182 -105v218h-510v60h715v-60h-140v-680h-65v275l-264 -276h-88v4l348 352q-12 69 -55 110t-117.5 41t-116.5 -51t-48 -138h-65q6 113 65 181.5t159 68.5z" />
    <glyph glyph-name="uF01F5" unicode="&#xf01f5;" horiz-adv-x="751" 
d="M586 740h205v-60h-140v-680h-65v206l-268 -256h-94v5l172 148q-7 -1 -21 -1q-145 0 -217 96.5t-53 246.5q64 -2 90 -2q113 0 165.5 26t52.5 105q0 54 -30 85t-86.5 31t-86 -37.5t-27.5 -100.5h-65q-2 88 47 143t131.5 55t132 -49.5t49.5 -130.5q0 -118 -96 -154
q-83 -31 -212 -27q-5 -105 49 -167.5t163 -62.5q84 0 144 54.5t60 135.5v391z" />
    <glyph glyph-name="uF01F6" unicode="&#xf01f6;" horiz-adv-x="592" 
d="M474 509h-97q-114 0 -177 -33q-71 -38 -71 -145q0 -83 48.5 -125t123 -42t114.5 32.5t40 105.5h59v-294h-65v156l-183 -221h-80l148 166q-20 -2 -29 -2q-110 0 -176 61t-66 163q0 124 80.5 181t221.5 57h44v111h-449v60h672v-60h-158v-171z" />
    <glyph glyph-name="uF01F7" unicode="&#xf01f7;" horiz-adv-x="714" 
d="M754 740v-60h-140v-680h-65v208l-248 -264h-83l176 177q-28 -7 -62 -7q-94 0 -159.5 45t-65.5 128q0 103 104 140v6q-47 19 -76.5 59t-29.5 94q0 72 46 118t123 46t120.5 -50.5t38.5 -131.5h-62q3 122 -99 122q-47 0 -74.5 -27.5t-27.5 -74.5q0 -66 44.5 -98.5
t120.5 -32.5h48v-59h-48q-72 0 -117.5 -26.5t-45.5 -85t49.5 -87.5t127.5 -29t139 49.5t61 130.5v390h205z" />
    <glyph glyph-name="uF01F8" unicode="&#xf01f8;" horiz-adv-x="775" 
d="M-40 740h855v-60h-140v-680h-65v218l-186 -228h-83l269 303v152h-225q71 -38 71 -136q0 -79 -51.5 -131t-137 -52t-143 51.5t-57.5 138.5t56.5 137t166.5 50h320v177h-650v60zM355.5 219q36.5 34 36.5 93.5t-35 95.5t-92 36t-95 -34.5t-38 -97t39 -95t93.5 -32.5t91 34z
" />
    <glyph glyph-name="uF01F9" unicode="&#xf01f9;" horiz-adv-x="643" 
d="M-40 740h723v-60h-140v-680h-65v292l-266 -292h-83l201 214q-18 -2 -26 -2q-102 0 -156.5 67t-54.5 177v224h-133v60zM158 680v-220q0 -191 160 -191q70 0 115 50t45 125v236h-320z" />
    <glyph glyph-name="uF01FA" unicode="&#xf01fa;" horiz-adv-x="995" 
d="M1035 680h-504v-227q55 90 179 90q97 0 156.5 -61.5t59.5 -162.5t-72.5 -160t-188.5 -51v58q87 -8 141.5 34.5t54.5 120.5t-41.5 120t-120 42t-123.5 -53t-45 -136v-294h-65v326l-254 -326h-83l210 251q-22 -2 -34 -2q-101 0 -152.5 65.5t-51.5 175.5v190h-141v60h1075
v-60zM166 680v-189q0 -92 35 -138.5t110.5 -46.5t115 53t39.5 129v192h-300z" />
    <glyph glyph-name="uF01FB" unicode="&#xf01fb;" horiz-adv-x="673" 
d="M-40 740h753v-60h-140v-680h-65v182l-210 -240h-83v5l148 156q-25 -5 -49 -5q-109 0 -180.5 67t-71.5 174.5t72 176t180 68.5q132 0 194 -101v197h-548v60zM508 339q0 82 -52 133.5t-131 51.5t-132 -39l294 -237q21 39 21 91zM127 339q0 -86 54.5 -135.5t138.5 -49.5
t135 51l-298 241q-30 -46 -30 -107z" />
    <glyph glyph-name="uF01FC" unicode="&#xf01fc;" horiz-adv-x="785" 
d="M825 740v-60h-140v-680h-65v221l-246 -274h-83l329 345v103h-173v-64q0 -216 -172 -216q-75 0 -126.5 48t-51.5 128q0 162 231 162h55v88q0 69 -22 106.5t-77.5 37.5t-77 -37.5t-21.5 -111.5h-63q0 209 162.5 209t162.5 -204v-88h173v287h205zM383 331v64h-62
q-78 0 -118.5 -24t-40.5 -88q0 -48 31.5 -78.5t87 -30.5t79 38.5t23.5 118.5z" />
    <glyph glyph-name="uF01FD" unicode="&#xf01fd;" horiz-adv-x="763" 
d="M803 740v-60h-140v-680h-65v236l-266 -287h-83l349 357v92h-198v-64q0 -216 -172 -216q-75 0 -126.5 48t-51.5 128q0 162 231 162h55v224h-376v60h843zM336 334v64h-62q-78 0 -118.5 -24t-40.5 -88q0 -48 31.5 -78.5t87 -30.5t79 38.5t23.5 118.5zM598 456v224h-198v-224
h198z" />
    <glyph glyph-name="uF01FE" unicode="&#xf01fe;" horiz-adv-x="718" 
d="M-40 740h798v-60h-140v-680h-65v225l-253 -277h-83l167 172q-20 -3 -41 -3q-137 0 -208 88.5t-64 244.5q63 0 90 5.5t41.5 9t25.5 13l18.5 16t12.5 21t7.5 24.5t4 31t1.5 34v76h-312v60zM337 680v-36q0 -64 -6.5 -103.5t-26.5 -74.5q-37 -65 -164 -71q-2 -99 53.5 -160
t152.5 -61t152 65.5t55 169.5v271h-216z" />
    <glyph glyph-name="uF01FF" unicode="&#xf01ff;" horiz-adv-x="906" 
d="M-40 740h986v-60h-272v-173q154 -27 154 -236q0 -123 -72 -192.5t-192 -57.5v60q99 -7 149 45.5t50 145.5q0 179 -133 179q-147 0 -140 -220h-64q7 220 -141 220q-133 0 -133 -179q0 -93 50 -145.5t149 -45.5v-60q-120 -12 -192 57.5t-72 192.5q0 240 198 240
q65 0 111 -33t62 -93q15 55 54.5 87.5t96.5 37.5v170h-649v60zM617 -28h63l177 -197h-81l-128 159l-134 -159h-81z" />
    <glyph glyph-name="uF0200" unicode="&#xf0200;" horiz-adv-x="649" 
d="M-40 740h729v-60h-140v-680h-65v195l-216 -245h-83v4l153 155q-21 -3 -45 -3q-103 0 -168.5 65t-65.5 168.5t65.5 169.5t168.5 66q132 0 191 -95v200h-524v60zM124 339q0 -81 48.5 -128.5t130.5 -47.5t131.5 48t49.5 128t-49.5 128t-131.5 48t-130.5 -47.5t-48.5 -128.5z
" />
    <glyph glyph-name="uF0201" unicode="&#xf0201;" horiz-adv-x="757" 
d="M592 740h205v-60h-140v-680h-65v214l-23 12l-217 -226h-81v4l242 249l-180 90l-77 -65.5t-98 -78.5h-93v6q104 77 213 167q-79 46 -118.5 96t-39.5 120t54.5 118t137.5 48t135 -47t52 -126q0 -104 -116 -198q66 -33 209 -99v456zM219 662.5q-34 -34.5 -34 -86t35.5 -89.5
t106.5 -76q31 25 51 45t38.5 53.5t18.5 66.5q0 56 -32.5 88.5t-91 32.5t-92.5 -34.5z" />
    <glyph glyph-name="uF0202" unicode="&#xf0202;" horiz-adv-x="643" 
d="M-40 740h723v-60h-140v-680h-65v299l-286 -319h-83l227 241q-20 -2 -32 -2q-107 0 -159 63t-52 174v224h-133v60zM478 680h-320v-6l318 -262q2 20 2 31v237zM158 460q0 -191 160 -191q47 0 84 24.5t57 65.5l-301 249v-148z" />
    <glyph glyph-name="uF0203" unicode="&#xf0203;" horiz-adv-x="802" 
d="M88 425l45 -1q54 0 89 4t60.5 17t39 28.5t21.5 48.5q12 51 12 158h-395v60h882v-60h-140v-680h-65v285l-109 -158h-80l189 238v4h-483v-146q0 -103 23 -133q24 -31 73.5 -31t69.5 32.5t20 101.5h64q0 -194 -151 -194q-90 0 -127.5 58t-37.5 166v202zM637 424v256h-218
q-2 -111 -16.5 -169.5t-51.5 -86.5h286z" />
    <glyph glyph-name="uF0204" unicode="&#xf0204;" horiz-adv-x="608" 
d="M483 500h-176q-59 0 -95.5 -22.5t-36.5 -67.5q0 -62 76 -88q35 8 69 8q79 0 133.5 -38t73.5 -99l-148 -136h-83l160 155q-38 58 -135 58q-73 0 -117 -42t-44 -109.5t45 -110t114 -42.5t99.5 21.5t43.5 62.5h65q-11 -61 -61 -102.5t-144.5 -41.5t-160.5 60t-66 153
q0 114 88 173q-74 39 -74 115.5t53 114.5t144 38h112v120h-458v60h688v-60h-165v-180z" />
    <glyph glyph-name="uF0205" unicode="&#xf0205;" horiz-adv-x="942" 
d="M982 680h-293v-158q96 -5 158.5 -68t62.5 -155t-50.5 -152.5t-133.5 -75.5l146 -162h-81l-128 158h-1l-133 -158h-81l158 169q-90 29 -126 112q-28 -60 -79 -91.5t-117 -31.5q-102 0 -167.5 63.5t-65.5 163.5t66 164t167 64q66 0 117.5 -32t78.5 -92q40 95 144 118v164
h-664v60h1022v-60zM162.5 174q46.5 -46 121 -46t119 46t44.5 120t-44.5 120.5t-119 46.5t-121 -46t-46.5 -120.5t46.5 -120.5zM845 294q0 75 -46.5 121t-120.5 46t-119 -46.5t-45 -120t45 -120t119.5 -46.5t120.5 45.5t46 120.5z" />
    <glyph glyph-name="uF0206" unicode="&#xf0206;" horiz-adv-x="1018" 
d="M1058 680h-506v-198q50 89 167 89q102 0 162.5 -64.5t60.5 -172t-77 -169.5t-199 -51v60q94 -8 152.5 34.5t58.5 127t-43.5 130t-123 45.5t-119 -50.5t-39.5 -141.5v-319h-65v194l-202 -221h-83l143 143q-20 -2 -32 -2q-100 0 -162.5 61.5t-62.5 164t62 166.5t163 64
q120 0 174 -86v196h-527v60h1098v-60zM153 339q0 -81 44.5 -125.5t124.5 -44.5t122.5 45.5t42.5 125.5t-43.5 125t-123.5 45t-123.5 -45t-43.5 -126zM125 100q20 0 34.5 -14.5t14.5 -34.5t-14.5 -34.5t-34.5 -14.5t-34.5 14.5t-14.5 34.5t14.5 34.5t34.5 14.5z" />
    <glyph glyph-name="uF0207" unicode="&#xf0207;" horiz-adv-x="905" 
d="M-40 740h985v-60h-140v-680h-65v212q-49 -67 -154 -67q-27 0 -52 6l-239 -255h-77v2l136 134q-22 -2 -35 -2q-108 0 -171 58.5t-63 164.5v154h37q55 0 80 3.5t44 22.5t23 51.5t4 97.5v98h-313v60zM150 353v-98q0 -86 42.5 -126t129.5 -40q124 0 158 83q-45 26 -70.5 72
t-25.5 105q0 90 56.5 147t145.5 57q107 0 154 -62v189h-403v-99q0 -135 -38.5 -181.5t-148.5 -46.5zM596 205q66 0 105 39t39 105t-39 105t-105 39t-106.5 -39t-40.5 -105t40.5 -105t106.5 -39zM89 24q20 0 34.5 -14.5t14.5 -34.5t-14.5 -34.5t-34.5 -14.5t-34.5 14.5
t-14.5 34.5t14.5 34.5t34.5 14.5z" />
    <glyph glyph-name="uF0208" unicode="&#xf0208;" horiz-adv-x="687" 
d="M-40 740h767v-60h-140v-680h-65v303l-270 -303h-83l353 380v300h-221v-255q0 -95 -31.5 -141.5t-106.5 -46.5t-110 49.5t-31 138.5h64q0 -61 9.5 -85.5t25.5 -33.5t41 -9t41 9t23 29q11 31 11 90v255h-277v60zM68 188q20 0 34.5 -14.5t14.5 -34.5t-14.5 -34.5
t-34.5 -14.5t-34.5 14.5t-14.5 34.5t14.5 34.5t34.5 14.5z" />
    <glyph glyph-name="uF0209" unicode="&#xf0209;" horiz-adv-x="819" 
d="M-40 740h899v-60h-140v-680h-65v268l-243 -290h-83l326 369v113h-202v-54q0 -160 -50 -217q-46 -53 -139 -53q-135 0 -171 113q-18 60 -18 157v112h65v-90q0 -134 15 -167q23 -47 57 -58q22 -7 52 -7t52 7t35.5 24.5t21 33.5t10.5 49q5 42 5 118v90h267v162h-694v60z
M116 66q20 0 34.5 -14.5t14.5 -34.5t-14.5 -34.5t-34.5 -14.5t-34.5 14.5t-14.5 34.5t14.5 34.5t34.5 14.5z" />
    <glyph glyph-name="uF020A" unicode="&#xf020a;" horiz-adv-x="995" 
d="M1035 680h-504v-227q55 90 179 90q97 0 156.5 -61.5t59.5 -162.5t-72.5 -160t-188.5 -51v58q87 -8 141.5 34.5t54.5 120.5t-41.5 120t-120 42t-123.5 -53t-45 -136v-294h-65v326l-254 -326h-83l210 251q-22 -2 -34 -2q-101 0 -152.5 65.5t-51.5 175.5v190h-141v60h1075
v-60zM166 680v-189q0 -92 35 -138.5t110.5 -46.5t115 53t39.5 129v192h-300zM159 178q0 -20 -14.5 -34.5t-34.5 -14.5t-34.5 14.5t-14.5 34.5t14.5 34.5t34.5 14.5t34.5 -14.5t14.5 -34.5z" />
    <glyph glyph-name="uF020B" unicode="&#xf020b;" horiz-adv-x="789" 
d="M943 680h-391v-198q50 89 167 89q102 0 162 -64t60 -168h-64q0 81 -43.5 126.5t-123 45.5t-119 -50.5t-39.5 -141.5v-319h-65v194l-205 -223h-83l145 145q-20 -2 -31 -2q-100 0 -162.5 61.5t-62.5 164t62 166.5t163 64q120 0 174 -86v196h-527v60h983v-60zM153 339
q0 -81 44.5 -125.5t124.5 -44.5t122.5 45.5t42.5 125.5t-43.5 125t-123.5 45t-123.5 -45t-43.5 -126z" />
    <glyph glyph-name="uF020C" unicode="&#xf020c;" horiz-adv-x="656" 
d="M337 680v-99q0 -135 -38.5 -181.5t-148.5 -46.5v-98q0 -86 42.5 -126t129.5 -40q126 0 158 83q-96 53 -96 177q0 95 58.5 149.5t154.5 54.5t154.5 -54.5t58.5 -149.5t-58.5 -149.5t-154.5 -54.5q-33 0 -61 6l-214 -235h-83v5l121 112q-20 -3 -41 -3q-108 0 -171 58.5
t-63 164.5v154h37q55 0 80 3.5t44 22.5t23 51.5t4 97.5v98h-316v60h853v-60h-473zM704.5 454q-40.5 39 -107.5 39t-107.5 -39t-40.5 -105t40.5 -105t107.5 -39t107.5 39t40.5 105t-40.5 105z" />
    <glyph glyph-name="uF020D" unicode="&#xf020d;" horiz-adv-x="422" 
d="M-40 740h586v-60h-245v-255q0 -95 -31.5 -141.5t-106.5 -46.5t-110 49.5t-31 138.5h64q0 -61 9.5 -85.5t25.5 -33.5t41 -9t41 9t23 29q11 31 11 90v255h-277v60zM252 0h-83l377 406v-76z" />
    <glyph glyph-name="uF020E" unicode="&#xf020e;" horiz-adv-x="411" 
d="M529 355h59q0 -121 -75 -185l-210 -206h-83v4l162 146q-24 -4 -56 -4q-107 0 -177.5 47t-70.5 135q0 55 28.5 94t75.5 59v6q-52 23 -69 67t-17 124v38h-136v60h627v-60h-425v-38q0 -95 28.5 -131t115.5 -36h33v-59h-33q-72 0 -117.5 -31t-45.5 -94.5t52 -92t139 -28.5
t141 47.5t54 137.5z" />
    <glyph glyph-name="uF020F" unicode="&#xf020f;" horiz-adv-x="645" 
d="M331 -10h-9l-129 -153h-81l148 158q-82 15 -129.5 68.5t-48.5 138.5h64q10 -152 175 -152q67 0 105 27.5t38 84.5q0 64 -48 82q-37 14 -101 14q-104 0 -161 33.5t-57 118.5q0 151 207 151h100v119h-444v60h725v-60h-216v-179h-164q-67 0 -105 -19t-38 -73.5t35.5 -73.5
t94 -19t93.5 -5.5t71 -20.5q73 -33 73 -134q0 -57 -36.5 -99.5t-100.5 -58.5l144 -161h-81zM566 433q20 0 34.5 -14.5t14.5 -34.5t-14.5 -34.5t-34.5 -14.5t-34.5 14.5t-14.5 34.5t14.5 34.5t34.5 14.5zM294 -168h65l110 -152h-76z" />
    <glyph glyph-name="uF0210" unicode="&#xf0210;" horiz-adv-x="467" 
d="M-40 740h658v-60h-658v60zM555 349h62q0 -114 -65 -181l-203 -203h-83v5l147 136q-20 -2 -31 -2q-101 0 -169.5 57.5t-68.5 153.5q0 112 87 159h-182v57h362v-57h-26q-82 0 -129.5 -42t-47.5 -115t47.5 -113t130 -40t126 50.5t43.5 134.5z" />
    <glyph glyph-name="uF0211" unicode="&#xf0211;" horiz-adv-x="817" 
d="M857 680h-689v-52q0 -104 29.5 -143t122.5 -39h12v-60h-12q-81 0 -128 -34.5t-47 -102.5q0 -44 22.5 -76t61.5 -49q73 -32 180 -32q135 0 216 65t81 197q0 84 -32 122t-86 38q-28 0 -47 -7t-37 -27q-37 -43 -35 -170h-60q-3 260 179 264q83 0 130.5 -61.5t47.5 -173.5
t-67 -191.5t-185 -104.5l151 -168h-81l-128 159l-134 -159h-81l147 157q-133 4 -220 57.5t-87 160.5q0 61 32 103.5t87 62.5v6q-58 18 -77.5 67t-19.5 145v46h-143v60h897v-60z" />
    <glyph glyph-name="uF0212" unicode="&#xf0212;" horiz-adv-x="559" 
d="M-40 740h761v-60h-761v60zM700 518v-58h-248v-54q0 -160 -50 -217q-46 -53 -139 -53q-135 0 -171 113q-18 60 -18 157v112h65v-90q0 -134 15 -167q23 -47 57 -58q22 -7 52 -7t52 7t35.5 24.5t21 33.5t10.5 49q5 42 5 118v90h313zM434 0h-83l349 399v-74z" />
    <glyph glyph-name="uF0213" unicode="&#xf0213;" horiz-adv-x="581" 
d="M297 343h425v-128l-215 -311h-83l294 386h-252q23 -11 39.5 -38t16.5 -60q0 -66 -48 -112t-138 -46q-55 0 -99.5 22.5t-66.5 57.5v-144h-65v261h65q4 -63 46.5 -100.5t111.5 -37.5q129 0 129 105q0 47 -25 69q-25 21 -107 21q-131 0 -173 38q-41 35 -41 104q0 89 65 118
q55 23 142 23h100v109h-458v60h745v-60h-222v-169h-164q-91 0 -115 -19q-28 -21 -28 -67.5t31 -64t90 -17.5z" />
    <glyph glyph-name="uF0214" unicode="&#xf0214;" horiz-adv-x="554" 
d="M685 383v-119l-203 -264h-83l275 325h-162q-7 -93 -63.5 -152.5t-157.5 -59.5t-156 48.5t-69 116.5h66q11 -44 50 -74.5t112.5 -30.5t113.5 47t40 131t-40 131t-113.5 47t-112.5 -30.5t-50 -74.5h-66q14 68 69 116.5t155 48.5t156.5 -57.5t65.5 -148.5h173zM678 740v-60
h-718v60h718z" />
    <glyph glyph-name="uF0215" unicode="&#xf0215;" horiz-adv-x="663" 
d="M444 506h-65q-109 -1 -172.5 -51t-63.5 -145t55.5 -148.5t146.5 -53.5t143.5 53.5t52.5 145.5h65q0 -97 -49.5 -163t-135.5 -87l150 -167h-81l-128 158l-134 -158h-81l151 161q-99 14 -159.5 83t-60.5 171q0 126 83 193t218 68v114h-419v60h743v-60h-259v-174zM324 -94
h65l110 -152h-76z" />
    <glyph glyph-name="uF0216" unicode="&#xf0216;" horiz-adv-x="669" 
d="M709 680h-332v-117q103 -10 167.5 -79.5t64.5 -170t-54 -167t-143 -86.5l148 -165h-81l-128 158h-1l-133 -158h-81l152 163q-93 17 -150 84.5t-57 169.5t64 171t167 80v117h-352v60h749v-60zM544 309q0 88 -55 142.5t-144 54.5t-144 -54.5t-55 -142.5t55 -142.5
t144 -54.5t144 54.5t55 142.5zM316 -84h65l110 -152h-76z" />
    <glyph glyph-name="uF0217" unicode="&#xf0217;" horiz-adv-x="586" 
d="M469 501h-164q-67 0 -105 -19t-38 -73.5t35.5 -73.5t94 -19t93.5 -5.5t71 -20.5q73 -33 73 -134q0 -56 -35.5 -98.5t-98.5 -58.5l151 -168h-81l-128 159l-134 -159h-81l152 162q-89 12 -140 66t-52 143h64q10 -152 175 -152q67 0 105 27.5t38 84.5q0 64 -48 82
q-37 14 -101 14q-104 0 -161 33.5t-57 118.5q0 151 207 151h100v119h-444v60h666v-60h-157v-179zM304 -151h65l110 -152h-76z" />
    <glyph glyph-name="uF0218" unicode="&#xf0218;" horiz-adv-x="633" 
d="M470 517h-65q-121 1 -191.5 -57t-70.5 -166.5t64.5 -165t164.5 -56.5q74 0 113 35.5t39 88.5q0 115 -103 115q-100 0 -100 -118h-64q0 77 41.5 127t119.5 50t124.5 -45t46.5 -117.5t-37.5 -120t-102.5 -65.5l151 -168h-81l-128 159l-134 -159h-81l150 161
q-110 13 -179 86t-69 179t46 173q85 126 281 124v103h-445v60h713v-60h-203v-163zM358 -134h65l110 -152h-76z" />
    <glyph glyph-name="uF0219" unicode="&#xf0219;" horiz-adv-x="591" 
d="M-40 740h760v-60h-228v-261q0 -117 -45.5 -179.5t-149.5 -62.5t-149.5 62.5t-45.5 179.5v261h-142v60zM427 418v262h-260v-262q0 -91 27 -136t103 -45t103 45t27 136zM444 0h-83l359 415v-76z" />
    <glyph glyph-name="uF021A" unicode="&#xf021a;" horiz-adv-x="435" 
d="M323 506q-81 0 -124.5 -51.5t-49.5 -137.5h-65q6 112 66 181t161 69q194 0 242 -212q-117 -137 -327 -356h-78v4l338 352q-33 151 -163 151zM552 680h-592v60h592v-60z" />
    <glyph glyph-name="uF021B" unicode="&#xf021b;" horiz-adv-x="480" 
d="M587 349h58q0 -122 -82 -190l-191 -189h-83v4l147 129q-23 -4 -54 -4q-149 0 -222.5 97.5t-54.5 248.5q64 -2 90 -2q113 0 165.5 26t52.5 105q0 54 -30 85t-86.5 31t-86 -37.5t-27.5 -100.5h-65q-2 88 47 143t131.5 55t132 -49.5t49.5 -130.5q0 -118 -96 -154
q-83 -31 -212 -27q-5 -105 49 -167.5t155.5 -62.5t157 52t55.5 138z" />
    <glyph glyph-name="uF021C" unicode="&#xf021c;" horiz-adv-x="592" 
d="M-40 740h672v-60h-158v-171h-97q-114 0 -177 -33q-71 -38 -71 -145q0 -83 48.5 -125t123 -42t114.5 32.5t40 105.5h59v-294h-65v156l-183 -221h-80l148 166q-20 -2 -29 -2q-110 0 -176 61t-66 163q0 124 80.5 181t221.5 57h44v111h-449v60zM455 -54h65l110 -152h-76z" />
    <glyph glyph-name="uF021D" unicode="&#xf021d;" horiz-adv-x="417" 
d="M527 350h60q0 -114 -66 -175l-190 -203h-83v6l145 137q-33 -5 -63 -5q-97 0 -165 45.5t-68 131.5q0 103 104 140v6q-47 19 -76.5 59t-29.5 94q0 72 46 118t123 46t120.5 -50.5t38.5 -131.5h-62q3 122 -99 122q-47 0 -74.5 -27.5t-27.5 -74.5q0 -66 44.5 -98.5
t120.5 -32.5h48v-59h-48q-72 0 -117.5 -26.5t-45.5 -85t49.5 -87.5t129.5 -29t133 43.5t53 136.5z" />
    <glyph glyph-name="uF021E" unicode="&#xf021e;" horiz-adv-x="502" 
d="M654 680h-694v60h694v-60zM654 503v-58h-269q71 -38 71 -136q0 -79 -51.5 -131t-137 -52t-143 51.5t-57.5 138.5t56.5 137t166.5 50h364zM357 408q-35 36 -92 36t-95 -34.5t-38 -97t39 -95t93.5 -32.5t91 34t36.5 93.5t-35 95.5zM654 344v-72l-230 -282h-83z" />
    <glyph glyph-name="uF021F" unicode="&#xf021f;" horiz-adv-x="379" 
d="M542 680h-384v-220q0 -191 160 -191q80 0 120 45.5t40 129.5h62q0 -116 -68 -178l-260 -266h-83v4l214 209q-8 -1 -25 -1q-115 0 -170 65t-55 179v224h-133v60h582v-60z" />
    <glyph glyph-name="uF0220" unicode="&#xf0220;" horiz-adv-x="769" 
d="M531 680v-227q55 90 179 90q97 0 156.5 -61.5t59.5 -160.5h-65q0 78 -41.5 120t-120 42t-123.5 -53t-45 -136v-294h-65v326l-254 -326h-83l210 251q-22 -2 -34 -2q-101 0 -152.5 65.5t-51.5 175.5v190h-141v60h965v-60h-394zM166 680v-189q0 -92 35 -138.5t118 -46.5
q66 0 105.5 50t41.5 124v200h-300z" />
    <glyph glyph-name="uF0221" unicode="&#xf0221;" horiz-adv-x="428" 
d="M324 97q-114 0 -188 65.5t-74 176.5t74 178t188 67t188 -67t74 -174.5t-73 -177.5l-215 -223h-83v4l162 155q-23 -4 -53 -4zM521 339q0 86 -54.5 135.5t-137.5 49.5t-136 -39l303 -244q25 42 25 98zM127 339q0 -86 54.5 -135.5t141.5 -49.5t139 46l-305 246
q-30 -46 -30 -107zM585 740v-60h-625v60h625z" />
    <glyph glyph-name="uF0222" unicode="&#xf0222;" horiz-adv-x="522" 
d="M447 453h216v-58h-216v-64q0 -216 -172 -216q-75 0 -126.5 48t-51.5 128q0 162 231 162h55v88q0 69 -22 106.5t-77.5 37.5t-77 -37.5t-21.5 -111.5h-63q0 209 162.5 209t162.5 -204v-88zM383 331v64h-62q-78 0 -118.5 -24t-40.5 -88q0 -48 31.5 -78.5t87 -30.5t79 38.5
t23.5 118.5zM441 -10h-83l305 349v-71z" />
    <glyph glyph-name="uF0223" unicode="&#xf0223;" horiz-adv-x="508" 
d="M803 680h-403v-224h244v-58h-244v-64q0 -216 -172 -216q-75 0 -126.5 48t-51.5 128q0 162 231 162h55v224h-376v60h843v-60zM336 334v64h-62q-78 0 -118.5 -24t-40.5 -88q0 -48 31.5 -78.5t87 -30.5t79 38.5t23.5 118.5zM406 -10h-83l321 370v-75z" />
    <glyph glyph-name="uF0224" unicode="&#xf0224;" horiz-adv-x="457" 
d="M337 680v-36q0 -64 -6.5 -103.5t-26.5 -74.5q-37 -65 -164 -71q-2 -99 53.5 -160t156 -61t152 61.5t51.5 173.5h62q0 -156 -89 -233l-206 -207h-83v4l161 147q-22 -3 -48 -3q-144 0 -215 88t-64 245q63 0 90 5.5t41.5 9t25.5 13l18.5 16t12.5 21t7.5 24.5t4 31t1.5 34v76
h-312v60h656v-60h-279z" />
    <glyph glyph-name="uF0225" unicode="&#xf0225;" horiz-adv-x="906" 
d="M-40 740h986v-60h-272v-173q154 -27 154 -236q0 -123 -72 -192.5t-192 -57.5v60q99 -7 149 45.5t50 145.5q0 179 -133 179q-147 0 -140 -220h-64q7 220 -141 220q-133 0 -133 -179q0 -93 50 -145.5t149 -45.5v-60q-120 -12 -192 57.5t-72 192.5q0 240 198 240
q65 0 111 -33t62 -93q15 55 54.5 87.5t96.5 37.5v170h-649v60zM617 -28h63l177 -197h-81l-128 159l-134 -159h-81zM621 -250h65l110 -152h-76z" />
    <glyph glyph-name="uF0226" unicode="&#xf0226;" horiz-adv-x="390" 
d="M-40 740h587v-60h-587v60zM303 106q-109 0 -176.5 63t-67.5 170t68 171.5t176 64.5t176 -64.5t68 -171t-70 -170.5l-176 -190h-83v4l129 126q-21 -3 -44 -3zM124 339q0 -81 48.5 -128.5t130.5 -47.5t130.5 47.5t48.5 128.5t-48.5 128.5t-130.5 47.5t-130.5 -47.5
t-48.5 -128.5z" />
    <glyph glyph-name="uF0227" unicode="&#xf0227;" horiz-adv-x="395" 
d="M354 383l183 -86v-70h-1l-213 -227h-81v4l243 249l-181 90l-77 -65.5t-98 -78.5h-93v6q104 77 213 167q-79 46 -118.5 96t-39.5 120t54.5 118t137.5 48t135 -47t52 -126q0 -104 -116 -198zM190 662.5q-34 -34.5 -34 -86t35.5 -89.5t106.5 -76q31 25 51 45t38.5 53.5
t18.5 66.5q0 56 -32.5 88.5t-91 32.5t-92.5 -34.5z" />
    <glyph glyph-name="uF0228" unicode="&#xf0228;" horiz-adv-x="384" 
d="M516 680h-358v-6l357 -293q0 -68 -50 -116l-253 -265h-83v4l214 209q-7 -1 -21 -1q-111 0 -170 65.5t-59 178.5v224h-133v60h556v-60zM158 460q0 -191 164 -191q58 0 93 27t41 68l-298 244v-148z" />
    <glyph glyph-name="uF0229" unicode="&#xf0229;" horiz-adv-x="523" 
d="M88 425l45 -1q138 0 175 36q15 16 25 32t15 48q7 52 7 140h-395v60h716v-60h-257q-2 -111 -16.5 -169.5t-51.5 -86.5h325v-55h-522v-146q0 -75 11.5 -107.5t33 -44.5t55.5 -12q63 0 82 40t18 131h66q8 -231 -166 -231q-90 0 -128 58t-38 166v202zM490 -20h-71l257 380
v-74z" />
    <glyph glyph-name="uF022A" unicode="&#xf022a;" horiz-adv-x="608" 
d="M483 500h-176q-59 0 -95.5 -22.5t-36.5 -67.5q0 -62 76 -88q35 8 69 8q79 0 133.5 -38t73.5 -99l-148 -136h-83l160 155q-38 58 -135 58q-73 0 -117 -42t-44 -109.5t45 -110t114 -42.5t99.5 21.5t43.5 62.5h65q-11 -61 -61 -102.5t-144.5 -41.5t-160.5 60t-66 153
q0 114 88 173q-74 39 -74 115.5t53 114.5t144 38h112v120h-458v60h688v-60h-165v-180zM301 -164h65l110 -152h-76z" />
    <glyph glyph-name="uF022B" unicode="&#xf022b;" horiz-adv-x="942" 
d="M-40 740h1022v-60h-1022v60zM284 67q-102 0 -167.5 63.5t-65.5 163.5t66 164t167 64q66 0 117.5 -32t78.5 -92q24 58 77.5 91t119.5 33q101 0 167 -64t66 -164q0 -81 -43.5 -138.5t-117.5 -78.5l151 -168h-81l-128 158h-1l-133 -158h-81l152 163q-107 23 -148 118
q-28 -60 -79 -91.5t-117 -31.5zM162.5 174q46.5 -46 121 -46t119 46t44.5 120t-44.5 120.5t-119 46.5t-121 -46t-46.5 -120.5t46.5 -120.5zM559 174.5q45 -46.5 119.5 -46.5t120.5 45.5t46 120.5t-46.5 121t-120.5 46t-119 -46.5t-45 -120t45 -120z" />
    <glyph glyph-name="uF022C" unicode="&#xf022c;" horiz-adv-x="789" 
d="M943 680h-391v-198q50 89 167 89q102 0 162 -64t60 -168h-64q0 81 -43.5 126.5t-123 45.5t-119 -50.5t-39.5 -141.5v-319h-65v194l-205 -223h-83l145 145q-20 -2 -31 -2q-100 0 -162.5 61.5t-62.5 164t62 166.5t163 64q120 0 174 -86v196h-527v60h983v-60zM153 339
q0 -81 44.5 -125.5t124.5 -44.5t122.5 45.5t42.5 125.5t-43.5 125t-123.5 45t-123.5 -45t-43.5 -126zM119 112q20 0 34.5 -14.5t14.5 -34.5t-14.5 -34.5t-34.5 -14.5t-34.5 14.5t-14.5 34.5t14.5 34.5t34.5 14.5z" />
    <glyph glyph-name="uF022D" unicode="&#xf022d;" horiz-adv-x="656" 
d="M337 680v-99q0 -135 -38.5 -181.5t-148.5 -46.5v-98q0 -86 42.5 -126t129.5 -40q126 0 158 83q-96 53 -96 177q0 95 58.5 149.5t154.5 54.5t154.5 -54.5t58.5 -149.5t-58.5 -149.5t-154.5 -54.5q-33 0 -61 6l-214 -235h-83v5l121 112q-20 -3 -41 -3q-108 0 -171 58.5
t-63 164.5v154h37q55 0 80 3.5t44 22.5t23 51.5t4 97.5v98h-316v60h853v-60h-473zM704.5 454q-40.5 39 -107.5 39t-107.5 -39t-40.5 -105t40.5 -105t107.5 -39t107.5 39t40.5 105t-40.5 105zM110 31q20 0 34.5 -14.5t14.5 -34.5t-14.5 -34.5t-34.5 -14.5t-34.5 14.5
t-14.5 34.5t14.5 34.5t34.5 14.5z" />
    <glyph glyph-name="uF022E" unicode="&#xf022e;" horiz-adv-x="422" 
d="M-40 740h586v-60h-245v-255q0 -95 -31.5 -141.5t-106.5 -46.5t-110 49.5t-31 138.5h64q0 -61 9.5 -85.5t25.5 -33.5t41 -9t41 9t23 29q11 31 11 90v255h-277v60zM252 0h-83l377 406v-76zM67 158q20 0 34.5 -14.5t14.5 -34.5t-14.5 -34.5t-34.5 -14.5t-34.5 14.5
t-14.5 34.5t14.5 34.5t34.5 14.5z" />
    <glyph glyph-name="uF022F" unicode="&#xf022f;" horiz-adv-x="519" 
d="M-40 740h761v-60h-761v60zM700 518v-58h-248v-54q0 -160 -50 -217q-46 -53 -139 -53q-135 0 -171 113q-18 60 -18 157v112h65v-90q0 -134 15 -167q23 -47 57 -58q22 -7 52 -7t52 7t35.5 24.5t21 33.5t10.5 49q5 42 5 118v90h313zM434 0h-83l349 399v-74zM144 73
q20 0 34.5 -14.5t14.5 -34.5t-14.5 -34.5t-34.5 -14.5t-34.5 14.5t-14.5 34.5t14.5 34.5t34.5 14.5z" />
    <glyph glyph-name="uF0230" unicode="&#xf0230;" horiz-adv-x="769" 
d="M531 680v-227q55 90 179 90q97 0 156.5 -61.5t59.5 -160.5h-65q0 78 -41.5 120t-120 42t-123.5 -53t-45 -136v-294h-65v326l-254 -326h-83l210 251q-22 -2 -34 -2q-101 0 -152.5 65.5t-51.5 175.5v190h-141v60h965v-60h-394zM166 680v-189q0 -92 35 -138.5t118 -46.5
q66 0 105.5 50t41.5 124v200h-300zM145 179q0 -20 -14.5 -34.5t-34.5 -14.5t-34.5 14.5t-14.5 34.5t14.5 34.5t34.5 14.5t34.5 -14.5t14.5 -34.5z" />
    <glyph glyph-name="uF0231" unicode="&#xf0231;" horiz-adv-x="1797" 
d="M1847 680h-506v-198q50 89 167 89q102 0 162.5 -64.5t60.5 -172t-77 -169.5t-199 -51v60q94 -8 152.5 34.5t58.5 127t-43.5 130t-123 45.5t-119 -50.5t-39.5 -141.5v-319h-65v195q-54 -86 -174 -86q-100 0 -162.5 63.5t-62.5 166.5q0 81 -43.5 126.5t-123 45.5
t-119 -50.5t-39.5 -141.5v-319h-65v195q-54 -86 -174 -86q-100 0 -162.5 63.5t-62.5 166.5t62 167t163 64q120 0 174 -86v196h-527v60h1887v-60zM197.5 213.5q44.5 -44.5 124.5 -44.5t122.5 45.5t42.5 125.5t-43.5 125t-123.5 45t-123.5 -45t-43.5 -126t44.5 -125.5z
M552 680v-198q50 89 167 89q131 0 191 -103q28 48 78 75t114 27q120 0 174 -86v196h-724zM986.5 213.5q44.5 -44.5 124.5 -44.5t122.5 45.5t42.5 125.5t-43.5 125t-123.5 45t-123.5 -45t-43.5 -126t44.5 -125.5z" />
    <glyph glyph-name="uF0232" unicode="&#xf0232;" horiz-adv-x="1807" 
d="M1847 680h-506v-198q50 89 167 89q102 0 162.5 -64.5t60.5 -172t-77 -169.5t-199 -51v60q94 -8 152.5 34.5t58.5 127t-43.5 130t-123 45.5t-119 -50.5t-39.5 -141.5v-319h-65v195q-54 -86 -174 -86q-100 0 -162.5 63.5t-62.5 166.5q0 81 -43.5 126.5t-123 45.5
t-119 -50.5t-39.5 -141.5v-319h-65v195q-54 -86 -174 -86q-100 0 -162.5 63.5t-62.5 166.5t62 167t163 64q120 0 174 -86v196h-527v60h1887v-60zM197.5 213.5q44.5 -44.5 124.5 -44.5t122.5 45.5t42.5 125.5t-43.5 125t-123.5 45t-123.5 -45t-43.5 -126t44.5 -125.5z
M552 680v-198q50 89 167 89q131 0 191 -103q28 48 78 75t114 27q120 0 174 -86v196h-724zM986.5 213.5q44.5 -44.5 124.5 -44.5t122.5 45.5t42.5 125.5t-43.5 125t-123.5 45t-123.5 -45t-43.5 -126t44.5 -125.5zM1143 38q20 0 34.5 -14.5t14.5 -34.5t-14.5 -34.5
t-34.5 -14.5t-34.5 14.5t-14.5 34.5t14.5 34.5t34.5 14.5zM352 38q20 0 34.5 -14.5t14.5 -34.5t-14.5 -34.5t-34.5 -14.5t-34.5 14.5t-14.5 34.5t14.5 34.5t34.5 14.5z" />
    <glyph glyph-name="uF0233" unicode="&#xf0233;" horiz-adv-x="1697" 
d="M1737 740v-60h-140v-680h-65v212q-49 -67 -154 -67q-19 0 -37 3q-20 -72 -81.5 -110.5t-147.5 -38.5q-108 0 -171.5 61t-63.5 168v111q0 81 -43.5 126.5t-123 45.5t-119 -50.5t-39.5 -141.5v-319h-65v195q-54 -86 -174 -86q-100 0 -162.5 63.5t-62.5 166.5t62 167t163 64
q120 0 174 -86v196h-527v60h1777zM197.5 213.5q44.5 -44.5 124.5 -44.5t122.5 45.5t42.5 125.5t-43.5 125t-123.5 45t-123.5 -45t-43.5 -126t44.5 -125.5zM552 680v-198q50 89 167 89q83 0 139.5 -44t74.5 -120q46 0 69 5t39 24.5t20 51.5t4 94v98h-513zM942 353v-123
q0 -87 42 -129t119 -42t121 28.5t55 80.5q-49 25 -76 72t-27 109q0 90 56.5 147t145.5 57q107 0 154 -62v189h-403v-99q0 -135 -38.5 -181.5t-148.5 -46.5zM1388 205q66 0 105 39t39 105t-39 105t-105 39t-106.5 -39t-40.5 -105t40.5 -105t106.5 -39z" />
    <glyph glyph-name="uF0234" unicode="&#xf0234;" horiz-adv-x="1415" 
d="M1455 740v-60h-140v-680h-65v199q-55 -95 -185 -95q-96 0 -161.5 58.5t-65.5 149.5q0 117 92 172h-156q-95 0 -117.5 -7.5t-43.5 -17t-32 -23.5q-27 -33 -29 -84v-352h-65v195q-54 -86 -174 -86q-100 0 -162.5 63.5t-62.5 166.5t62 167t163 64q120 0 174 -86v196h-527v60
h1495zM197.5 213.5q44.5 -44.5 124.5 -44.5t122.5 45.5t42.5 125.5t-43.5 125t-123.5 45t-123.5 -45t-43.5 -126t44.5 -125.5zM1250 345v335h-698v-207q34 56 118 64q43 4 81 4h355v-57h-26q-81 0 -129 -46.5t-48 -120t47.5 -113.5t123.5 -40t126 53t50 128z" />
    <glyph glyph-name="uF0235" unicode="&#xf0235;" horiz-adv-x="1601" 
d="M1641 740v-60h-140v-680h-65v460h-202v-84q0 -160 -50 -217q-46 -53 -139 -53q-109 0 -150 70q-20 35 -28 73.5t-10 91.5q0 87 -33.5 128.5t-112 41.5t-119 -50.5t-40.5 -141.5v-319h-65v195q-54 -86 -174 -86q-100 0 -162.5 63.5t-62.5 166.5t62 167t163 64
q120 0 174 -86v196h-527v60h1681zM197.5 213.5q44.5 -44.5 124.5 -44.5t122.5 45.5t42.5 125.5t-43.5 125t-123.5 45t-123.5 -45t-43.5 -126t44.5 -125.5zM1436 518v162h-884v-199q53 90 169 90q100 0 150 -61t50 -169q2 -80 23 -125q25 -50 101 -50q63 0 87 32
q14 17 21.5 33t10.5 49q5 42 5 118v120h267z" />
    <glyph glyph-name="uF0236" unicode="&#xf0236;" horiz-adv-x="1460" 
d="M1241 506h-65q-109 -1 -172.5 -51t-63.5 -145t55.5 -148.5t146.5 -53.5t143.5 53.5t52.5 145.5h65q0 -117 -72 -188t-189 -71t-192 71t-75 186q0 14 2 36q-1 81 -43 125.5t-121 44.5t-120 -50.5t-41 -141.5v-319h-65v195q-54 -86 -174 -86q-100 0 -162.5 63.5
t-62.5 166.5t62 167t163 64q120 0 174 -86v196h-527v60h1540v-60h-259v-174zM197.5 213.5q44.5 -44.5 124.5 -44.5t122.5 45.5t42.5 125.5t-43.5 125t-123.5 45t-123.5 -45t-43.5 -126t44.5 -125.5zM552 680v-200q52 91 170 91q72 0 121.5 -32t72.5 -88q76 113 260 115v114
h-624z" />
    <glyph glyph-name="uF0237" unicode="&#xf0237;" horiz-adv-x="1609" 
d="M1649 740v-60h-140v-680h-65v680h-191v-261q0 -117 -45.5 -179.5t-149.5 -62.5q-177 0 -193 194q-17 140 -156 140q-78 0 -117.5 -50.5t-39.5 -141.5v-319h-65v195q-54 -86 -174 -86q-100 0 -162.5 63.5t-62.5 166.5t62 167t163 64q120 0 174 -86v196h-527v60h1689z
M197.5 213.5q44.5 -44.5 124.5 -44.5t122.5 45.5t42.5 125.5t-43.5 125t-123.5 45t-123.5 -45t-43.5 -126t44.5 -125.5zM552 680v-198q50 89 167 89q92 0 144 -57v166h-311zM1188 418v262h-260v-262q0 -91 27 -136t103 -45t103 45t27 136z" />
    <glyph glyph-name="uF0238" unicode="&#xf0238;" horiz-adv-x="1100" 
d="M1140 680h-542v-283q59 86 184 86q104 0 169.5 -65.5t65.5 -173.5t-70 -174t-182 -63q-15 0 -22 1v60q92 -8 150.5 39t58.5 133.5t-49 134.5t-130.5 48t-128 -46.5t-46.5 -127.5v-249h-65v439h-151q-100 0 -160 -46t-60 -143t49 -145.5t159 -48.5v-58h-8
q-136 0 -201 68.5t-65 184.5q0 65 28.5 116t78.5 74h-178v58h508v181h-573v60h1180v-60z" />
    <glyph glyph-name="uF0239" unicode="&#xf0239;" horiz-adv-x="1412" 
d="M1452 740v-60h-140v-680h-65v439h-151q-101 0 -160.5 -45t-59.5 -143t49 -146.5t159 -48.5v-58h-8q-136 0 -201 68.5t-65 178t54 171.5q-35 95 -155 95q-78 0 -117.5 -50.5t-39.5 -141.5v-319h-65v195q-54 -86 -174 -86q-100 0 -162.5 63.5t-62.5 166.5t62 167t163 64
q120 0 174 -86v196h-527v60h1492zM197.5 213.5q44.5 -44.5 124.5 -44.5t122.5 45.5t42.5 125.5t-43.5 125t-123.5 45t-123.5 -45t-43.5 -126t44.5 -125.5zM1247 499v181h-695v-198q50 89 167 89q68 0 118.5 -30t77.5 -83q70 41 181 41h151zM359 36q20 0 34.5 -14.5
t14.5 -34.5t-14.5 -34.5t-34.5 -14.5t-34.5 14.5t-14.5 34.5t14.5 34.5t34.5 14.5z" />
    <glyph glyph-name="uF023A" unicode="&#xf023a;" horiz-adv-x="1923" 
d="M1963 740v-60h-140v-680h-65v235q-25 -54 -79.5 -87.5t-130.5 -33.5q-118 0 -187.5 67.5t-82.5 187.5q-21 70 -154 70q-96 0 -147 -47t-51 -142t41 -144.5t147 -49.5v-58h-8q-132 0 -189 69.5t-57 183.5q0 51 12 91q-1 80 -42 124.5t-120 44.5t-118.5 -50.5t-39.5 -141.5
v-319h-65v195q-54 -86 -174 -86q-100 0 -162.5 63.5t-62.5 166.5t62 167t163 64q120 0 174 -86v196h-527v60h2003zM197.5 213.5q44.5 -44.5 124.5 -44.5t122.5 45.5t42.5 125.5t-43.5 125t-123.5 45t-123.5 -45t-43.5 -126t44.5 -125.5zM552 680v-198q50 89 167 89
q77 0 128.5 -38t72.5 -105q67 71 204 71q113 0 172 -49q64 2 84.5 7.5t34 9.5t23 13.5l16.5 16t11.5 21t6.5 24.5t3.5 30t1.5 34v74h-925zM1542 680v-36q0 -64 -6.5 -103.5t-25.5 -74.5q-38 -65 -165 -71q-2 -99 53.5 -160t152.5 -61t152 65.5t55 169.5v271h-216z" />
    <glyph glyph-name="uF023B" unicode="&#xf023b;" horiz-adv-x="1396" 
d="M1436 740v-60h-160v-680h-65v275l-264 -276h-88v4l348 352q-12 69 -55 110t-111 41q-144 0 -161 -169h-56q0 78 -32 124.5t-105 46.5t-104 -49t-31 -140v-319h-65v195q-54 -86 -174 -86q-100 0 -162.5 63.5t-62.5 166.5t62 167t163 64q120 0 174 -86v196h-527v60h1476z
M197.5 213.5q44.5 -44.5 124.5 -44.5t122.5 45.5t42.5 125.5t-43.5 125t-123.5 45t-123.5 -45t-43.5 -126t44.5 -125.5zM1211 680h-659v-190q43 76 144 76q121 0 161 -107q50 108 176 108q65 0 111 -27.5t67 -74.5v215z" />
    <glyph glyph-name="uF023C" unicode="&#xf023c;" horiz-adv-x="1819" 
d="M1859 740v-60h-140v-680h-65v198q-59 -95 -191 -95q-103 0 -168.5 66t-65.5 170q0 53 19 100h-103q-101 0 -160.5 -45t-59.5 -143t49 -146.5t159 -48.5v-58h-8q-136 0 -201 68.5t-65 184.5q0 49 13 91q-1 80 -42 124.5t-120 44.5t-118.5 -50.5t-39.5 -141.5v-319h-65v195
q-54 -86 -174 -86q-100 0 -162.5 63.5t-62.5 166.5t62 167t163 64q120 0 174 -86v196h-527v60h1899zM197.5 213.5q44.5 -44.5 124.5 -44.5t122.5 45.5t42.5 125.5t-43.5 125t-123.5 45t-123.5 -45t-43.5 -126t44.5 -125.5zM1145 499h141q65 76 177 76q132 0 191 -95v200
h-1102v-198q50 89 167 89q78 0 130 -39t72 -107q74 74 224 74zM1473 163q82 0 131.5 48t49.5 128t-49.5 128t-131.5 48t-130.5 -47.5t-48.5 -128.5t48.5 -128.5t130.5 -47.5z" />
    <glyph glyph-name="uF023D" unicode="&#xf023d;" horiz-adv-x="1524" 
d="M1359 740h205v-60h-140v-680h-65v204q-23 -42 -76.5 -73.5t-134.5 -31.5q-127 0 -199 78.5t-74 203.5q-8 130 -136 130q-78 0 -117.5 -50.5t-39.5 -141.5v-319h-65v195q-54 -86 -174 -86q-100 0 -162.5 63.5t-62.5 166.5t62 167t163 64q120 0 174 -86v196h-527v60h1003
q37 10 70 10q82 0 135 -48t53 -128q0 -167 -215 -183q-41 -3 -93 -2q-5 -105 49 -167.5t163 -62.5q85 0 144.5 54.5t59.5 135.5v391zM227.5 213.5q44.5 -44.5 124.5 -44.5t122.5 45.5t42.5 125.5t-43.5 125t-123.5 45t-123.5 -45t-43.5 -126t44.5 -125.5zM582 680v-198
q50 89 167 89q70 0 116 -34t64 -93q163 -3 213 34q44 31 44 92t-33 90.5t-91 29.5q-36 0 -63 -10h-417z" />
    <glyph glyph-name="uF023E" unicode="&#xf023e;" horiz-adv-x="1396" 
d="M1278 509h-97q-114 0 -177 -33q-71 -38 -71 -145q0 -83 48.5 -125t123 -42t114.5 32.5t40 105.5h59v-294h-65v154q-19 -27 -58 -42.5t-86 -15.5q-108 0 -175 62.5t-67 164.5v8q0 172 -158 172q-78 0 -117.5 -50.5t-39.5 -141.5v-319h-65v195q-54 -86 -174 -86
q-100 0 -162.5 63.5t-62.5 166.5t62 167t163 64q120 0 174 -86v196h-527v60h1476v-60h-158v-171zM197.5 213.5q44.5 -44.5 124.5 -44.5t122.5 45.5t42.5 125.5t-43.5 125t-123.5 45t-123.5 -45t-43.5 -126t44.5 -125.5zM552 680v-198q50 89 167 89q133 0 183 -107
q70 105 267 105h44v111h-661z" />
    <glyph glyph-name="uF023F" unicode="&#xf023f;" horiz-adv-x="1581" 
d="M1621 740v-60h-140v-680h-65v429h-225q71 -38 71 -136q0 -79 -51.5 -131t-137 -52t-143 51.5t-57.5 136.5q0 25 4 44q-1 80 -43 124.5t-121 44.5t-120 -50.5t-41 -141.5v-319h-65v195q-54 -86 -174 -86q-100 0 -162.5 63.5t-62.5 166.5t62 167t163 64q120 0 174 -86v196
h-527v60h1661zM197.5 213.5q44.5 -44.5 124.5 -44.5t122.5 45.5t42.5 125.5t-43.5 125t-123.5 45t-123.5 -45t-43.5 -126t44.5 -125.5zM1161.5 203q36.5 34 36.5 93.5t-35 95.5t-92 36t-95 -34.5t-38 -97t39 -95t93.5 -32.5t91 34zM1416 487v193h-864v-200q52 91 170 91
q78 0 129.5 -37.5t71.5 -102.5q58 56 173 56h320z" />
    <glyph glyph-name="uF0240" unicode="&#xf0240;" horiz-adv-x="1406" 
d="M1446 740v-60h-140v-680h-65v299q-51 -90 -174 -90q-86 0 -139 50t-67 135q-27 117 -152 117q-78 0 -117.5 -50.5t-39.5 -141.5v-319h-65v195q-54 -86 -174 -86q-100 0 -162.5 63.5t-62.5 166.5t62 167t163 64q120 0 174 -86v196h-527v60h1486zM197.5 213.5
q44.5 -44.5 124.5 -44.5t122.5 45.5t42.5 125.5t-43.5 125t-123.5 45t-123.5 -45t-43.5 -126t44.5 -125.5zM552 680v-198q50 89 166 89q85 0 138 -56v165h-304zM921 680v-220q0 -191 160 -191q70 0 115 50t45 125v236h-320z" />
    <glyph glyph-name="uF0241" unicode="&#xf0241;" horiz-adv-x="1406" 
d="M1446 740v-60h-140v-680h-65v292l-266 -292h-83l201 214q-18 -2 -26 -2q-87 0 -139.5 49t-66.5 133q-27 117 -152 117q-78 0 -117.5 -50.5t-39.5 -141.5v-319h-65v195q-54 -86 -174 -86q-100 0 -162.5 63.5t-62.5 166.5t62 167t163 64q120 0 174 -86v196h-527v60h1486z
M197.5 213.5q44.5 -44.5 124.5 -44.5t122.5 45.5t42.5 125.5t-43.5 125t-123.5 45t-123.5 -45t-43.5 -126t44.5 -125.5zM552 680v-198q50 89 166 89q85 0 138 -56v165h-304zM921 680v-220q0 -191 160 -191q70 0 115 50t45 125v236h-320z" />
    <glyph glyph-name="uF0242" unicode="&#xf0242;" horiz-adv-x="1741" 
d="M1781 680h-504v-227q55 90 179 90q97 0 156.5 -61.5t59.5 -162.5t-72.5 -160t-188.5 -51v58q87 -8 141.5 34.5t54.5 120.5t-41.5 120t-120 42t-123.5 -53t-45 -136v-294h-65v330q-51 -84 -161 -84q-83 0 -133 47t-65 128q-35 90 -144 90q-78 0 -117.5 -50.5t-39.5 -141.5
v-319h-65v195q-54 -86 -174 -86q-100 0 -162.5 63.5t-62.5 166.5t62 167t163 64q120 0 174 -86v196h-527v60h1821v-60zM197.5 213.5q44.5 -44.5 124.5 -44.5t122.5 45.5t42.5 125.5t-43.5 125t-123.5 45t-123.5 -45t-43.5 -126t44.5 -125.5zM552 680v-198q50 89 166 89
q77 0 129 -47v156h-295zM912 680v-189q0 -92 35 -138.5t110.5 -46.5t115 53t39.5 129v192h-300z" />
    <glyph glyph-name="uF0243" unicode="&#xf0243;" horiz-adv-x="1742" 
d="M1782 680h-504v-227q55 90 179 90q97 0 156.5 -61.5t59.5 -162.5t-72.5 -160t-188.5 -51v58q87 -8 141.5 34.5t54.5 120.5t-41.5 120t-120 42t-123.5 -53t-45 -136v-294h-65v330q-51 -84 -161 -84q-83 0 -133 47t-65 128q-35 90 -144 90q-78 0 -117.5 -50.5t-39.5 -141.5
v-319h-65v195q-54 -86 -174 -86q-100 0 -162.5 63.5t-62.5 166.5t62 167t163 64q120 0 174 -86v196h-527v60h1821v-60zM198.5 213.5q44.5 -44.5 124.5 -44.5t122.5 45.5t42.5 125.5t-43.5 125t-123.5 45t-123.5 -45t-43.5 -126t44.5 -125.5zM553 680v-198q50 89 166 89
q77 0 129 -47v156h-295zM913 680v-189q0 -92 35 -138.5t110.5 -46.5t115 53t39.5 129v192h-300zM350 40q20 0 34.5 -14.5t14.5 -34.5t-14.5 -34.5t-34.5 -14.5t-34.5 14.5t-14.5 34.5t14.5 34.5t34.5 14.5z" />
    <glyph glyph-name="uF0244" unicode="&#xf0244;" horiz-adv-x="1742" 
d="M1782 680h-504v-227q55 90 179 90q97 0 156.5 -61.5t59.5 -162.5t-72.5 -160t-188.5 -51v58q87 -8 141.5 34.5t54.5 120.5t-41.5 120t-120 42t-123.5 -53t-45 -136v-294h-65v330q-51 -84 -161 -84q-83 0 -133 47t-65 128q-35 90 -144 90q-78 0 -117.5 -50.5t-39.5 -141.5
v-319h-65v195q-54 -86 -174 -86q-100 0 -162.5 63.5t-62.5 166.5t62 167t163 64q120 0 174 -86v196h-527v60h1821v-60zM198.5 213.5q44.5 -44.5 124.5 -44.5t122.5 45.5t42.5 125.5t-43.5 125t-123.5 45t-123.5 -45t-43.5 -126t44.5 -125.5zM553 680v-198q50 89 166 89
q77 0 129 -47v156h-295zM913 680v-189q0 -92 35 -138.5t110.5 -46.5t115 53t39.5 129v192h-300zM1019 128q20 0 34.5 -14.5t14.5 -34.5t-14.5 -34.5t-34.5 -14.5t-34.5 14.5t-14.5 34.5t14.5 34.5t34.5 14.5zM350 40q20 0 34.5 -14.5t14.5 -34.5t-14.5 -34.5t-34.5 -14.5
t-34.5 14.5t-14.5 34.5t14.5 34.5t34.5 14.5z" />
    <glyph glyph-name="uF0245" unicode="&#xf0245;" horiz-adv-x="1488" 
d="M1528 740v-60h-140v-680h-65v194q-61 -100 -194 -100q-108 0 -180 68.5t-72 176.5q0 81 -43.5 126.5t-123 45.5t-119 -50.5t-39.5 -141.5v-319h-65v195q-54 -86 -174 -86q-100 0 -162.5 63.5t-62.5 166.5t62 167t163 64q120 0 174 -86v196h-527v60h1568zM197.5 213.5
q44.5 -44.5 124.5 -44.5t122.5 45.5t42.5 125.5t-43.5 125t-123.5 45t-123.5 -45t-43.5 -126t44.5 -125.5zM552 680v-198q50 89 167 89q65 0 114 -27.5t77 -76.5q33 54 90.5 85.5t128.5 31.5q132 0 194 -101v197h-771zM1323 339q0 81 -51.5 133t-131 52t-132.5 -39l294 -237
q21 42 21 91zM942 339q0 -86 54.5 -135.5t137.5 -49.5t136 51l-298 241q-30 -46 -30 -107zM353 42q20 0 34.5 -14.5t14.5 -34.5t-14.5 -34.5t-34.5 -14.5t-34.5 14.5t-14.5 34.5t14.5 34.5t34.5 14.5z" />
    <glyph glyph-name="uF0246" unicode="&#xf0246;" horiz-adv-x="1525" 
d="M1565 740v-60h-140v-680h-65v393h-198v-64q0 -216 -172 -216q-75 0 -126.5 48t-51.5 127.5t55 119.5q-35 103 -158 103q-78 0 -117.5 -50.5t-39.5 -141.5v-319h-65v195q-54 -86 -174 -86q-100 0 -162.5 63.5t-62.5 166.5t62 167t163 64q120 0 174 -86v196h-527v60h1605z
M197.5 213.5q44.5 -44.5 124.5 -44.5t122.5 45.5t42.5 125.5t-43.5 125t-123.5 45t-123.5 -45t-43.5 -126t44.5 -125.5zM552 680v-198q50 89 167 89q75 0 128 -36t77 -99q48 15 119 15h55v229h-546zM1098 329v64h-62q-78 0 -118.5 -24t-40.5 -88q0 -48 31.5 -78.5t87 -30.5
t79 38.5t23.5 118.5zM1360 451v229h-198v-229h198z" />
    <glyph glyph-name="uF0247" unicode="&#xf0247;" horiz-adv-x="1500" 
d="M1540 740v-60h-140v-680h-65v393h-198v-64q0 -216 -172 -216q-75 0 -126.5 48t-51.5 122q0 97 75 138q-38 90 -153 90q-78 0 -117.5 -50.5t-39.5 -141.5v-319h-65v195q-54 -86 -174 -86q-100 0 -162.5 63.5t-62.5 166.5t62 167t163 64q120 0 174 -86v196h-527v60h1580z
M197.5 213.5q44.5 -44.5 124.5 -44.5t122.5 45.5t42.5 125.5t-43.5 125t-123.5 45t-123.5 -45t-43.5 -126t44.5 -125.5zM552 680v-198q50 89 167 89q73 0 125.5 -34.5t77.5 -94.5q40 9 96 9h55v229h-521zM1073 329v64h-62q-78 0 -118.5 -24t-40.5 -88q0 -48 31.5 -78.5
t87 -30.5t79 38.5t23.5 118.5zM1335 451v229h-198v-229h198zM359 37q20 0 34.5 -14.5t14.5 -34.5t-14.5 -34.5t-34.5 -14.5t-34.5 14.5t-14.5 34.5t14.5 34.5t34.5 14.5z" />
    <glyph glyph-name="uF0248" unicode="&#xf0248;" horiz-adv-x="1519" 
d="M1558 740v-60h-140v-680h-65v235q-25 -54 -79.5 -87.5t-130.5 -33.5q-124 0 -194 74t-78 206q-11 55 -53.5 86t-114.5 31t-111.5 -50.5t-39.5 -141.5v-319h-65v195q-54 -86 -174 -86q-100 0 -162.5 63.5t-62.5 166.5t62 167t163 64q120 0 174 -86v196h-527v60h1598z
M197.5 213.5q44.5 -44.5 124.5 -44.5t122.5 45.5t42.5 125.5t-43.5 125t-123.5 45t-123.5 -45t-43.5 -126t44.5 -125.5zM552 680v-198q50 89 167 89q71 0 123.5 -32t76.5 -88q99 6 124 39q11 15 17 26t8 36q4 34 4 93v35h-520zM1137 680v-36q0 -64 -6.5 -103.5t-26.5 -74.5
q-37 -65 -164 -71q-2 -99 53.5 -160t152.5 -61t152 65.5t55 169.5v271h-216z" />
    <glyph glyph-name="uF0249" unicode="&#xf0249;" horiz-adv-x="1686" 
d="M1726 680h-272v-173q154 -27 154 -236q0 -123 -72 -192.5t-192 -57.5v60q99 -7 149 45.5t50 145.5q0 179 -133 179q-147 0 -140 -220h-64q7 220 -141 220q-133 0 -133 -179q0 -93 50 -145.5t149 -45.5v-60q-120 -12 -192 57.5t-72 192.5q0 32 5 69q0 81 -41.5 126
t-120.5 45t-118.5 -50.5t-39.5 -141.5v-319h-65v195q-54 -86 -174 -86q-100 0 -162.5 63.5t-62.5 166.5t62 167t163 64q120 0 174 -86v196h-527v60h1766v-60zM197.5 213.5q44.5 -44.5 124.5 -44.5t122.5 45.5t42.5 125.5t-43.5 125t-123.5 45t-123.5 -45t-43.5 -126
t44.5 -125.5zM1389 680h-837v-198q50 89 167 89q71 0 121 -33t74 -92q51 65 151 65q65 0 111 -33t62 -93q15 55 54.5 87.5t96.5 37.5v170z" />
    <glyph glyph-name="uF024A" unicode="&#xf024a;" horiz-adv-x="1467" 
d="M1507 740v-60h-140v-680h-65v198q-59 -95 -191 -95q-103 0 -168.5 66t-65.5 170q0 81 -43.5 126.5t-123 45.5t-119 -50.5t-39.5 -141.5v-319h-65v195q-54 -86 -174 -86q-100 0 -162.5 63.5t-62.5 166.5t62 167t163 64q120 0 174 -86v196h-527v60h1547zM197.5 213.5
q44.5 -44.5 124.5 -44.5t122.5 45.5t42.5 125.5t-43.5 125t-123.5 45t-123.5 -45t-43.5 -126t44.5 -125.5zM552 680v-198q50 89 167 89q137 0 188 -111q29 54 82.5 84.5t121.5 30.5q132 0 191 -95v200h-750zM1121 163q82 0 131.5 48t49.5 128t-49.5 128t-131.5 48
t-130.5 -47.5t-48.5 -128.5t48.5 -128.5t130.5 -47.5z" />
    <glyph glyph-name="uF024B" unicode="&#xf024b;" horiz-adv-x="1944" 
d="M1983 740v-60h-140v-680h-65v235q-25 -54 -79.5 -87.5t-130.5 -33.5q-158 0 -228 119q-27 -62 -84 -96t-135 -34q-108 0 -176 64.5t-68 171.5q0 81 -43.5 126.5t-123 45.5t-119 -50.5t-39.5 -141.5v-319h-65v195q-54 -86 -174 -86q-100 0 -162.5 63.5t-62.5 166.5t62 167
t163 64q120 0 174 -86v196h-527v60h2023zM197.5 213.5q44.5 -44.5 124.5 -44.5t122.5 45.5t42.5 125.5t-43.5 125t-123.5 45t-123.5 -45t-43.5 -126t44.5 -125.5zM552 680v-198q50 89 167 89q133 0 191 -104q31 51 86 79.5t127.5 28.5t129 -32.5t84.5 -91.5q105 6 130 38
q11 14 17 25t9 36q4 33 4 95v35h-945zM1121 163q82 0 130.5 47.5t48.5 128.5t-48.5 128.5t-130.5 47.5t-130.5 -47.5t-48.5 -128.5t48.5 -128.5t130.5 -47.5zM1562 680v-36q0 -64 -6.5 -103.5t-25.5 -74.5q-38 -65 -165 -71q-2 -99 53.5 -160t152.5 -61t152 65.5t55 169.5
v271h-216z" />
    <glyph glyph-name="uF024C" unicode="&#xf024c;" horiz-adv-x="1519" 
d="M1354 740h205v-60h-140v-680h-65v740zM-40 740h1011q35 10 70 10q91 0 146 -56t55 -141q0 -126 -82 -173q-71 -40 -192 -40q-1 0 -45 2v-145q0 -138 120 -138q68 0 93 39.5t27 121.5h66q-3 -102 -44 -161.5t-136 -59.5t-143.5 51t-48.5 147v132q0 84 -34.5 128t-113.5 44
q-157 0 -157 -182v-319h-65v195q-54 -86 -174 -86q-100 0 -162.5 63.5t-62.5 166.5t62 167t163 64q120 0 174 -86v196h-527v60zM197.5 213.5q44.5 -44.5 124.5 -44.5t122.5 45.5t42.5 125.5t-43.5 125t-123.5 45t-123.5 -45t-43.5 -126t44.5 -125.5zM552 680v-202
q50 83 167 83q82 0 131.5 -43t64.5 -120h35q87 0 126 12t58 28q43 36 43 107.5t-36 108t-95 36.5t-94 -24t-42 -68l-62 -1q5 47 33 83h-329z" />
    <glyph glyph-name="uF024D" unicode="&#xf024d;" horiz-adv-x="1253" 
d="M1293 740v-60h-140v-680h-65v393h-198v-64q0 -216 -172 -216q-75 0 -126.5 48t-51.5 115.5t28 104.5h-230q-55 -27 -92.5 -51t-46 -34l-21.5 -26q-24 -28 -24 -73t31.5 -76t93 -31t94.5 35t33 90h57v-246h-65v121q-15 -24 -49 -42t-85 -18q-79 0 -127 45.5t-48 117.5
q0 77 57 128q50 44 115 77q-70 15 -110.5 62.5t-40.5 122t55 121t138.5 46.5t133 -49.5t49.5 -117.5q0 -87 -70 -144h245q47 12 110 12h55v229h-249v60h716zM423 576q0 57 -33.5 86t-88.5 29t-91 -29.5t-36 -93.5t46 -96.5t116 -32.5q87 53 87 137zM826 329v64h-62
q-78 0 -118.5 -24t-40.5 -88q0 -48 31.5 -78.5t87 -30.5t79 38.5t23.5 118.5zM1088 451v229h-198v-229h198z" />
    <glyph glyph-name="uF024E" unicode="&#xf024e;" horiz-adv-x="1681" 
d="M1721 740v-60h-140v-680h-65v235q-25 -54 -79.5 -87.5t-130.5 -33.5q-124 0 -194 74t-78 205h-144v-64q0 -216 -172 -216q-75 0 -126.5 48t-51.5 115.5t28 104.5h-230q-55 -27 -92.5 -51t-46 -34l-21.5 -26q-24 -28 -24 -73t31.5 -76t93 -31t94.5 35t33 90h57v-246h-65
v121q-15 -24 -49 -42t-85 -18q-79 0 -127 45.5t-48 117.5q0 77 57 128q50 44 115 77q-70 15 -110.5 62.5t-40.5 122t55 121t138.5 46.5t133 -49.5t49.5 -117.5q0 -87 -70 -144h245q47 12 110 12h55v229h-269v60h1164zM423 576q0 57 -33.5 86t-88.5 29t-91 -29.5t-36 -93.5
t46 -96.5t116 -32.5q87 53 87 137zM826 329v64h-62q-78 0 -118.5 -24t-40.5 -88q0 -48 31.5 -78.5t87 -30.5t79 38.5t23.5 118.5zM890 680v-229h188q103 6 127 39q11 14 17 25t9 35q4 33 4 95v35h-345zM1300 680v-36q0 -64 -6.5 -103.5t-25.5 -74.5q-38 -65 -165 -71
q-2 -99 53.5 -160t152.5 -61t152 65.5t55 169.5v271h-216z" />
    <glyph glyph-name="uF024F" unicode="&#xf024f;" horiz-adv-x="1190" 
d="M558 740h672v-60h-140v-680h-65v238q-25 -56 -80.5 -90t-133.5 -34q-124 0 -192 70t-76 199h-199l-49.5 -22.5l-51.5 -23.5t-42 -24.5t-37 -31.5q-33 -39 -33 -92t35 -86t99.5 -33t108 36.5t43.5 88.5h57v-246h-65v129q-47 -67 -141.5 -67t-148 49.5t-53.5 131.5
q0 84 57 131q29 24 55.5 38.5t67.5 32.5q-70 17 -107.5 60t-37.5 108q0 85 57.5 136.5t143 51.5t137 -52t51.5 -128t-58 -129h111q81 0 109 10t42.5 16.5t24 22t14.5 27t7 36.5q4 35 4 92v35h-186v60zM345 441q81 52 81 117t-36.5 99t-91 34t-93.5 -32.5t-39 -96.5
q0 -121 179 -121zM809 680v-36q0 -99 -15 -143.5t-36 -64.5q-48 -44 -146 -50q-2 -99 51 -155.5t151.5 -56.5t154.5 65.5t56 169.5v271h-216z" />
    <glyph glyph-name="uF0250" unicode="&#xf0250;" horiz-adv-x="1146" 
d="M567 740h619v-60h-140v-680h-65v198q-59 -95 -191 -95q-103 0 -168.5 66t-65.5 170q0 12 2 34h-235q-42 -16 -82.5 -38t-49.5 -29t-23.5 -20.5t-20.5 -25.5q-16 -34 -16 -67q0 -57 35 -90t99.5 -33t108 36.5t43.5 88.5h57v-246h-65v129q-47 -67 -141.5 -67t-148 49.5
t-53.5 128.5t44 122t124 78q-64 20 -98.5 65t-34.5 108q0 85 57.5 136.5t143 51.5t137 -52t51.5 -130.5t-69 -136.5h151q25 67 83 105.5t135 38.5q132 0 191 -95v200h-414v60zM426 562q0 61 -36.5 95t-91 34t-93.5 -32.5t-39 -95.5t42 -97t120 -35q98 53 98 131zM800 163
q82 0 131.5 48t49.5 128t-49.5 128t-131.5 48t-130.5 -47.5t-48.5 -128.5t48.5 -128.5t130.5 -47.5z" />
    <glyph glyph-name="uF0251" unicode="&#xf0251;" horiz-adv-x="1581" 
d="M1621 740v-60h-140v-680h-65v369h-473v-156q0 -154 120 -154q65 0 93 43t27 128h66q4 -107 -44.5 -169t-140.5 -62t-139.5 58.5t-47.5 155.5v126q0 81 -43.5 126.5t-123 45.5t-119 -50.5t-39.5 -141.5v-319h-65v195q-54 -86 -174 -86q-100 0 -162.5 63.5t-62.5 166.5
t62 167t163 64q120 0 174 -86v196h-527v60h1661zM197.5 213.5q44.5 -44.5 124.5 -44.5t122.5 45.5t42.5 125.5t-43.5 125t-123.5 45t-123.5 -45t-43.5 -126t44.5 -125.5zM552 680v-198q50 89 167 89q78 0 133 -39t77 -108q73 1 114 11t64.5 40t30 71t6.5 117v17h-592z
M1416 424v256h-208v-15q0 -102 -16 -158t-55 -83h279z" />
    <glyph glyph-name="uF0252" unicode="&#xf0252;" horiz-adv-x="1928" 
d="M1709 506h-65q-109 -1 -172.5 -51t-63.5 -145t55.5 -148.5t146.5 -53.5t143.5 53.5t52.5 145.5h65q0 -117 -72 -188t-189 -71t-192 71t-75 186q0 34 6 64h-425v-156q0 -154 120 -154q65 0 93 43t27 128h66q4 -107 -44.5 -169t-140.5 -62t-139.5 58.5t-47.5 155.5v126
q0 172 -149 172q-78 0 -117.5 -50.5t-39.5 -141.5v-319h-65v195q-54 -86 -174 -86q-100 0 -162.5 63.5t-62.5 166.5t62 167t163 64q120 0 174 -86v196h-527v60h2008v-60h-259v-174zM197.5 213.5q44.5 -44.5 124.5 -44.5t122.5 45.5t42.5 125.5t-43.5 125t-123.5 45
t-123.5 -45t-43.5 -126t44.5 -125.5zM552 680v-198q50 89 167 89q78 0 126.5 -39t66.5 -108q103 0 144 22q24 14 37 29.5t21 48.5q11 51 11 156h-573zM1644 680h-455q-2 -112 -16.5 -170t-51.5 -86h247q34 69 106.5 105t169.5 37v114z" />
    <glyph glyph-name="uF0253" unicode="&#xf0253;" horiz-adv-x="1862" 
d="M1745 501h-164q-67 0 -105 -19t-38 -73.5t35.5 -73.5t94 -19t93.5 -5.5t71 -20.5q73 -33 73 -134q0 -72 -56 -119t-157.5 -47t-167 55.5t-66.5 156.5h64q10 -152 175 -152q67 0 105 27.5t38 84.5q0 64 -48 82q-37 14 -114 14q-176 0 -201 111h-435v-156q0 -154 120 -154
q65 0 93 43t27 128h66q4 -107 -44.5 -169t-140.5 -62t-139.5 58.5t-47.5 155.5v149q-6 71 -49 110t-119.5 39t-116 -50.5t-39.5 -141.5v-319h-65v195q-54 -86 -174 -86q-100 0 -162.5 63.5t-62.5 166.5t62 167t163 64q120 0 174 -86v196h-527v60h1942v-60h-157v-179z
M197.5 213.5q44.5 -44.5 124.5 -44.5t122.5 45.5t42.5 125.5t-43.5 125t-123.5 45t-123.5 -45t-43.5 -126t44.5 -125.5zM552 680v-198q50 89 167 89q78 0 133 -39t77 -108q102 0 144 22q25 14 38 29.5t21 48.5q11 51 11 156h-591zM1580 561h100v119h-473q-2 -112 -16 -170.5
t-52 -85.5h234q10 137 207 137z" />
    <glyph glyph-name="uF0254" unicode="&#xf0254;" horiz-adv-x="1952" 
d="M1992 740v-60h-140v-680h-65v439h-151q-101 0 -160.5 -45t-59.5 -143t49 -146.5t159 -48.5v-58h-8q-136 0 -201 68.5t-65 184.5q0 67 23 118h-430v-156q0 -154 120 -154q65 0 93 43t27 128h66q4 -107 -44.5 -169t-140.5 -62t-139.5 58.5t-47.5 155.5v126
q0 81 -43.5 126.5t-123 45.5t-119 -50.5t-39.5 -141.5v-319h-65v195q-54 -86 -174 -86q-100 0 -162.5 63.5t-62.5 166.5t62 167t163 64q120 0 174 -86v196h-527v60h2032zM197.5 213.5q44.5 -44.5 124.5 -44.5t122.5 45.5t42.5 125.5t-43.5 125t-123.5 45t-123.5 -45
t-43.5 -126t44.5 -125.5zM552 680v-198q50 89 167 89q78 0 133 -39t77 -108q103 0 145 22q24 13 37.5 28.5t20.5 48.5q12 51 12 157h-592zM1787 499v181h-579q-2 -112 -16 -170.5t-52 -85.5h271q74 75 225 75h151z" />
    <glyph glyph-name="uF0255" unicode="&#xf0255;" horiz-adv-x="1949" 
d="M1989 740v-60h-140v-680h-65v292l-266 -292h-83l201 214q-18 -2 -26 -2q-80 0 -131 42t-70 115h-466v-156q0 -154 120 -154q65 0 93 43t27 128h66q4 -107 -44.5 -169t-140.5 -62t-139.5 58.5t-47.5 155.5v126q0 81 -43.5 126.5t-123 45.5t-119 -50.5t-39.5 -141.5v-319
h-65v195q-54 -86 -174 -86q-100 0 -162.5 63.5t-62.5 166.5t62 167t163 64q120 0 174 -86v196h-527v60h2029zM197.5 213.5q44.5 -44.5 124.5 -44.5t122.5 45.5t42.5 125.5t-43.5 125t-123.5 45t-123.5 -45t-43.5 -126t44.5 -125.5zM552 680v-198q50 89 167 89q78 0 133 -39
t77 -108q103 0 145 22q24 13 37.5 28.5t20.5 48.5q12 51 12 157h-592zM1399 456v224h-191q-2 -112 -16.5 -170.5t-52.5 -85.5h261q-1 10 -1 32zM1464 680v-220q0 -191 160 -191q70 0 115 50t45 125v236h-320z" />
    <glyph glyph-name="uF0256" unicode="&#xf0256;" horiz-adv-x="2591" 
d="M2631 680h-272v-173q154 -27 154 -236q0 -123 -72 -192.5t-192 -57.5v60q99 -7 149 45.5t50 145.5q0 179 -133 179q-147 0 -140 -220h-64q7 220 -141 220q-133 0 -133 -179q0 -93 50 -145.5t149 -45.5v-60q-115 -11 -187 53t-77 180q-51 -45 -131 -45q-173 0 -211 160
h-487v-156q0 -154 120 -154q65 0 93 43t27 128h66q4 -107 -44.5 -169t-140.5 -62t-139.5 58.5t-47.5 155.5v126q0 81 -43.5 126.5t-123 45.5t-119 -50.5t-39.5 -141.5v-319h-65v195q-54 -86 -174 -86q-100 0 -162.5 63.5t-62.5 166.5t62 167t163 64q120 0 174 -86v196h-527
v60h2671v-60zM197.5 213.5q44.5 -44.5 124.5 -44.5t122.5 45.5t42.5 125.5t-43.5 125t-123.5 45t-123.5 -45t-43.5 -126t44.5 -125.5zM552 680v-198q50 89 167 89q78 0 133 -39t77 -108q103 0 145 22q24 13 37.5 28.5t20.5 48.5q12 51 12 157h-592zM1421 459v221h-213
q-2 -112 -16.5 -170.5t-52.5 -85.5h283q-1 11 -1 35zM2294 680h-808v-217q0 -194 155 -194q59 0 91 24.5t51 74.5q36 143 187 143q65 0 111 -33t62 -93q15 55 54.5 87.5t96.5 37.5v170z" />
    <glyph glyph-name="uF0257" unicode="&#xf0257;" horiz-adv-x="1572" 
d="M1606 740v-60h-140v-680h-65v212q-49 -67 -154 -67q-19 0 -37 3q-20 -72 -81.5 -110.5t-154.5 -38.5t-156 54t-71 149q-57 -57 -153 -57q-23 0 -44 3q-19 -72 -81 -110.5t-148 -38.5q-108 0 -171.5 61t-63.5 168v179h37q55 0 80 3.5t44 22.5t23 51.5t4 97.5v98h-316v60
h1648zM490.5 244q40.5 -39 108.5 -39t107.5 38t39.5 106t-39.5 106t-107.5 38t-108.5 -39t-40.5 -105t40.5 -105zM151 353v-123q0 -87 42 -129t119 -42t121 28.5t55 80.5q-103 52 -103 181q0 95 58.5 149.5t145.5 54.5t139 -39t68 -107q49 0 72.5 4.5t40.5 24t21 51.5t4 95
v98h-596v-99q0 -135 -38.5 -181.5t-148.5 -46.5zM811 353v-123q0 -87 42 -129t119 -42t121 28.5t55 80.5q-49 25 -76 72t-27 109q0 90 56.5 147t145.5 57q107 0 154 -62v189h-403v-99q0 -135 -38.5 -181.5t-148.5 -46.5zM1257 205q66 0 105 39t39 105t-39 105t-105 39
t-106.5 -39t-40.5 -105t40.5 -105t106.5 -39z" />
    <glyph glyph-name="uF0258" unicode="&#xf0258;" horiz-adv-x="1338" 
d="M1378 740v-60h-140v-680h-65v439h-151q-101 0 -160.5 -45t-59.5 -143t49 -146.5t159 -48.5v-58h-8q-117 0 -181.5 51.5t-79.5 141.5q-55 -46 -144 -46q-28 0 -48 4q-19 -72 -81 -111t-148 -39q-108 0 -171.5 61t-63.5 168v179h37q55 0 80 3.5t44 22.5t23 51.5t4 97.5v98
h-313v60h1418zM489.5 244q40.5 -39 107.5 -39t107.5 39t40.5 105t-40.5 105t-107.5 39t-107.5 -39t-40.5 -105t40.5 -105zM1173 499v181h-836v-99q0 -135 -38.5 -181.5t-148.5 -46.5v-123q0 -87 42 -129t119 -42q153 0 176 110q-103 50 -103 180q0 95 58.5 149.5t154.5 54.5
q75 0 127.5 -34.5t71.5 -96.5q73 77 226 77h151z" />
    <glyph glyph-name="uF0259" unicode="&#xf0259;" horiz-adv-x="1324" 
d="M1364 740v-60h-140v-680h-65v439h-151q-101 0 -160.5 -45t-59.5 -143t49 -146.5t159 -48.5v-58h-8q-117 0 -181.5 51.5t-79.5 141.5q-57 -46 -145 -46q-28 0 -48 4q-19 -72 -81 -111t-148 -39q-108 0 -171.5 61t-63.5 168v179h37q55 0 80 3.5t44 22.5t23 51.5t4 97.5v98
h-316v60h1422zM474.5 244q40.5 -39 107.5 -39t107.5 39t40.5 105t-40.5 105t-107.5 39t-107.5 -39t-40.5 -105t40.5 -105zM1159 499v181h-837v-99q0 -135 -38.5 -181.5t-148.5 -46.5v-123q0 -87 42 -129t119 -42q153 0 176 110q-103 50 -103 180q0 95 58.5 149.5t154.5 54.5
q75 0 128 -34t74 -95q72 75 224 75h151zM308 -66q20 0 34.5 -14.5t14.5 -34.5t-14.5 -34.5t-34.5 -14.5t-34.5 14.5t-14.5 34.5t14.5 34.5t34.5 14.5z" />
    <glyph glyph-name="uF025A" unicode="&#xf025a;" horiz-adv-x="1451" 
d="M1491 740v-60h-140v-680h-65v429h-225q71 -38 71 -136q0 -79 -51.5 -131t-136.5 -52q-61 0 -109.5 27.5t-72.5 75.5q-56 -68 -165 -68q-28 0 -48 4q-19 -72 -81 -111t-148 -39q-108 0 -171.5 61t-63.5 168v179h37q55 0 80 3.5t44 22.5t23 51.5t4 97.5v98h-313v60h1531z
M489.5 244q40.5 -39 107.5 -39t107.5 39t40.5 105t-40.5 105t-107.5 39t-107.5 -39t-40.5 -105t40.5 -105zM1031.5 203q36.5 34 36.5 93.5t-35 95.5t-92 36t-95 -34.5t-38 -97t39 -95t93.5 -32.5t91 34zM1286 487v193h-949v-99q0 -135 -38.5 -181.5t-148.5 -46.5v-123
q0 -87 42 -129t119 -42q153 0 176 110q-103 50 -103 180q0 95 58.5 149.5t154.5 54.5q73 0 124 -32t72 -90q56 56 173 56h320z" />
    <glyph glyph-name="uF025B" unicode="&#xf025b;" horiz-adv-x="1453" 
d="M1493 740v-60h-140v-680h-65v393h-198v-64q0 -216 -172 -216q-53 0 -96 25t-65 69q-56 -62 -160 -62q-28 0 -48 4q-19 -72 -81 -111t-148 -39q-108 0 -171.5 61t-63.5 168v179h37q55 0 80 3.5t44 22.5t23 51.5t4 97.5v98h-313v60h1533zM150 353v-123q0 -87 42 -129
t119 -42q153 0 176 110q-103 50 -103 180q0 95 58.5 149.5t146 54.5t140.5 -37.5t70 -104.5q56 40 172 40h55v229h-689v-99q0 -135 -38.5 -181.5t-148.5 -46.5zM489.5 244q40.5 -39 107.5 -39t107.5 39t40.5 105t-40.5 105t-107.5 39t-107.5 -39t-40.5 -105t40.5 -105z
M1026 329v64h-62q-78 0 -118.5 -24t-40.5 -88q0 -48 31.5 -78.5t87 -30.5t79 38.5t23.5 118.5zM1288 451v229h-198v-229h198z" />
    <glyph glyph-name="uF025C" unicode="&#xf025c;" horiz-adv-x="1453" 
d="M1493 740v-60h-140v-680h-65v393h-198v-64q0 -216 -172 -216q-53 0 -95.5 25t-64.5 68q-58 -61 -161 -61q-28 0 -48 4q-19 -72 -81 -111t-148 -39q-108 0 -171.5 61t-63.5 168v179h37q55 0 80 3.5t44 22.5t23 51.5t4 97.5v98h-316v60h1536zM150 353v-123q0 -87 42 -129
t119 -42q153 0 176 110q-103 50 -103 180q0 95 58.5 149.5t145.5 54.5t141 -36.5t73 -103.5q56 38 169 38h55v229h-689v-99q0 -135 -38.5 -181.5t-148.5 -46.5zM489.5 244q40.5 -39 107.5 -39t107.5 39t40.5 105t-40.5 105t-107.5 39t-107.5 -39t-40.5 -105t40.5 -105z
M1026 329v64h-62q-78 0 -118.5 -24t-40.5 -88q0 -48 31.5 -78.5t87 -30.5t79 38.5t23.5 118.5zM1288 451v229h-198v-229h198zM321 -66q20 0 34.5 -14.5t14.5 -34.5t-14.5 -34.5t-34.5 -14.5t-34.5 14.5t-14.5 34.5t14.5 34.5t34.5 14.5z" />
    <glyph glyph-name="uF025D" unicode="&#xf025d;" horiz-adv-x="1389" 
d="M1429 740v-60h-140v-680h-65v235q-25 -54 -79.5 -87.5t-130.5 -33.5q-163 0 -233 128q-52 -97 -184 -97q-28 0 -48 4q-19 -72 -81 -111t-148 -39q-108 0 -171.5 61t-63.5 168v179h37q55 0 80 3.5t44 22.5t23 51.5t4 97.5v98h-313v60h1469zM150 353v-123q0 -87 42 -129
t119 -42q153 0 176 110q-103 50 -103 180q0 95 58.5 149.5t154.5 54.5q66 0 114.5 -26.5t72.5 -75.5q104 6 129 38q11 14 17 25t9 36q4 33 4 95v35h-606v-99q0 -135 -38.5 -181.5t-148.5 -46.5zM489.5 244q40.5 -39 107.5 -39t107.5 39t40.5 105t-40.5 105t-107.5 39
t-107.5 -39t-40.5 -105t40.5 -105zM1008 680v-36q0 -64 -6.5 -103.5t-25.5 -74.5q-38 -65 -165 -71q-2 -99 53.5 -160t152.5 -61t152 65.5t55 169.5v271h-216z" />
    <glyph glyph-name="uF025E" unicode="&#xf025e;" horiz-adv-x="1389" 
d="M1429 740v-60h-140v-680h-65v235q-25 -54 -79.5 -87.5t-130.5 -33.5q-161 0 -231 125q-55 -94 -186 -94q-28 0 -48 4q-19 -72 -81 -111t-148 -39q-108 0 -171.5 61t-63.5 168v179h37q55 0 80 3.5t44 22.5t23 51.5t4 97.5v98h-316v60h1472zM150 353v-123q0 -87 42 -129
t119 -42q153 0 176 110q-103 50 -103 180q0 95 58.5 149.5t154.5 54.5q66 0 115.5 -26.5t74.5 -75.5q81 4 109 25q18 13 27.5 24.5t13.5 37.5q6 40 6 107v35h-606v-99q0 -135 -38.5 -181.5t-148.5 -46.5zM489.5 244q40.5 -39 107.5 -39t107.5 39t40.5 105t-40.5 105
t-107.5 39t-107.5 -39t-40.5 -105t40.5 -105zM1008 680v-36q0 -64 -6.5 -103.5t-25.5 -74.5q-38 -65 -165 -71q-2 -99 53.5 -160t152.5 -61t152 65.5t55 169.5v271h-216zM322 -66q20 0 34.5 -14.5t14.5 -34.5t-14.5 -34.5t-34.5 -14.5t-34.5 14.5t-14.5 34.5t14.5 34.5
t34.5 14.5z" />
    <glyph glyph-name="uF025F" unicode="&#xf025f;" horiz-adv-x="1335" 
d="M1375 740v-60h-140v-680h-65v198q-59 -95 -191 -95q-70 0 -124.5 32.5t-83.5 89.5q-55 -80 -174 -80q-28 0 -48 4q-19 -72 -81 -111t-148 -39q-108 0 -171.5 61t-63.5 168v179h37q55 0 80 3.5t44 22.5t23 51.5t4 97.5v98h-313v60h1415zM150 353v-123q0 -87 42 -129
t119 -42q153 0 176 110q-103 50 -103 180q0 95 58.5 149.5t154.5 54.5q125 0 180 -89q30 52 82.5 81.5t119.5 29.5q132 0 191 -95v200h-833v-99q0 -135 -38.5 -181.5t-148.5 -46.5zM489.5 244q40.5 -39 107.5 -39t107.5 39t40.5 105t-40.5 105t-107.5 39t-107.5 -39
t-40.5 -105t40.5 -105zM989 163q82 0 131.5 48t49.5 128t-49.5 128t-131.5 48t-130.5 -47.5t-48.5 -128.5t48.5 -128.5t130.5 -47.5z" />
    <glyph glyph-name="uF0260" unicode="&#xf0260;" horiz-adv-x="1336" 
d="M1376 740v-60h-140v-680h-65v198q-59 -95 -191 -95q-70 0 -124.5 32t-82.5 88q-58 -78 -176 -78q-28 0 -48 4q-19 -72 -81 -111t-148 -39q-108 0 -171.5 61t-63.5 168v179h37q55 0 80 3.5t44 22.5t23 51.5t4 97.5v98h-316v60h1419zM150 353v-123q0 -87 42 -129t119 -42
q153 0 176 110q-103 50 -103 180q0 95 58.5 149.5t154.5 54.5q126 0 182 -87q30 51 82.5 80t118.5 29q132 0 191 -95v200h-834v-99q0 -135 -38.5 -181.5t-148.5 -46.5zM489.5 244q40.5 -39 107.5 -39t107.5 39t40.5 105t-40.5 105t-107.5 39t-107.5 -39t-40.5 -105
t40.5 -105zM990 163q82 0 131.5 48t49.5 128t-49.5 128t-131.5 48t-130.5 -47.5t-48.5 -128.5t48.5 -128.5t130.5 -47.5zM320 -66q20 0 34.5 -14.5t14.5 -34.5t-14.5 -34.5t-34.5 -14.5t-34.5 14.5t-14.5 34.5t14.5 34.5t34.5 14.5z" />
    <glyph glyph-name="uF0261" unicode="&#xf0261;" horiz-adv-x="1407" 
d="M1242 740h205v-60h-140v-680h-65v740zM-40 740h899q30 10 70 10q91 0 146 -56t55 -141q0 -126 -82 -173q-71 -40 -192 -40q-1 0 -45 2v-145q0 -138 120 -138q68 0 93 39.5t27 121.5h66q-3 -102 -44 -161.5t-136 -59.5t-143.5 51t-48.5 147v15q-16 -30 -57.5 -48.5
t-76.5 -18.5t-62 5q-19 -73 -80.5 -112t-148.5 -39q-108 0 -171.5 61t-63.5 168v179h37q55 0 80 3.5t44 22.5t23 51.5t4 97.5v98h-313v60zM489 243.5q40 -38.5 109 -38.5t108 38.5t39 105.5q0 144 -150 144q-68 0 -107 -39t-39 -105.5t40 -105zM150 353v-123q0 -87 42 -129
t119.5 -42t122 29t54.5 83q-48 25 -76 71.5t-28 106.5q0 95 58 149.5t146 54.5t143 -40.5t69 -114.5h38q87 0 126 12t58 28q43 36 43 107.5t-36 108t-99 36.5q-111 0 -128 -96h-68q9 51 37 86h-434v-99q0 -135 -38.5 -181.5t-148.5 -46.5z" />
    <glyph glyph-name="uF0262" unicode="&#xf0262;" horiz-adv-x="1427" 
d="M1262 740h205v-60h-140v-680h-65v740zM-43 740h921q30 10 71 10q91 0 146 -56t55 -141q0 -126 -82 -173q-71 -40 -192 -40q-21 0 -65 2v-145q0 -68 34.5 -103t99.5 -35t94.5 41t31.5 120h66q-6 -221 -196 -221q-89 0 -142 51t-54 144q-57 -49 -148 -49q-28 0 -48 4
q-19 -72 -81 -111t-148 -39q-108 0 -171.5 61t-63.5 168v179h37q55 0 80 3.5t44 22.5t23 51.5t4 97.5v98h-316v60zM489.5 244q40.5 -39 107.5 -39t107.5 39t40.5 105t-40.5 105t-107.5 39t-107.5 -39t-40.5 -105t40.5 -105zM150 353v-123q0 -87 42 -129t119 -42
q153 0 176 110q-103 50 -103 180q0 95 58.5 149.5t148 54.5t145 -41t69.5 -113q18 -1 57 -1t69 2.5t61 12t50 25.5q43 36 43 107.5t-36 108t-98 36.5t-97.5 -30.5t-41.5 -83.5h-64q5 61 40 104h-451v-99q0 -135 -38.5 -181.5t-148.5 -46.5zM320 -66q20 0 34.5 -14.5
t14.5 -34.5t-14.5 -34.5t-34.5 -14.5t-34.5 14.5t-14.5 34.5t14.5 34.5t34.5 14.5z" />
    <glyph glyph-name="uF0263" unicode="&#xf0263;" horiz-adv-x="1449" 
d="M1489 740v-60h-140v-680h-65v369h-473v-156q0 -154 120 -154q65 0 93 43t27 128h66q4 -107 -44.5 -169t-138.5 -62t-137 53.5t-52 143.5q-56 -51 -148 -51q-28 0 -48 4q-19 -72 -81 -111t-148 -39q-108 0 -171.5 61t-63.5 168v179h37q55 0 80 3.5t44 22.5t23 51.5t4 97.5
v98h-313v60h1529zM150 353v-123q0 -87 42 -129t119 -42q153 0 176 110q-103 50 -103 180q0 95 58.5 149.5t154.5 54.5q75 0 126.5 -33.5t71.5 -95.5q74 1 115.5 11t65 40t30 71t6.5 117v17h-675v-99q0 -135 -38.5 -181.5t-148.5 -46.5zM489.5 244q40.5 -39 107.5 -39
t107.5 39t40.5 105t-40.5 105t-107.5 39t-107.5 -39t-40.5 -105t40.5 -105zM1284 424v256h-208v-15q0 -102 -16 -158t-55 -83h279zM320 -66q20 0 34.5 -14.5t14.5 -34.5t-14.5 -34.5t-34.5 -14.5t-34.5 14.5t-14.5 34.5t14.5 34.5t34.5 14.5z" />
    <glyph glyph-name="uF0264" unicode="&#xf0264;" horiz-adv-x="1055" 
d="M1095 740v-60h-140v-680h-65v680h-221v-255q0 -95 -31.5 -141.5t-106.5 -46.5t-110 49.5t-31 138.5h64q0 -61 9.5 -85.5t25.5 -33.5t41 -9t41 9t23 29q11 31 11 90v255h-304v-255q0 -95 -31.5 -141.5t-106.5 -46.5t-110 49.5t-31 138.5h64q0 -61 9.5 -85.5t25.5 -33.5
t41 -9t41 9t23 29q11 31 11 90v255h-277v60h1135z" />
    </font>
</defs>
</svg>
